<svg width="16" height="16" viewBox="0 0 16 16" fill="none" xmlns="http://www.w3.org/2000/svg">
<path d="M7.99988 14.6664C7.21195 14.6664 6.43174 14.5112 5.70378 14.2097C4.97583 13.9081 4.31439 13.4662 3.75724 12.909C3.20009 12.3519 2.75813 11.6904 2.45661 10.9625C2.15508 10.2345 1.99988 9.45432 1.99988 8.66639C1.99988 7.87846 2.15508 7.09824 2.45661 6.37029C2.75813 5.64233 3.20009 4.9809 3.75724 4.42375C4.31439 3.8666 4.97583 3.42464 5.70378 3.12311C6.43174 2.82158 7.21195 2.66639 7.99988 2.66639C9.59118 2.66639 11.1173 3.29853 12.2425 4.42375C13.3677 5.54897 13.9999 7.07509 13.9999 8.66639C13.9999 10.2577 13.3677 11.7838 12.2425 12.909C11.1173 14.0342 9.59118 14.6664 7.99988 14.6664ZM8.66655 8.66639V5.33305H7.33322V9.99972H10.6666V8.66639H8.66655ZM1.16455 4.18772L3.52122 1.83105L4.46455 2.77372L2.10655 5.13105L1.16455 4.18772ZM12.4779 1.83105L14.8352 4.18772L13.8926 5.13105L11.5352 2.77372L12.4786 1.83105H12.4779Z" fill="#5E81F4"/>
</svg>
