<svg width="25" height="24" viewBox="0 0 25 24" fill="none" xmlns="http://www.w3.org/2000/svg">
    <path d="M19.7032 7.12803H15.8265V5.44945C15.8265 4.6502 15.2214 4 14.4775 4H10.5195C9.77569 4 9.17057 4.6502 9.17057 5.44945V7.12803H5.29385C4.30629 7.12803 3.50282 7.99139 3.50282 9.05257C3.50282 10.0165 3.41095 10.8822 4.09074 11.8557C4.47535 12.4065 5.00389 12.7994 5.6192 12.9919L11.5942 14.8612C12.1857 15.0462 12.8111 15.0463 13.4028 14.8612L19.3778 12.9919C19.9931 12.7993 20.5216 12.4065 20.9062 11.8557C21.5891 10.8778 21.4942 10.0032 21.4942 9.05257C21.4942 7.99139 20.6908 7.12803 19.7032 7.12803ZM10.3131 5.44945C10.3131 5.32718 10.4057 5.22773 10.5195 5.22773H14.4775C14.5913 5.22773 14.6839 5.32721 14.6839 5.44945V7.12803H10.3131V5.44945Z" fill="#BDBDBD"/>
    <path d="M19.7008 14.0443C13.2529 15.8501 13.3364 15.8866 12.4986 15.8866C11.6669 15.8866 11.8642 15.8837 5.29652 14.0443C4.60404 13.8503 3.99077 13.4928 3.49866 13V18.2764C3.49866 19.2268 4.30248 20 5.29055 20H19.7068C20.6948 20 21.4987 19.2268 21.4987 18.2764V13C21.0065 13.4928 20.3932 13.8503 19.7008 14.0443Z" fill="#BDBDBD"/>
</svg>
