<svg width="20" height="20" viewBox="0 0 20 20" fill="none" xmlns="http://www.w3.org/2000/svg">
<path d="M1 5.33333C1 4.71449 1.23705 4.121 1.65901 3.68342C2.08097 3.24583 2.65326 3 3.25 3H16.75C17.3467 3 17.919 3.24583 18.341 3.68342C18.7629 4.121 19 4.71449 19 5.33333V14.6667C19 15.2855 18.7629 15.879 18.341 16.3166C17.919 16.7542 17.3467 17 16.75 17H3.25C2.65326 17 2.08097 16.7542 1.65901 16.3166C1.23705 15.879 1 15.2855 1 14.6667V5.33333ZM3.25 4.16667C2.95163 4.16667 2.66548 4.28958 2.4545 4.50838C2.24353 4.72717 2.125 5.02391 2.125 5.33333V6.5H17.875V5.33333C17.875 5.02391 17.7565 4.72717 17.5455 4.50838C17.3345 4.28958 17.0484 4.16667 16.75 4.16667H3.25ZM17.875 8.83333H2.125V14.6667C2.125 14.9761 2.24353 15.2728 2.4545 15.4916C2.66548 15.7104 2.95163 15.8333 3.25 15.8333H16.75C17.0484 15.8333 17.3345 15.7104 17.5455 15.4916C17.7565 15.2728 17.875 14.9761 17.875 14.6667V8.83333Z" fill="#5E81F4"/>
<path d="M3.25 12.3346C3.25 12.0252 3.36853 11.7285 3.5795 11.5097C3.79048 11.2909 4.07663 11.168 4.375 11.168H5.5C5.79837 11.168 6.08452 11.2909 6.2955 11.5097C6.50647 11.7285 6.625 12.0252 6.625 12.3346V13.5013C6.625 13.8107 6.50647 14.1075 6.2955 14.3263C6.08452 14.5451 5.79837 14.668 5.5 14.668H4.375C4.07663 14.668 3.79048 14.5451 3.5795 14.3263C3.36853 14.1075 3.25 13.8107 3.25 13.5013V12.3346Z" fill="#5E81F4"/>
</svg>
