<svg width="16" height="16" viewBox="0 0 16 16" fill="none" xmlns="http://www.w3.org/2000/svg">
<g clip-path="url(#clip0)">
<path d="M11.2512 0.0684417C11.3491 0.12518 11.4248 0.213432 11.466 0.318779C11.5073 0.424127 11.5116 0.540343 11.4782 0.648442L9.6772 6.50044H13.0002C13.0979 6.5004 13.1934 6.52896 13.275 6.58259C13.3566 6.63622 13.4207 6.71258 13.4594 6.80223C13.4981 6.89189 13.5098 6.99092 13.4928 7.08709C13.4759 7.18327 13.4312 7.27239 13.3642 7.34344L5.3642 15.8434C5.28679 15.9258 5.18379 15.9794 5.07197 15.9957C4.96016 16.012 4.84613 15.9899 4.74847 15.9331C4.65081 15.8762 4.57528 15.788 4.53419 15.6827C4.4931 15.5775 4.48887 15.4614 4.5222 15.3534L6.3232 9.50044H3.0002C2.90254 9.50048 2.80702 9.47192 2.72541 9.41829C2.6438 9.36466 2.57968 9.2883 2.54096 9.19865C2.50225 9.109 2.49064 9.00997 2.50757 8.91379C2.52449 8.81761 2.56921 8.7285 2.6362 8.65744L10.6362 0.157442C10.7135 0.0752409 10.8164 0.0216103 10.928 0.00527029C11.0397 -0.0110698 11.1536 0.0108416 11.2512 0.0674417V0.0684417Z" fill="#F78248"/>
</g>
<defs>
<clipPath id="clip0">
<rect width="16" height="16" fill="white"/>
</clipPath>
</defs>
</svg>
