<svg width="30" height="30" viewBox="0 0 30 30" fill="none" xmlns="http://www.w3.org/2000/svg">
<path d="M24.4146 6.56477C24.2673 6.44532 24.0983 6.35693 23.9174 6.3047C23.7365 6.25247 23.5473 6.23744 23.3607 6.26048C23.1741 6.28351 22.9938 6.34416 22.8302 6.43891C22.6666 6.53367 22.523 6.66065 22.4076 6.81254L12.4437 19.9299L7.56146 13.8376C7.44694 13.6815 7.30296 13.5506 7.13807 13.4526C6.97317 13.3546 6.79073 13.2915 6.60156 13.267C6.4124 13.2426 6.22036 13.2573 6.03686 13.3103C5.85336 13.3633 5.68214 13.4536 5.53334 13.5757C5.38455 13.6977 5.26123 13.8492 5.1707 14.021C5.08016 14.1928 5.02426 14.3815 5.00632 14.5759C4.98837 14.7702 5.00875 14.9663 5.06623 15.1525C5.12371 15.3386 5.21713 15.511 5.34094 15.6595L11.2766 23.2093C11.4105 23.3784 11.5798 23.5146 11.7719 23.6079C11.9641 23.7012 12.1742 23.7493 12.3868 23.7486C12.6125 23.7589 12.8374 23.714 13.0428 23.6177C13.2483 23.5214 13.4284 23.3764 13.5682 23.1947L24.7135 8.61983C24.8272 8.46537 24.9096 8.28931 24.9561 8.10189C25.0027 7.91447 25.0123 7.71945 24.9845 7.52819C24.9566 7.33692 24.8919 7.15324 24.7941 6.98783C24.6963 6.82243 24.5673 6.67862 24.4146 6.56477Z" fill="#5E81F4"/>
</svg>
