<svg width="25" height="24" viewBox="0 0 25 24" fill="none" xmlns="http://www.w3.org/2000/svg">
    <path d="M4.99731 13H10.9973C11.2625 13 11.5169 12.8946 11.7044 12.7071C11.892 12.5196 11.9973 12.2652 11.9973 12V4C11.9973 3.73478 11.892 3.48043 11.7044 3.29289C11.5169 3.10536 11.2625 3 10.9973 3H4.99731C4.7321 3 4.47774 3.10536 4.29021 3.29289C4.10267 3.48043 3.99731 3.73478 3.99731 4V12C3.99731 12.2652 4.10267 12.5196 4.29021 12.7071C4.47774 12.8946 4.7321 13 4.99731 13ZM3.99731 20C3.99731 20.2652 4.10267 20.5196 4.29021 20.7071C4.47774 20.8946 4.7321 21 4.99731 21H10.9973C11.2625 21 11.5169 20.8946 11.7044 20.7071C11.892 20.5196 11.9973 20.2652 11.9973 20V16C11.9973 15.7348 11.892 15.4804 11.7044 15.2929C11.5169 15.1054 11.2625 15 10.9973 15H4.99731C4.7321 15 4.47774 15.1054 4.29021 15.2929C4.10267 15.4804 3.99731 15.7348 3.99731 16V20ZM13.9973 20C13.9973 20.2652 14.1027 20.5196 14.2902 20.7071C14.4777 20.8946 14.7321 21 14.9973 21H20.9973C21.2625 21 21.5169 20.8946 21.7044 20.7071C21.892 20.5196 21.9973 20.2652 21.9973 20V13C21.9973 12.7348 21.892 12.4804 21.7044 12.2929C21.5169 12.1054 21.2625 12 20.9973 12H14.9973C14.7321 12 14.4777 12.1054 14.2902 12.2929C14.1027 12.4804 13.9973 12.7348 13.9973 13V20ZM14.9973 10H20.9973C21.2625 10 21.5169 9.89464 21.7044 9.70711C21.892 9.51957 21.9973 9.26522 21.9973 9V4C21.9973 3.73478 21.892 3.48043 21.7044 3.29289C21.5169 3.10536 21.2625 3 20.9973 3H14.9973C14.7321 3 14.4777 3.10536 14.2902 3.29289C14.1027 3.48043 13.9973 3.73478 13.9973 4V9C13.9973 9.26522 14.1027 9.51957 14.2902 9.70711C14.4777 9.89464 14.7321 10 14.9973 10Z" fill="#BDBDBD"/>
</svg>
