<svg width="27" height="27" viewBox="0 0 27 27" fill="none" xmlns="http://www.w3.org/2000/svg">
<path d="M9.2687 12.65C9.32117 12.7133 9.38561 12.7656 9.45832 12.8039C9.53104 12.8423 9.61061 12.8659 9.69247 12.8735C9.77433 12.881 9.85687 12.8723 9.93538 12.8479C10.0139 12.8235 10.0868 12.7839 10.15 12.7312L12.875 10.4625L12.875 17.875C12.875 18.0408 12.9408 18.1997 13.058 18.3169C13.1752 18.4342 13.3342 18.5 13.5 18.5C13.6657 18.5 13.8247 18.4342 13.9419 18.3169C14.0591 18.1997 14.125 18.0408 14.125 17.875L14.125 10.4625L16.85 12.7313C16.9132 12.7838 16.9861 12.8233 17.0646 12.8477C17.1431 12.872 17.2256 12.8807 17.3074 12.8731C17.3892 12.8656 17.4688 12.842 17.5415 12.8037C17.6142 12.7654 17.6787 12.7132 17.7312 12.65C17.7837 12.5868 17.8233 12.5139 17.8476 12.4354C17.872 12.3569 17.8806 12.2744 17.8731 12.1925C17.8655 12.1107 17.842 12.0312 17.8037 11.9585C17.7654 11.8857 17.7132 11.8213 17.65 11.7687L13.9 8.64375L13.8062 8.5875L13.725 8.54375C13.5802 8.48788 13.4197 8.48788 13.275 8.54375L13.1937 8.5875L13.1 8.64375L9.34995 11.7687C9.28667 11.8212 9.23435 11.8857 9.19601 11.9584C9.15766 12.0311 9.13404 12.1107 9.12649 12.1925C9.11894 12.2744 9.12762 12.3569 9.15202 12.4354C9.17643 12.5139 9.21607 12.5868 9.2687 12.65Z" fill="#5E81F4"/>
</svg>
