<svg width="16" height="16" viewBox="0 0 16 16" fill="none" xmlns="http://www.w3.org/2000/svg">
<path d="M8.90675 3.48713C8.83924 3.5431 8.78344 3.61184 8.74254 3.6894C8.70164 3.76697 8.67644 3.85184 8.66839 3.93915C8.66034 4.02647 8.66959 4.11452 8.69562 4.19826C8.72165 4.28199 8.76395 4.35977 8.82008 4.42714L11.2401 7.3338L3.33341 7.3338C3.1566 7.3338 2.98703 7.40404 2.86201 7.52906C2.73699 7.65409 2.66675 7.82366 2.66675 8.00047C2.66675 8.17728 2.73699 8.34685 2.86201 8.47187C2.98703 8.5969 3.1566 8.66714 3.33341 8.66714L11.2401 8.66714L8.82008 11.5738C8.76405 11.6412 8.72185 11.719 8.69588 11.8027C8.66991 11.8864 8.66069 11.9745 8.66873 12.0618C8.67678 12.149 8.70194 12.2339 8.74278 12.3114C8.78362 12.389 8.83934 12.4578 8.90675 12.5138C8.97416 12.5698 9.05195 12.612 9.13567 12.638C9.21939 12.664 9.30741 12.6732 9.3947 12.6651C9.48198 12.6571 9.56683 12.6319 9.64439 12.5911C9.72196 12.5503 9.79072 12.4945 9.84675 12.4271L13.1801 8.42714L13.2401 8.32713L13.2867 8.24047C13.3463 8.08602 13.3463 7.91492 13.2867 7.76047L13.2401 7.6738L13.1801 7.5738L9.84675 3.5738C9.79078 3.5063 9.72205 3.4505 9.64448 3.40959C9.56692 3.36869 9.48205 3.34349 9.39473 3.33544C9.30741 3.32739 9.21936 3.33665 9.13563 3.36268C9.05189 3.38871 8.97411 3.431 8.90675 3.48713Z" fill="#5E81F4"/>
</svg>
