<svg width="24" height="17" viewBox="0 0 24 17" fill="none" xmlns="http://www.w3.org/2000/svg">
    <path d="M18.79 13.412L17.176 11.797C16.5518 12.0202 15.8771 12.0615 15.2304 11.9162C14.5837 11.7709 13.9915 11.4449 13.5228 10.9762C13.0541 10.5075 12.7281 9.91531 12.5828 9.26858C12.4375 8.62185 12.4788 7.94716 12.702 7.323L10.642 5.263C8.938 6.778 8 8.5 8 8.5C8 8.5 11 14 16 14C16.9604 13.9967 17.9099 13.7965 18.79 13.412ZM13.21 3.588C14.0901 3.20342 15.0396 3.00331 16 3C21 3 24 8.5 24 8.5C24 8.5 23.061 10.221 21.359 11.738L19.297 9.676C19.5202 9.05184 19.5615 8.37715 19.4162 7.73042C19.2709 7.08369 18.9449 6.49153 18.4762 6.02282C18.0075 5.55411 17.4153 5.22814 16.7686 5.08283C16.1219 4.93752 15.4472 4.97885 14.823 5.202L13.21 3.589V3.588Z" fill="#546E7A"/>
    <path d="M13.525 8.146C13.47 8.53031 13.5052 8.92215 13.628 9.29047C13.7507 9.65879 13.9575 9.99347 14.232 10.268C14.5065 10.5425 14.8412 10.7493 15.2095 10.872C15.5778 10.9948 15.9697 11.03 16.354 10.975L13.524 8.146H13.525ZM18.475 8.854L15.646 6.024C16.0303 5.96899 16.4221 6.00424 16.7905 6.12696C17.1588 6.24968 17.4935 6.45649 17.768 6.73101C18.0425 7.00553 18.2493 7.3402 18.372 7.70853C18.4948 8.07685 18.53 8.46869 18.475 8.853V8.854ZM21.646 14.854L9.646 2.854L10.354 2.146L22.354 14.146L21.646 14.854Z" fill="#546E7A"/>
</svg>
