<svg width="38" height="38" viewBox="0 0 38 38" fill="none" xmlns="http://www.w3.org/2000/svg">
<path d="M26.9183 13.7204C27.6183 13.7204 28.2895 13.4424 28.7845 12.9475C29.2794 12.4525 29.5574 11.7813 29.5574 11.0813C29.5574 10.3814 29.2794 9.71015 28.7845 9.21522C28.2895 8.7203 27.6183 8.44225 26.9183 8.44225C26.2184 8.44225 25.5472 8.7203 25.0522 9.21522C24.5573 9.71015 24.2793 10.3814 24.2793 11.0813C24.2793 11.7813 24.5573 12.4525 25.0522 12.9475C25.5472 13.4424 26.2184 13.7204 26.9183 13.7204ZM17.6815 29.555V28.2355H20.3206C20.6706 28.2355 21.0062 28.0964 21.2537 27.849C21.5011 27.6015 21.6402 27.2659 21.6402 26.9159V24.2768H24.2793C26.4959 24.2763 28.6562 23.578 30.4538 22.2809C32.2513 20.9839 33.595 19.1539 34.2942 17.0504C34.9934 14.9469 35.0128 12.6767 34.3495 10.5616C33.6861 8.44647 32.3739 6.59384 30.5986 5.26636C28.8234 3.93888 26.6754 3.2039 24.459 3.16564C22.2427 3.12737 20.0705 3.78776 18.2506 5.05318C16.4306 6.31859 15.0551 8.12481 14.3192 10.2157C13.5833 12.3067 13.5242 14.5762 14.1504 16.7026L3.93712 26.9159C3.44313 27.4111 3.16595 28.0822 3.1665 28.7817V32.1941C3.1665 32.894 3.44455 33.5653 3.93948 34.0602C4.4344 34.5551 5.10567 34.8332 5.8056 34.8332H11.0838C11.7837 34.8332 12.455 34.5551 12.9499 34.0602C13.4448 33.5653 13.7229 32.894 13.7229 32.1941V30.8745H16.362C16.7119 30.8745 17.0476 30.7355 17.295 30.4881C17.5425 30.2406 17.6815 29.905 17.6815 29.555ZM16.362 13.7204C16.362 12.1545 16.8263 10.6238 17.6963 9.32183C18.5662 8.01984 19.8027 7.00506 21.2494 6.40582C22.6961 5.80658 24.288 5.64979 25.8238 5.95528C27.3596 6.26077 28.7704 7.01482 29.8776 8.12207C30.9849 9.22933 31.7389 10.6401 32.0444 12.1759C32.3499 13.7117 32.1931 15.3036 31.5939 16.7502C30.9946 18.1969 29.9799 19.4335 28.6779 20.3034C27.3759 21.1734 25.8451 21.6377 24.2793 21.6377H20.3206C19.9706 21.6377 19.635 21.7767 19.3876 22.0242C19.1401 22.2717 19.0011 22.6073 19.0011 22.9573V25.5964H16.362C16.012 25.5964 15.6764 25.7354 15.4289 25.9828C15.1815 26.2303 15.0424 26.5659 15.0424 26.9159V28.2355H12.4033C12.0534 28.2355 11.7177 28.3745 11.4703 28.6219C11.2228 28.8694 11.0838 29.205 11.0838 29.555V32.1941H5.8056V28.7817L16.5969 17.9905C16.7778 17.8098 16.9023 17.5803 16.9552 17.3301C17.0082 17.0799 16.9873 16.8198 16.8951 16.5812C16.552 15.6945 16.362 14.7338 16.362 13.7204Z" fill="#5E81F4"/>
</svg>
