<svg width="20" height="20" viewBox="0 0 20 20" fill="none" xmlns="http://www.w3.org/2000/svg">
<path d="M8.37108 11.1334L19 11.1334L19 9.86661L8.37108 9.86661L11.2762 6.89568V6.89564L10.4003 6L6 10.5L6.00004 10.5H6L10.4003 15L11.2762 14.1043V14.1043L8.37108 11.1334Z" fill="#5E81F4"/>
<path d="M12.4 19C12.7314 19 13 18.7314 13 18.4C13 18.0686 12.7314 17.8 12.4 17.8L3.14286 17.8C2.59057 17.8 2.14286 17.3523 2.14286 16.8L2.14286 3.2C2.14286 2.64772 2.59057 2.2 3.14286 2.2L12.4 2.2C12.7314 2.2 13 1.93137 13 1.6C13 1.26863 12.7314 1 12.4 1L2 1C1.44771 1 1 1.44772 1 2L0.999998 18C0.999998 18.5523 1.44771 19 2 19L12.4 19Z" fill="#5E81F4"/>
</svg>
