<svg width="18" height="18" viewBox="0 0 18 18" fill="none" xmlns="http://www.w3.org/2000/svg">
<path d="M17.469 3H13.4602C13.2783 3 13.1037 3.08481 13.0041 3.23451C12.8632 3.44636 12.8967 3.71907 13.072 3.89147L13.903 4.70886L11.3475 7.22222L8.64375 4.56302C8.43642 4.35904 8.10021 4.35911 7.89285 4.56302L2 10.3587V15L8.26828 8.83499L10.972 11.4943C11.1697 11.6966 11.5253 11.6965 11.7229 11.4943L16.2625 7.02945L17.0936 7.84681C17.2691 8.01945 17.5469 8.05218 17.7621 7.91316C17.9141 7.81505 18 7.64335 18 7.46457V3.52223C18 3.23382 17.7623 3 17.469 3Z" fill="#4CAF50"/>
<path d="M17.4727 16.9453H1.05469V0.527344C1.05469 0.236109 0.818578 0 0.527344 0C0.236109 0 0 0.236109 0 0.527344V17.4727C0 17.7639 0.236109 18 0.527344 18H17.4727C17.7639 18 18 17.7639 18 17.4727C18 17.1814 17.7639 16.9453 17.4727 16.9453Z" fill="#4CAF50"/>
</svg>
