<svg width="200" height="200" viewBox="0 0 200 200" fill="none" xmlns="http://www.w3.org/2000/svg">
<path d="M22.72 16H16V22.72H22.72V16Z" fill="#474747"/>
<path d="M29.44 16H22.72V22.72H29.44V16Z" fill="#474747"/>
<path d="M36.16 16H29.44V22.72H36.16V16Z" fill="#474747"/>
<path d="M42.88 16H36.16V22.72H42.88V16Z" fill="#474747"/>
<path d="M49.6 16H42.88V22.72H49.6V16Z" fill="#474747"/>
<path d="M56.32 16H49.6V22.72H56.32V16Z" fill="#474747"/>
<path d="M63.04 16H56.32V22.72H63.04V16Z" fill="#474747"/>
<path d="M76.48 16H69.76V22.72H76.48V16Z" fill="#474747"/>
<path d="M83.2 16H76.48V22.72H83.2V16Z" fill="#474747"/>
<path d="M110.08 16H103.36V22.72H110.08V16Z" fill="#474747"/>
<path d="M130.24 16H123.52V22.72H130.24V16Z" fill="#474747"/>
<path d="M143.68 16H136.96V22.72H143.68V16Z" fill="#474747"/>
<path d="M150.4 16H143.68V22.72H150.4V16Z" fill="#474747"/>
<path d="M157.12 16H150.4V22.72H157.12V16Z" fill="#474747"/>
<path d="M163.84 16H157.12V22.72H163.84V16Z" fill="#474747"/>
<path d="M170.56 16H163.84V22.72H170.56V16Z" fill="#474747"/>
<path d="M177.28 16H170.56V22.72H177.28V16Z" fill="#474747"/>
<path d="M184 16H177.28V22.72H184V16Z" fill="#474747"/>
<path d="M22.72 22.72H16V29.44H22.72V22.72Z" fill="#474747"/>
<path d="M63.04 22.72H56.32L56.32 29.44H63.04V22.72Z" fill="#474747"/>
<path d="M103.36 22.72H96.64V29.44H103.36V22.72Z" fill="#474747"/>
<path d="M110.08 22.72H103.36V29.44H110.08V22.72Z" fill="#474747"/>
<path d="M130.24 22.72H123.52V29.44H130.24V22.72Z" fill="#474747"/>
<path d="M143.68 22.72H136.96V29.44H143.68V22.72Z" fill="#474747"/>
<path d="M184 22.72H177.28V29.44H184V22.72Z" fill="#474747"/>
<path d="M22.72 29.44H16V36.16H22.72V29.44Z" fill="#474747"/>
<path d="M36.16 29.44H29.44V36.16H36.16V29.44Z" fill="#474747"/>
<path d="M42.88 29.44H36.16V36.16H42.88V29.44Z" fill="#474747"/>
<path d="M49.6 29.44H42.88V36.16H49.6V29.44Z" fill="#474747"/>
<path d="M63.04 29.44H56.32V36.16H63.04V29.44Z" fill="#474747"/>
<path d="M83.2 29.44H76.48V36.16H83.2V29.44Z" fill="#474747"/>
<path d="M89.92 29.44H83.2V36.16H89.92V29.44Z" fill="#474747"/>
<path d="M96.64 29.44H89.92V36.16H96.64V29.44Z" fill="#474747"/>
<path d="M103.36 29.44H96.64V36.16H103.36V29.44Z" fill="#474747"/>
<path d="M110.08 29.44H103.36V36.16H110.08V29.44Z" fill="#474747"/>
<path d="M130.24 29.44H123.52V36.16H130.24V29.44Z" fill="#474747"/>
<path d="M143.68 29.44H136.96V36.16H143.68V29.44Z" fill="#474747"/>
<path d="M157.12 29.44H150.4V36.16H157.12V29.44Z" fill="#474747"/>
<path d="M163.84 29.44H157.12V36.16H163.84V29.44Z" fill="#474747"/>
<path d="M170.56 29.44H163.84V36.16H170.56V29.44Z" fill="#474747"/>
<path d="M184 29.44H177.28V36.16H184V29.44Z" fill="#474747"/>
<path d="M22.72 36.16H16V42.88H22.72V36.16Z" fill="#474747"/>
<path d="M36.16 36.16H29.44V42.88H36.16V36.16Z" fill="#474747"/>
<path d="M42.88 36.16H36.16V42.88H42.88V36.16Z" fill="#474747"/>
<path d="M49.6 36.16H42.88V42.88H49.6V36.16Z" fill="#474747"/>
<path d="M63.04 36.16H56.32V42.88H63.04V36.16Z" fill="#474747"/>
<path d="M83.2 36.16H76.48V42.88H83.2V36.16Z" fill="#474747"/>
<path d="M89.92 36.16H83.2V42.88H89.92V36.16Z" fill="#474747"/>
<path d="M110.08 36.16H103.36V42.88H110.08V36.16Z" fill="#474747"/>
<path d="M143.68 36.16H136.96V42.88H143.68V36.16Z" fill="#474747"/>
<path d="M157.12 36.16H150.4V42.88H157.12V36.16Z" fill="#474747"/>
<path d="M163.84 36.16H157.12V42.88H163.84V36.16Z" fill="#474747"/>
<path d="M170.56 36.16H163.84V42.88H170.56V36.16Z" fill="#474747"/>
<path d="M184 36.16H177.28V42.88H184V36.16Z" fill="#474747"/>
<path d="M22.72 42.88H16V49.6H22.72V42.88Z" fill="#474747"/>
<path d="M36.16 42.88H29.44V49.6H36.16V42.88Z" fill="#474747"/>
<path d="M42.88 42.88H36.16V49.6H42.88V42.88Z" fill="#474747"/>
<path d="M49.6 42.88H42.88V49.6H49.6V42.88Z" fill="#474747"/>
<path d="M63.04 42.88H56.32V49.6H63.04V42.88Z" fill="#474747"/>
<path d="M76.48 42.88H69.76V49.6H76.48V42.88Z" fill="#474747"/>
<path d="M89.92 42.88H83.2V49.6H89.92V42.88Z" fill="#474747"/>
<path d="M96.64 42.88H89.92V49.6H96.64V42.88Z" fill="#474747"/>
<path d="M103.36 42.88H96.64V49.6H103.36V42.88Z" fill="#474747"/>
<path d="M116.8 42.88H110.08V49.6H116.8V42.88Z" fill="#474747"/>
<path d="M143.68 42.88H136.96V49.6H143.68V42.88Z" fill="#474747"/>
<path d="M157.12 42.88H150.4V49.6H157.12V42.88Z" fill="#474747"/>
<path d="M163.84 42.88H157.12V49.6H163.84V42.88Z" fill="#474747"/>
<path d="M170.56 42.88H163.84V49.6H170.56V42.88Z" fill="#474747"/>
<path d="M184 42.88H177.28V49.6H184V42.88Z" fill="#474747"/>
<path d="M22.72 49.6H16V56.32H22.72V49.6Z" fill="#474747"/>
<path d="M63.04 49.6H56.32V56.32H63.04V49.6Z" fill="#474747"/>
<path d="M116.8 49.6H110.08V56.32H116.8V49.6Z" fill="#474747"/>
<path d="M143.68 49.6H136.96V56.32H143.68V49.6Z" fill="#474747"/>
<path d="M184 49.6H177.28V56.32H184V49.6Z" fill="#474747"/>
<path d="M22.72 56.32H16V63.04H22.72V56.32Z" fill="#474747"/>
<path d="M29.44 56.32L22.72 56.32V63.04H29.44V56.32Z" fill="#474747"/>
<path d="M36.16 56.32H29.44V63.04H36.16V56.32Z" fill="#474747"/>
<path d="M42.88 56.32H36.16V63.04H42.88V56.32Z" fill="#474747"/>
<path d="M49.6 56.32H42.88V63.04H49.6V56.32Z" fill="#474747"/>
<path d="M56.32 56.32L49.6 56.32V63.04H56.32L56.32 56.32Z" fill="#474747"/>
<path d="M63.04 56.32H56.32L56.32 63.04H63.04V56.32Z" fill="#474747"/>
<path d="M76.48 56.32H69.76V63.04H76.48V56.32Z" fill="#474747"/>
<path d="M89.92 56.32H83.2V63.04H89.92V56.32Z" fill="#474747"/>
<path d="M103.36 56.32H96.64V63.04H103.36V56.32Z" fill="#474747"/>
<path d="M116.8 56.32H110.08V63.04H116.8V56.32Z" fill="#474747"/>
<path d="M130.24 56.32H123.52V63.04H130.24V56.32Z" fill="#474747"/>
<path d="M143.68 56.32H136.96V63.04H143.68V56.32Z" fill="#474747"/>
<path d="M150.4 56.32L143.68 56.32V63.04H150.4V56.32Z" fill="#474747"/>
<path d="M157.12 56.32H150.4V63.04H157.12V56.32Z" fill="#474747"/>
<path d="M163.84 56.32H157.12V63.04H163.84V56.32Z" fill="#474747"/>
<path d="M170.56 56.32H163.84V63.04H170.56V56.32Z" fill="#474747"/>
<path d="M177.28 56.32L170.56 56.32V63.04H177.28V56.32Z" fill="#474747"/>
<path d="M184 56.32H177.28V63.04H184V56.32Z" fill="#474747"/>
<path d="M76.48 63.04H69.76V69.76H76.48V63.04Z" fill="#474747"/>
<path d="M89.92 63.04H83.2V69.76H89.92V63.04Z" fill="#474747"/>
<path d="M103.36 63.04H96.64V69.76H103.36V63.04Z" fill="#474747"/>
<path d="M110.08 63.04H103.36V69.76H110.08V63.04Z" fill="#474747"/>
<path d="M123.52 63.04H116.8L116.8 69.76H123.52V63.04Z" fill="#474747"/>
<path d="M130.24 63.04H123.52V69.76H130.24V63.04Z" fill="#474747"/>
<path d="M22.72 69.76H16V76.48H22.72V69.76Z" fill="#474747"/>
<path d="M42.88 69.76H36.16V76.48H42.88V69.76Z" fill="#474747"/>
<path d="M49.6 69.76H42.88V76.48H49.6V69.76Z" fill="#474747"/>
<path d="M56.32 69.76H49.6V76.48H56.32V69.76Z" fill="#474747"/>
<path d="M63.04 69.76H56.32V76.48H63.04V69.76Z" fill="#474747"/>
<path d="M69.76 69.76H63.04V76.48H69.76V69.76Z" fill="#474747"/>
<path d="M76.48 69.76H69.76V76.48H76.48V69.76Z" fill="#474747"/>
<path d="M83.2 69.76H76.48V76.48H83.2V69.76Z" fill="#474747"/>
<path d="M110.08 69.76H103.36V76.48H110.08V69.76Z" fill="#474747"/>
<path d="M130.24 69.76H123.52V76.48H130.24V69.76Z" fill="#474747"/>
<path d="M136.96 69.76H130.24V76.48H136.96V69.76Z" fill="#474747"/>
<path d="M143.68 69.76H136.96V76.48H143.68V69.76Z" fill="#474747"/>
<path d="M157.12 69.76H150.4V76.48H157.12V69.76Z" fill="#474747"/>
<path d="M184 69.76H177.28V76.48H184V69.76Z" fill="#474747"/>
<path d="M29.44 76.48H22.72V83.2H29.44V76.48Z" fill="#474747"/>
<path d="M42.88 76.48H36.16V83.2H42.88V76.48Z" fill="#474747"/>
<path d="M49.6 76.48H42.88V83.2H49.6V76.48Z" fill="#474747"/>
<path d="M69.76 76.48H63.04V83.2H69.76V76.48Z" fill="#474747"/>
<path d="M76.48 76.48H69.76V83.2H76.48V76.48Z" fill="#474747"/>
<path d="M103.36 76.48H96.64V83.2H103.36V76.48Z" fill="#474747"/>
<path d="M123.52 76.48H116.8V83.2H123.52V76.48Z" fill="#474747"/>
<path d="M136.96 76.48H130.24V83.2H136.96V76.48Z" fill="#474747"/>
<path d="M143.68 76.48H136.96V83.2H143.68V76.48Z" fill="#474747"/>
<path d="M157.12 76.48H150.4V83.2H157.12V76.48Z" fill="#474747"/>
<path d="M163.84 76.48H157.12V83.2H163.84V76.48Z" fill="#474747"/>
<path d="M170.56 76.48H163.84V83.2H170.56V76.48Z" fill="#474747"/>
<path d="M177.28 76.48H170.56V83.2H177.28V76.48Z" fill="#474747"/>
<path d="M184 76.48H177.28V83.2H184V76.48Z" fill="#474747"/>
<path d="M22.72 83.2H16V89.92H22.72V83.2Z" fill="#474747"/>
<path d="M29.44 83.2H22.72V89.92H29.44V83.2Z" fill="#474747"/>
<path d="M42.88 83.2H36.16V89.92H42.88V83.2Z" fill="#474747"/>
<path d="M49.6 83.2H42.88V89.92H49.6V83.2Z" fill="#474747"/>
<path d="M56.32 83.2H49.6V89.92H56.32V83.2Z" fill="#474747"/>
<path d="M63.04 83.2H56.32V89.92H63.04V83.2Z" fill="#474747"/>
<path d="M69.76 83.2H63.04V89.92H69.76V83.2Z" fill="#474747"/>
<path d="M83.2 83.2H76.48V89.92H83.2V83.2Z" fill="#474747"/>
<path d="M96.64 83.2H89.92V89.92H96.64V83.2Z" fill="#474747"/>
<path d="M103.36 83.2H96.64V89.92H103.36V83.2Z" fill="#474747"/>
<path d="M116.8 83.2H110.08V89.92H116.8L116.8 83.2Z" fill="#474747"/>
<path d="M130.24 83.2H123.52V89.92H130.24V83.2Z" fill="#474747"/>
<path d="M136.96 83.2H130.24V89.92H136.96V83.2Z" fill="#474747"/>
<path d="M143.68 83.2H136.96V89.92H143.68V83.2Z" fill="#474747"/>
<path d="M150.4 83.2H143.68V89.92H150.4V83.2Z" fill="#474747"/>
<path d="M157.12 83.2H150.4V89.92H157.12V83.2Z" fill="#474747"/>
<path d="M163.84 83.2H157.12V89.92H163.84V83.2Z" fill="#474747"/>
<path d="M170.56 83.2H163.84V89.92H170.56V83.2Z" fill="#474747"/>
<path d="M177.28 83.2H170.56V89.92H177.28V83.2Z" fill="#474747"/>
<path d="M22.72 89.92H16V96.64H22.72V89.92Z" fill="#474747"/>
<path d="M49.6 89.92H42.88V96.64H49.6V89.92Z" fill="#474747"/>
<path d="M56.32 89.92H49.6V96.64H56.32V89.92Z" fill="#474747"/>
<path d="M69.76 89.92H63.04V96.64H69.76V89.92Z" fill="#474747"/>
<path d="M83.2 89.92H76.48V96.64H83.2V89.92Z" fill="#474747"/>
<path d="M89.92 89.92H83.2V96.64H89.92V89.92Z" fill="#474747"/>
<path d="M116.8 89.92H110.08V96.64H116.8V89.92Z" fill="#474747"/>
<path d="M123.52 89.92H116.8V96.64H123.52V89.92Z" fill="#474747"/>
<path d="M157.12 89.92H150.4V96.64H157.12V89.92Z" fill="#474747"/>
<path d="M170.56 89.92H163.84V96.64H170.56V89.92Z" fill="#474747"/>
<path d="M177.28 89.92H170.56V96.64H177.28V89.92Z" fill="#474747"/>
<path d="M22.72 96.64H16V103.36H22.72V96.64Z" fill="#474747"/>
<path d="M42.88 96.64H36.16V103.36H42.88V96.64Z" fill="#474747"/>
<path d="M49.6 96.64H42.88V103.36H49.6V96.64Z" fill="#474747"/>
<path d="M56.32 96.64H49.6V103.36H56.32V96.64Z" fill="#474747"/>
<path d="M63.04 96.64H56.32V103.36H63.04V96.64Z" fill="#474747"/>
<path d="M69.76 96.64H63.04V103.36H69.76V96.64Z" fill="#474747"/>
<path d="M76.48 96.64H69.76V103.36H76.48V96.64Z" fill="#474747"/>
<path d="M89.92 96.64H83.2V103.36H89.92V96.64Z" fill="#474747"/>
<path d="M96.64 96.64H89.92V103.36H96.64V96.64Z" fill="#474747"/>
<path d="M110.08 96.64H103.36V103.36H110.08V96.64Z" fill="#474747"/>
<path d="M116.8 96.64H110.08V103.36H116.8V96.64Z" fill="#474747"/>
<path d="M130.24 96.64H123.52V103.36H130.24V96.64Z" fill="#474747"/>
<path d="M150.4 96.64H143.68V103.36H150.4V96.64Z" fill="#474747"/>
<path d="M163.84 96.64H157.12V103.36H163.84V96.64Z" fill="#474747"/>
<path d="M170.56 96.64H163.84V103.36H170.56V96.64Z" fill="#474747"/>
<path d="M184 96.64H177.28V103.36H184V96.64Z" fill="#474747"/>
<path d="M22.72 103.36H16V110.08H22.72V103.36Z" fill="#474747"/>
<path d="M29.44 103.36H22.72V110.08H29.44V103.36Z" fill="#474747"/>
<path d="M69.76 103.36H63.04V110.08H69.76V103.36Z" fill="#474747"/>
<path d="M76.48 103.36H69.76V110.08H76.48V103.36Z" fill="#474747"/>
<path d="M83.2 103.36H76.48V110.08H83.2V103.36Z" fill="#474747"/>
<path d="M103.36 103.36H96.64V110.08H103.36V103.36Z" fill="#474747"/>
<path d="M116.8 103.36H110.08V110.08H116.8V103.36Z" fill="#474747"/>
<path d="M123.52 103.36H116.8V110.08H123.52V103.36Z" fill="#474747"/>
<path d="M130.24 103.36H123.52V110.08H130.24V103.36Z" fill="#474747"/>
<path d="M136.96 103.36H130.24V110.08H136.96V103.36Z" fill="#474747"/>
<path d="M157.12 103.36H150.4V110.08H157.12V103.36Z" fill="#474747"/>
<path d="M170.56 103.36H163.84V110.08H170.56V103.36Z" fill="#474747"/>
<path d="M177.28 103.36H170.56V110.08H177.28V103.36Z" fill="#474747"/>
<path d="M184 103.36H177.28V110.08H184V103.36Z" fill="#474747"/>
<path d="M22.72 110.08H16V116.8H22.72V110.08Z" fill="#474747"/>
<path d="M29.44 110.08H22.72V116.8H29.44V110.08Z" fill="#474747"/>
<path d="M36.16 110.08H29.44V116.8H36.16V110.08Z" fill="#474747"/>
<path d="M63.04 110.08H56.32V116.8H63.04V110.08Z" fill="#474747"/>
<path d="M83.2 110.08H76.48V116.8H83.2V110.08Z" fill="#474747"/>
<path d="M96.64 110.08H89.92V116.8H96.64V110.08Z" fill="#474747"/>
<path d="M103.36 110.08H96.64V116.8H103.36V110.08Z" fill="#474747"/>
<path d="M116.8 110.08H110.08V116.8H116.8V110.08Z" fill="#474747"/>
<path d="M136.96 110.08H130.24V116.8H136.96V110.08Z" fill="#474747"/>
<path d="M150.4 110.08H143.68V116.8H150.4V110.08Z" fill="#474747"/>
<path d="M157.12 110.08H150.4V116.8H157.12V110.08Z" fill="#474747"/>
<path d="M170.56 110.08H163.84V116.8H170.56V110.08Z" fill="#474747"/>
<path d="M29.44 116.8H22.72V123.52H29.44V116.8Z" fill="#474747"/>
<path d="M69.76 116.8L63.04 116.8V123.52H69.76V116.8Z" fill="#474747"/>
<path d="M103.36 116.8H96.64V123.52H103.36V116.8Z" fill="#474747"/>
<path d="M116.8 116.8H110.08V123.52H116.8V116.8Z" fill="#474747"/>
<path d="M123.52 116.8L116.8 116.8V123.52H123.52V116.8Z" fill="#474747"/>
<path d="M143.68 116.8H136.96V123.52H143.68V116.8Z" fill="#474747"/>
<path d="M157.12 116.8H150.4V123.52H157.12V116.8Z" fill="#474747"/>
<path d="M177.28 116.8L170.56 116.8V123.52H177.28V116.8Z" fill="#474747"/>
<path d="M22.72 123.52H16V130.24H22.72V123.52Z" fill="#474747"/>
<path d="M56.32 123.52H49.6V130.24H56.32V123.52Z" fill="#474747"/>
<path d="M63.04 123.52H56.32V130.24H63.04V123.52Z" fill="#474747"/>
<path d="M69.76 123.52H63.04V130.24H69.76V123.52Z" fill="#474747"/>
<path d="M83.2 123.52H76.48V130.24H83.2V123.52Z" fill="#474747"/>
<path d="M89.92 123.52H83.2V130.24H89.92V123.52Z" fill="#474747"/>
<path d="M103.36 123.52H96.64V130.24H103.36V123.52Z" fill="#474747"/>
<path d="M123.52 123.52H116.8L116.8 130.24H123.52V123.52Z" fill="#474747"/>
<path d="M130.24 123.52H123.52V130.24H130.24V123.52Z" fill="#474747"/>
<path d="M136.96 123.52H130.24V130.24H136.96V123.52Z" fill="#474747"/>
<path d="M143.68 123.52H136.96V130.24H143.68V123.52Z" fill="#474747"/>
<path d="M150.4 123.52H143.68V130.24H150.4V123.52Z" fill="#474747"/>
<path d="M157.12 123.52H150.4V130.24H157.12V123.52Z" fill="#474747"/>
<path d="M163.84 123.52H157.12V130.24H163.84V123.52Z" fill="#474747"/>
<path d="M177.28 123.52H170.56V130.24H177.28V123.52Z" fill="#474747"/>
<path d="M76.48 130.24H69.76V136.96H76.48V130.24Z" fill="#474747"/>
<path d="M89.92 130.24H83.2V136.96H89.92V130.24Z" fill="#474747"/>
<path d="M103.36 130.24H96.64V136.96H103.36V130.24Z" fill="#474747"/>
<path d="M123.52 130.24H116.8V136.96H123.52V130.24Z" fill="#474747"/>
<path d="M130.24 130.24H123.52V136.96H130.24V130.24Z" fill="#474747"/>
<path d="M157.12 130.24H150.4V136.96H157.12V130.24Z" fill="#474747"/>
<path d="M163.84 130.24H157.12V136.96H163.84V130.24Z" fill="#474747"/>
<path d="M170.56 130.24H163.84V136.96H170.56V130.24Z" fill="#474747"/>
<path d="M22.72 136.96H16V143.68H22.72V136.96Z" fill="#474747"/>
<path d="M29.44 136.96H22.72V143.68H29.44V136.96Z" fill="#474747"/>
<path d="M36.16 136.96H29.44V143.68H36.16V136.96Z" fill="#474747"/>
<path d="M42.88 136.96H36.16V143.68H42.88V136.96Z" fill="#474747"/>
<path d="M49.6 136.96H42.88V143.68H49.6V136.96Z" fill="#474747"/>
<path d="M56.32 136.96H49.6V143.68H56.32V136.96Z" fill="#474747"/>
<path d="M63.04 136.96H56.32V143.68H63.04V136.96Z" fill="#474747"/>
<path d="M76.48 136.96H69.76V143.68H76.48V136.96Z" fill="#474747"/>
<path d="M103.36 136.96H96.64V143.68H103.36V136.96Z" fill="#474747"/>
<path d="M123.52 136.96H116.8V143.68H123.52V136.96Z" fill="#474747"/>
<path d="M130.24 136.96H123.52V143.68H130.24V136.96Z" fill="#474747"/>
<path d="M143.68 136.96H136.96V143.68H143.68V136.96Z" fill="#474747"/>
<path d="M157.12 136.96H150.4V143.68H157.12V136.96Z" fill="#474747"/>
<path d="M163.84 136.96H157.12V143.68H163.84V136.96Z" fill="#474747"/>
<path d="M170.56 136.96H163.84V143.68H170.56V136.96Z" fill="#474747"/>
<path d="M184 136.96H177.28V143.68H184V136.96Z" fill="#474747"/>
<path d="M22.72 143.68H16V150.4H22.72V143.68Z" fill="#474747"/>
<path d="M63.04 143.68H56.32L56.32 150.4H63.04V143.68Z" fill="#474747"/>
<path d="M76.48 143.68H69.76V150.4H76.48V143.68Z" fill="#474747"/>
<path d="M89.92 143.68H83.2V150.4H89.92V143.68Z" fill="#474747"/>
<path d="M116.8 143.68H110.08V150.4H116.8L116.8 143.68Z" fill="#474747"/>
<path d="M130.24 143.68H123.52V150.4H130.24V143.68Z" fill="#474747"/>
<path d="M157.12 143.68H150.4V150.4H157.12V143.68Z" fill="#474747"/>
<path d="M170.56 143.68H163.84V150.4H170.56V143.68Z" fill="#474747"/>
<path d="M22.72 150.4H16V157.12H22.72V150.4Z" fill="#474747"/>
<path d="M36.16 150.4H29.44V157.12H36.16V150.4Z" fill="#474747"/>
<path d="M42.88 150.4H36.16V157.12H42.88V150.4Z" fill="#474747"/>
<path d="M49.6 150.4H42.88V157.12H49.6V150.4Z" fill="#474747"/>
<path d="M63.04 150.4H56.32V157.12H63.04V150.4Z" fill="#474747"/>
<path d="M76.48 150.4H69.76V157.12H76.48V150.4Z" fill="#474747"/>
<path d="M83.2 150.4H76.48V157.12H83.2V150.4Z" fill="#474747"/>
<path d="M89.92 150.4H83.2V157.12H89.92V150.4Z" fill="#474747"/>
<path d="M110.08 150.4H103.36V157.12H110.08V150.4Z" fill="#474747"/>
<path d="M116.8 150.4H110.08V157.12H116.8V150.4Z" fill="#474747"/>
<path d="M130.24 150.4H123.52V157.12H130.24V150.4Z" fill="#474747"/>
<path d="M136.96 150.4H130.24V157.12H136.96V150.4Z" fill="#474747"/>
<path d="M143.68 150.4H136.96V157.12H143.68V150.4Z" fill="#474747"/>
<path d="M150.4 150.4H143.68V157.12H150.4V150.4Z" fill="#474747"/>
<path d="M157.12 150.4H150.4V157.12H157.12V150.4Z" fill="#474747"/>
<path d="M184 150.4H177.28V157.12H184V150.4Z" fill="#474747"/>
<path d="M22.72 157.12H16V163.84H22.72V157.12Z" fill="#474747"/>
<path d="M36.16 157.12H29.44V163.84H36.16V157.12Z" fill="#474747"/>
<path d="M42.88 157.12H36.16V163.84H42.88V157.12Z" fill="#474747"/>
<path d="M49.6 157.12H42.88V163.84H49.6V157.12Z" fill="#474747"/>
<path d="M63.04 157.12H56.32V163.84H63.04V157.12Z" fill="#474747"/>
<path d="M76.48 157.12H69.76V163.84H76.48V157.12Z" fill="#474747"/>
<path d="M103.36 157.12H96.64V163.84H103.36V157.12Z" fill="#474747"/>
<path d="M130.24 157.12H123.52V163.84H130.24V157.12Z" fill="#474747"/>
<path d="M136.96 157.12H130.24V163.84H136.96V157.12Z" fill="#474747"/>
<path d="M163.84 157.12H157.12V163.84H163.84V157.12Z" fill="#474747"/>
<path d="M22.72 163.84H16V170.56H22.72V163.84Z" fill="#474747"/>
<path d="M36.16 163.84H29.44V170.56H36.16V163.84Z" fill="#474747"/>
<path d="M42.88 163.84H36.16V170.56H42.88V163.84Z" fill="#474747"/>
<path d="M49.6 163.84H42.88V170.56H49.6V163.84Z" fill="#474747"/>
<path d="M63.04 163.84H56.32V170.56H63.04V163.84Z" fill="#474747"/>
<path d="M96.64 163.84H89.92V170.56H96.64V163.84Z" fill="#474747"/>
<path d="M103.36 163.84H96.64V170.56H103.36V163.84Z" fill="#474747"/>
<path d="M116.8 163.84H110.08V170.56H116.8V163.84Z" fill="#474747"/>
<path d="M123.52 163.84H116.8V170.56H123.52V163.84Z" fill="#474747"/>
<path d="M130.24 163.84H123.52V170.56H130.24V163.84Z" fill="#474747"/>
<path d="M150.4 163.84H143.68V170.56H150.4V163.84Z" fill="#474747"/>
<path d="M157.12 163.84H150.4V170.56H157.12V163.84Z" fill="#474747"/>
<path d="M170.56 163.84H163.84V170.56H170.56V163.84Z" fill="#474747"/>
<path d="M177.28 163.84H170.56V170.56H177.28V163.84Z" fill="#474747"/>
<path d="M184 163.84H177.28V170.56H184V163.84Z" fill="#474747"/>
<path d="M22.72 170.56H16V177.28H22.72V170.56Z" fill="#474747"/>
<path d="M63.04 170.56H56.32V177.28H63.04V170.56Z" fill="#474747"/>
<path d="M83.2 170.56H76.48V177.28H83.2V170.56Z" fill="#474747"/>
<path d="M89.92 170.56H83.2V177.28H89.92V170.56Z" fill="#474747"/>
<path d="M96.64 170.56H89.92V177.28H96.64V170.56Z" fill="#474747"/>
<path d="M110.08 170.56H103.36V177.28H110.08V170.56Z" fill="#474747"/>
<path d="M116.8 170.56H110.08V177.28H116.8V170.56Z" fill="#474747"/>
<path d="M136.96 170.56H130.24V177.28H136.96V170.56Z" fill="#474747"/>
<path d="M143.68 170.56H136.96V177.28H143.68V170.56Z" fill="#474747"/>
<path d="M150.4 170.56H143.68V177.28H150.4V170.56Z" fill="#474747"/>
<path d="M157.12 170.56H150.4V177.28H157.12V170.56Z" fill="#474747"/>
<path d="M170.56 170.56H163.84V177.28H170.56V170.56Z" fill="#474747"/>
<path d="M177.28 170.56H170.56V177.28H177.28V170.56Z" fill="#474747"/>
<path d="M184 170.56H177.28V177.28H184V170.56Z" fill="#474747"/>
<path d="M22.72 177.28H16V184H22.72V177.28Z" fill="#474747"/>
<path d="M29.44 177.28H22.72V184H29.44V177.28Z" fill="#474747"/>
<path d="M36.16 177.28H29.44V184H36.16V177.28Z" fill="#474747"/>
<path d="M42.88 177.28H36.16V184H42.88V177.28Z" fill="#474747"/>
<path d="M49.6 177.28H42.88V184H49.6V177.28Z" fill="#474747"/>
<path d="M56.32 177.28H49.6V184H56.32L56.32 177.28Z" fill="#474747"/>
<path d="M63.04 177.28H56.32L56.32 184H63.04V177.28Z" fill="#474747"/>
<path d="M76.48 177.28H69.76V184H76.48V177.28Z" fill="#474747"/>
<path d="M96.64 177.28H89.92V184H96.64V177.28Z" fill="#474747"/>
<path d="M103.36 177.28H96.64V184H103.36V177.28Z" fill="#474747"/>
<path d="M130.24 177.28H123.52V184H130.24V177.28Z" fill="#474747"/>
<path d="M163.84 177.28H157.12V184H163.84V177.28Z" fill="#474747"/>
<path d="M184 177.28H177.28V184H184V177.28Z" fill="#474747"/>
</svg>
