<svg width="14" height="14" viewBox="0 0 14 14" fill="none" xmlns="http://www.w3.org/2000/svg">
<path d="M12.6875 12.0689L9.38352 8.7649C10.1775 7.81172 10.5734 6.58914 10.4889 5.35148C10.4045 4.11382 9.84607 2.95638 8.92994 2.11993C8.01381 1.28349 6.81047 0.83244 5.57025 0.86062C4.33003 0.8888 3.14842 1.39404 2.27123 2.27123C1.39404 3.14842 0.8888 4.33003 0.86062 5.57025C0.83244 6.81047 1.28349 8.01381 2.11993 8.92994C2.95638 9.84607 4.11382 10.4045 5.35148 10.4889C6.58914 10.5734 7.81172 10.1775 8.7649 9.38352L12.0689 12.6875L12.6875 12.0689ZM1.75002 5.68752C1.75002 4.90876 1.98095 4.14748 2.41361 3.49996C2.84627 2.85244 3.46122 2.34776 4.1807 2.04974C4.90019 1.75172 5.69189 1.67375 6.45569 1.82568C7.21949 1.97761 7.92108 2.35262 8.47175 2.90329C9.02242 3.45396 9.39743 4.15555 9.54936 4.91935C9.70129 5.68315 9.62332 6.47485 9.3253 7.19434C9.02728 7.91382 8.5226 8.52877 7.87508 8.96143C7.22756 9.39409 6.46628 9.62502 5.68752 9.62502C4.64359 9.62386 3.64274 9.20865 2.90457 8.47047C2.16639 7.7323 1.75118 6.73145 1.75002 5.68752Z" fill="#5E81F4"/>
</svg>
