<?xml version="1.0" encoding="utf-8"?><svg xmlns="http://www.w3.org/2000/svg" xmlns:xlink="http://www.w3.org/1999/xlink"><symbol viewBox="0 0 24 24" id="add" xmlns="http://www.w3.org/2000/svg"><path d="M19 13h-6v6h-2v-6H5v-2h6V5h2v6h6v2z"/></symbol><symbol viewBox="0 0 16 16" id="alarm" xmlns="http://www.w3.org/2000/svg"><path d="M8 14.666a6 6 0 110-12 6 6 0 010 12zm.667-6V5.333H7.333V10h3.334V8.666h-2zM1.165 4.188L3.52 1.83l.944.943L2.107 5.13l-.942-.943zM12.478 1.83l2.357 2.357-.942.943-2.358-2.357.944-.943h-.001z"/></symbol><symbol viewBox="0 0 6 17" id="alt" xmlns="http://www.w3.org/2000/svg"><g clip-path="url(#acclip0)"><path d="M2.5 6.065v7.292h1V6.065H5L3 3.643 1 6.065h1.5z"/></g><defs><clipPath id="acclip0"><path transform="rotate(-90 8.5 8.5)" d="M0 0h17v6H0z"/></clipPath></defs></symbol><symbol viewBox="0 0 16 14" id="arrowBack" xmlns="http://www.w3.org/2000/svg"><path d="M16 6.092H3.326l4.6-4.808L6.695 0 0 7l6.697 7 1.228-1.284-4.599-4.808H16V6.092z"/></symbol><symbol viewBox="0 0 25 24" id="briefcase" xmlns="http://www.w3.org/2000/svg"><path d="M19.703 7.128h-3.877V5.449c0-.799-.605-1.449-1.349-1.449H10.52c-.744 0-1.35.65-1.35 1.45v1.678H5.295c-.988 0-1.791.863-1.791 1.925 0 .963-.092 1.83.588 2.803.384.55.913.943 1.528 1.136l5.975 1.87a3.015 3.015 0 001.809 0l5.975-1.87a2.923 2.923 0 001.528-1.136c.683-.978.588-1.853.588-2.803 0-1.062-.803-1.925-1.79-1.925zm-9.39-1.679c0-.122.093-.221.207-.221h3.957c.114 0 .207.1.207.221v1.679h-4.37V5.449z"/><path d="M19.7 14.044c-6.447 1.806-6.364 1.843-7.201 1.843-.832 0-.635-.003-7.202-1.843A4.08 4.08 0 013.499 13v5.276c0 .95.803 1.724 1.792 1.724h14.416c.988 0 1.792-.773 1.792-1.724V13a4.082 4.082 0 01-1.798 1.044z"/></symbol><symbol viewBox="0 0 20 20" id="carbon" xmlns="http://www.w3.org/2000/svg"><path d="M10 12.5a2.5 2.5 0 100-5 2.5 2.5 0 000 5z"/><path d="M19.337 9.787A10.431 10.431 0 0010 3.125 10.431 10.431 0 00.662 9.787a.625.625 0 000 .425A10.43 10.43 0 0010 16.876a10.431 10.431 0 009.337-6.662.624.624 0 000-.425zM10 14.063A4.063 4.063 0 1114.062 10 4.069 4.069 0 0110 14.063z"/></symbol><symbol viewBox="0 0 20 20" id="card" xmlns="http://www.w3.org/2000/svg"><path d="M1 5.333c0-.619.237-1.212.659-1.65A2.21 2.21 0 013.25 3h13.5a2.21 2.21 0 011.591.683c.422.438.659 1.031.659 1.65v9.334c0 .619-.237 1.212-.659 1.65A2.21 2.21 0 0116.75 17H3.25a2.21 2.21 0 01-1.591-.683A2.378 2.378 0 011 14.667V5.333zm2.25-1.166a1.11 1.11 0 00-.796.341c-.21.22-.329.516-.329.825V6.5h15.75V5.333c0-.31-.119-.606-.33-.825a1.105 1.105 0 00-.795-.341H3.25zm14.625 4.666H2.125v5.834c0 .31.119.606.33.825.21.218.497.341.795.341h13.5c.298 0 .584-.123.796-.341.21-.22.329-.516.329-.825V8.833z"/><path d="M3.25 12.335c0-.31.119-.607.33-.825.21-.22.497-.342.795-.342H5.5c.298 0 .585.123.795.342.211.219.33.515.33.825V13.5c0 .31-.119.607-.33.825a1.105 1.105 0 01-.795.342H4.375c-.298 0-.585-.123-.796-.342a1.19 1.19 0 01-.329-.825v-1.166z"/></symbol><symbol viewBox="0 0 16 16" id="charge" xmlns="http://www.w3.org/2000/svg"><g clip-path="url(#ahclip0)"><path d="M11.251.068a.5.5 0 01.227.58L9.678 6.5H13a.5.5 0 01.364.843l-8 8.5a.5.5 0 01-.842-.49L6.323 9.5H3a.5.5 0 01-.364-.843l8-8.5a.5.5 0 01.615-.09v.001z"/></g><defs><clipPath id="ahclip0"><path d="M0 0h16v16H0z"/></clipPath></defs></symbol><symbol viewBox="0 0 30 30" id="check" xmlns="http://www.w3.org/2000/svg"><path d="M24.415 6.565a1.41 1.41 0 00-1.054-.305 1.4 1.4 0 00-.953.553L12.444 19.93 7.56 13.838a1.403 1.403 0 00-1.525-.527 1.411 1.411 0 00-.503.265 1.483 1.483 0 00-.192 2.084l5.936 7.55c.134.168.303.305.495.398.192.093.402.141.615.14a1.402 1.402 0 001.181-.553L24.714 8.62a1.471 1.471 0 00.27-1.092 1.482 1.482 0 00-.19-.54 1.444 1.444 0 00-.38-.423z"/></symbol><symbol viewBox="0 0 12 9" id="checked" xmlns="http://www.w3.org/2000/svg"><path fill-rule="evenodd" clip-rule="evenodd" d="M11 0c-.28 0-.53.11-.71.29L4 6.59l-2.29-2.3A1.003 1.003 0 00.29 5.71l3 3c.18.18.43.29.71.29.28 0 .53-.11.71-.29l7-7A1.003 1.003 0 0011 0z"/></symbol><symbol viewBox="0 0 20 20" id="chevron" xmlns="http://www.w3.org/2000/svg"><path d="M14.59 6L10 10.59 5.41 6 4 7.42l6 6 6-6L14.59 6z"/></symbol><symbol viewBox="0 0 24 24" id="close" xmlns="http://www.w3.org/2000/svg"><path d="M18 6L6 18M6 6l12 12" stroke-linecap="round" stroke-linejoin="round"/></symbol><symbol viewBox="0 0 25 24" id="dashboard" xmlns="http://www.w3.org/2000/svg"><path d="M4.997 13h6a1 1 0 001-1V4a1 1 0 00-1-1h-6a1 1 0 00-1 1v8a1 1 0 001 1zm-1 7a1 1 0 001 1h6a1 1 0 001-1v-4a1 1 0 00-1-1h-6a1 1 0 00-1 1v4zm10 0a1 1 0 001 1h6a1 1 0 001-1v-7a1 1 0 00-1-1h-6a1 1 0 00-1 1v7zm1-10h6a1 1 0 001-1V4a1 1 0 00-1-1h-6a1 1 0 00-1 1v5a1 1 0 001 1z"/></symbol><symbol viewBox="0 0 27 27" id="default" xmlns="http://www.w3.org/2000/svg"><path d="M9.269 12.65a.624.624 0 00.881.081l2.725-2.268v7.412a.625.625 0 101.25 0v-7.412l2.725 2.268a.627.627 0 00.8-.962L13.9 8.644l-.094-.056-.081-.044a.625.625 0 00-.45 0l-.081.043-.094.057-3.75 3.125a.626.626 0 00-.081.881z"/></symbol><symbol viewBox="0 0 16 16" id="downward" xmlns="http://www.w3.org/2000/svg"><path d="M8.907 3.487a.667.667 0 00-.087.94l2.42 2.907H3.333a.667.667 0 000 1.333h7.907l-2.42 2.907a.668.668 0 101.027.853l3.333-4 .06-.1.047-.087a.667.667 0 000-.48l-.047-.086-.06-.1-3.333-4a.667.667 0 00-.94-.087z"/></symbol><symbol viewBox="0 0 24 17" id="eye" xmlns="http://www.w3.org/2000/svg"><path d="M18.79 13.412l-1.614-1.615a3.5 3.5 0 01-4.474-4.474l-2.06-2.06C8.938 6.778 8 8.5 8 8.5s3 5.5 8 5.5a7.03 7.03 0 002.79-.588zm-5.58-9.824A7.028 7.028 0 0116 3c5 0 8 5.5 8 5.5s-.939 1.721-2.641 3.238l-2.062-2.062a3.5 3.5 0 00-4.474-4.474L13.21 3.589v-.001z"/><path d="M13.525 8.146a2.499 2.499 0 002.829 2.829l-2.83-2.829h.001zm4.95.708l-2.829-2.83a2.5 2.5 0 012.829 2.829v.001zm3.171 6l-12-12 .708-.708 12 12-.708.708z"/></symbol><symbol viewBox="0 0 18 18" id="filter" xmlns="http://www.w3.org/2000/svg"><path d="M8.707 14H7.684V8.955L4 4.788V4h10v.784L10.491 8.95v3.355L8.707 14zm-.321-.667h.03L9.79 12.03V8.716l3.41-4.05H4.81l3.577 4.046v4.621z"/></symbol><symbol viewBox="0 0 16 16" id="increase" xmlns="http://www.w3.org/2000/svg"><path d="M1.989 13L0 11.083 6.031 5.27l2.813 2.71 3.248-3.13-.952-.916L16 3l-.969 4.684-.95-.917-5.237 5.047-2.813-2.71L1.99 13z"/></symbol><symbol viewBox="0 0 12 12" id="info" xmlns="http://www.w3.org/2000/svg"><path fill-rule="evenodd" clip-rule="evenodd" d="M0 6c0-3.3 2.7-6 6-6s6 2.7 6 6-2.7 6-6 6-6-2.7-6-6zm1.5 0c0 2.475 2.025 4.5 4.5 4.5s4.5-2.025 4.5-4.5S8.475 1.5 6 1.5A4.513 4.513 0 001.5 6z"/><path d="M5.25 5.25h1.5V9h-1.5z"/><circle cx="6" cy="3.75" r=".75"/></symbol><symbol viewBox="0 0 38 38" id="key" xmlns="http://www.w3.org/2000/svg"><path d="M26.918 13.72a2.64 2.64 0 100-5.278 2.64 2.64 0 000 5.278zm-9.236 15.835v-1.32h2.639a1.32 1.32 0 001.32-1.32v-2.638h2.638a10.556 10.556 0 10-10.129-7.574L3.937 26.916a2.639 2.639 0 00-.77 1.866v3.412a2.639 2.639 0 002.639 2.64h5.278a2.64 2.64 0 002.639-2.64v-1.32h2.639a1.32 1.32 0 001.32-1.319zm-1.32-15.835a7.917 7.917 0 117.917 7.918h-3.958a1.32 1.32 0 00-1.32 1.32v2.638h-2.639a1.32 1.32 0 00-1.32 1.32v1.32h-2.639a1.32 1.32 0 00-1.32 1.319v2.64H5.807v-3.413l10.79-10.791a1.32 1.32 0 00.3-1.41 7.896 7.896 0 01-.534-2.86z"/></symbol><symbol viewBox="0 0 15 18" id="lock" xmlns="http://www.w3.org/2000/svg"><path d="M12.5 6h1.667c.22 0 .433.09.589.251a.87.87 0 01.244.606v10.286a.87.87 0 01-.244.606.822.822 0 01-.59.251H.834a.822.822 0 01-.589-.251.87.87 0 01-.244-.606V6.857a.87.87 0 01.244-.606A.822.822 0 01.834 6H2.5v-.857c0-1.364.527-2.672 1.464-3.637A4.93 4.93 0 017.5 0a4.93 4.93 0 013.536 1.506A5.218 5.218 0 0112.5 5.143V6zm-5.833 6.627v1.944h1.666v-1.944a1.7 1.7 0 00.707-.828 1.76 1.76 0 00.07-1.1 1.718 1.718 0 00-.595-.916A1.637 1.637 0 007.5 9.429c-.367 0-.724.124-1.015.354-.29.23-.5.552-.595.916a1.76 1.76 0 00.07 1.1c.14.349.389.64.707.828zM10.833 6v-.857c0-.91-.35-1.782-.976-2.425A3.287 3.287 0 007.5 1.714a3.29 3.29 0 00-2.357 1.004 3.479 3.479 0 00-.976 2.425V6h6.666z"/></symbol><symbol viewBox="0 0 20 20" id="logout" xmlns="http://www.w3.org/2000/svg"><path d="M8.371 11.133H19V9.867H8.371l2.905-2.971L10.4 6 6 10.5l4.4 4.5.876-.896-2.905-2.97z"/><path d="M12.4 19a.6.6 0 100-1.2H3.143a1 1 0 01-1-1V3.2a1 1 0 011-1H12.4a.6.6 0 100-1.2H2a1 1 0 00-1 1v16a1 1 0 001 1h10.4z"/></symbol><symbol viewBox="0 0 20 20" id="notice" xmlns="http://www.w3.org/2000/svg"><path fill-rule="evenodd" clip-rule="evenodd" d="M10 0a7.3 7.3 0 017.296 7.06l.004.241v4.5a1.7 1.7 0 001.553 1.695l.28.013c1.111.12 1.154 1.731.128 1.965l-.128.021-.133.007H1l-.133-.007c-1.156-.124-1.156-1.862 0-1.986l.28-.013a1.7 1.7 0 001.547-1.547l.006-.147v-4.5A7.3 7.3 0 0110 0zm1.557 17.103a1 1 0 01.865 1.502 2.8 2.8 0 01-4.844 0 1 1 0 01.752-1.496l.113-.006h3.114zM4.704 7.083A5.3 5.3 0 0115.3 7.3v4.5l.005.197.023.258c.052.426.176.829.36 1.197l.026.049H4.285l.027-.049.1-.217a3.69 3.69 0 00.288-1.434v-4.5l.004-.22z"/></symbol><symbol viewBox="0 0 18 18" id="profit" xmlns="http://www.w3.org/2000/svg"><path d="M17.469 3H13.46a.545.545 0 00-.456.235.516.516 0 00.068.656l.831.818-2.556 2.513-2.703-2.659a.537.537 0 00-.751 0L2 10.359V15l6.268-6.165 2.704 2.66a.54.54 0 00.75 0l4.54-4.466.832.818A.532.532 0 0018 7.465V3.522A.527.527 0 0017.469 3z"/><path d="M17.473 16.945H1.055V.527A.527.527 0 000 .527v16.946c0 .29.236.527.527.527h16.946a.527.527 0 000-1.055z"/></symbol><symbol viewBox="0 0 200 200" id="qrCode" xmlns="http://www.w3.org/2000/svg"><path d="M22.72 16H16v6.72h6.72V16zm6.72 0h-6.72v6.72h6.72V16zM36.16 16h-6.72v6.72h6.72V16zm6.72 0h-6.72v6.72h6.72V16zm6.72 0h-6.72v6.72h6.72V16zm6.72 0H49.6v6.72h6.72V16zm6.72 0h-6.72v6.72h6.72V16zm13.44 0h-6.72v6.72h6.72V16zm6.72 0h-6.72v6.72h6.72V16zm26.88 0h-6.72v6.72h6.72V16zm20.16 0h-6.72v6.72h6.72V16zm13.44 0h-6.72v6.72h6.72V16zm6.72 0h-6.72v6.72h6.72V16zm6.72 0h-6.72v6.72h6.72V16zm6.72 0h-6.72v6.72h6.72V16zm6.72 0h-6.72v6.72h6.72V16zm6.72 0h-6.72v6.72h6.72V16zm6.72 0h-6.72v6.72H184V16zM22.72 22.72H16v6.72h6.72v-6.72zm40.32 0h-6.72v6.72h6.72v-6.72zm40.32 0h-6.72v6.72h6.72v-6.72zm6.72 0h-6.72v6.72h6.72v-6.72zm20.16 0h-6.72v6.72h6.72v-6.72zm13.44 0h-6.72v6.72h6.72v-6.72zm40.32 0h-6.72v6.72H184v-6.72zM22.72 29.44H16v6.72h6.72v-6.72zm13.44 0h-6.72v6.72h6.72v-6.72zm6.72 0h-6.72v6.72h6.72v-6.72zm6.72 0h-6.72v6.72h6.72v-6.72zm13.44 0h-6.72v6.72h6.72v-6.72zm20.16 0h-6.72v6.72h6.72v-6.72zm6.72 0H83.2v6.72h6.72v-6.72zm6.72 0h-6.72v6.72h6.72v-6.72zm6.72 0h-6.72v6.72h6.72v-6.72zm6.72 0h-6.72v6.72h6.72v-6.72zm20.16 0h-6.72v6.72h6.72v-6.72zm13.44 0h-6.72v6.72h6.72v-6.72zm13.44 0h-6.72v6.72h6.72v-6.72zm6.72 0h-6.72v6.72h6.72v-6.72zm6.72 0h-6.72v6.72h6.72v-6.72zm13.44 0h-6.72v6.72H184v-6.72z"/><path d="M22.72 36.16H16v6.72h6.72v-6.72zm13.44 0h-6.72v6.72h6.72v-6.72zm6.72 0h-6.72v6.72h6.72v-6.72zm6.72 0h-6.72v6.72h6.72v-6.72zm13.44 0h-6.72v6.72h6.72v-6.72zm20.16 0h-6.72v6.72h6.72v-6.72zm6.72 0H83.2v6.72h6.72v-6.72zm20.16 0h-6.72v6.72h6.72v-6.72zm33.6 0h-6.72v6.72h6.72v-6.72zm13.44 0h-6.72v6.72h6.72v-6.72zm6.72 0h-6.72v6.72h6.72v-6.72zm6.72 0h-6.72v6.72h6.72v-6.72zm13.44 0h-6.72v6.72H184v-6.72zM22.72 42.88H16v6.72h6.72v-6.72zm13.44 0h-6.72v6.72h6.72v-6.72zm6.72 0h-6.72v6.72h6.72v-6.72zm6.72 0h-6.72v6.72h6.72v-6.72zm13.44 0h-6.72v6.72h6.72v-6.72zm13.44 0h-6.72v6.72h6.72v-6.72zm13.44 0H83.2v6.72h6.72v-6.72zm6.72 0h-6.72v6.72h6.72v-6.72zm6.72 0h-6.72v6.72h6.72v-6.72zm13.44 0h-6.72v6.72h6.72v-6.72zm26.88 0h-6.72v6.72h6.72v-6.72zm13.44 0h-6.72v6.72h6.72v-6.72zm6.72 0h-6.72v6.72h6.72v-6.72zm6.72 0h-6.72v6.72h6.72v-6.72zm13.44 0h-6.72v6.72H184v-6.72zM22.72 49.6H16v6.72h6.72V49.6zm40.32 0h-6.72v6.72h6.72V49.6zm53.76 0h-6.72v6.72h6.72V49.6zm26.88 0h-6.72v6.72h6.72V49.6zm40.32 0h-6.72v6.72H184V49.6zM22.72 56.32H16v6.72h6.72v-6.72zm6.72 0h-6.72v6.72h6.72v-6.72zM36.16 56.32h-6.72v6.72h6.72v-6.72zm6.72 0h-6.72v6.72h6.72v-6.72zm6.72 0h-6.72v6.72h6.72v-6.72zm6.72 0H49.6v6.72h6.72v-6.72zm6.72 0h-6.72v6.72h6.72v-6.72zm13.44 0h-6.72v6.72h6.72v-6.72zm13.44 0H83.2v6.72h6.72v-6.72zm13.44 0h-6.72v6.72h6.72v-6.72zm13.44 0h-6.72v6.72h6.72v-6.72zm13.44 0h-6.72v6.72h6.72v-6.72zm13.44 0h-6.72v6.72h6.72v-6.72zm6.72 0h-6.72v6.72h6.72v-6.72zm6.72 0h-6.72v6.72h6.72v-6.72zm6.72 0h-6.72v6.72h6.72v-6.72zm6.72 0h-6.72v6.72h6.72v-6.72zm6.72 0h-6.72v6.72h6.72v-6.72zm6.72 0h-6.72v6.72H184v-6.72zM76.48 63.04h-6.72v6.72h6.72v-6.72zm13.44 0H83.2v6.72h6.72v-6.72zm13.44 0h-6.72v6.72h6.72v-6.72zm6.72 0h-6.72v6.72h6.72v-6.72zm13.44 0h-6.72v6.72h6.72v-6.72zm6.72 0h-6.72v6.72h6.72v-6.72zM22.72 69.76H16v6.72h6.72v-6.72zm20.16 0h-6.72v6.72h6.72v-6.72zm6.72 0h-6.72v6.72h6.72v-6.72zm6.72 0H49.6v6.72h6.72v-6.72zm6.72 0h-6.72v6.72h6.72v-6.72zm6.72 0h-6.72v6.72h6.72v-6.72zm6.72 0h-6.72v6.72h6.72v-6.72zm6.72 0h-6.72v6.72h6.72v-6.72zm26.88 0h-6.72v6.72h6.72v-6.72zm20.16 0h-6.72v6.72h6.72v-6.72zm6.72 0h-6.72v6.72h6.72v-6.72zm6.72 0h-6.72v6.72h6.72v-6.72zm13.44 0h-6.72v6.72h6.72v-6.72zm26.88 0h-6.72v6.72H184v-6.72zM29.44 76.48h-6.72v6.72h6.72v-6.72zm13.44 0h-6.72v6.72h6.72v-6.72zm6.72 0h-6.72v6.72h6.72v-6.72zm20.16 0h-6.72v6.72h6.72v-6.72zm6.72 0h-6.72v6.72h6.72v-6.72zm26.88 0h-6.72v6.72h6.72v-6.72zm20.16 0h-6.72v6.72h6.72v-6.72zm13.44 0h-6.72v6.72h6.72v-6.72zm6.72 0h-6.72v6.72h6.72v-6.72zm13.44 0h-6.72v6.72h6.72v-6.72zm6.72 0h-6.72v6.72h6.72v-6.72zm6.72 0h-6.72v6.72h6.72v-6.72zm6.72 0h-6.72v6.72h6.72v-6.72zm6.72 0h-6.72v6.72H184v-6.72zM22.72 83.2H16v6.72h6.72V83.2zm6.72 0h-6.72v6.72h6.72V83.2zm13.44 0h-6.72v6.72h6.72V83.2zm6.72 0h-6.72v6.72h6.72V83.2zm6.72 0H49.6v6.72h6.72V83.2zm6.72 0h-6.72v6.72h6.72V83.2zm6.72 0h-6.72v6.72h6.72V83.2zm13.44 0h-6.72v6.72h6.72V83.2zm13.44 0h-6.72v6.72h6.72V83.2zm6.72 0h-6.72v6.72h6.72V83.2zm13.44 0h-6.72v6.72h6.72V83.2zm13.44 0h-6.72v6.72h6.72V83.2zm6.72 0h-6.72v6.72h6.72V83.2zm6.72 0h-6.72v6.72h6.72V83.2zm6.72 0h-6.72v6.72h6.72V83.2zm6.72 0h-6.72v6.72h6.72V83.2zm6.72 0h-6.72v6.72h6.72V83.2zm6.72 0h-6.72v6.72h6.72V83.2zm6.72 0h-6.72v6.72h6.72V83.2zM22.72 89.92H16v6.72h6.72v-6.72zm26.88 0h-6.72v6.72h6.72v-6.72zm6.72 0H49.6v6.72h6.72v-6.72zm13.44 0h-6.72v6.72h6.72v-6.72zm13.44 0h-6.72v6.72h6.72v-6.72zm6.72 0H83.2v6.72h6.72v-6.72zm26.88 0h-6.72v6.72h6.72v-6.72zm6.72 0h-6.72v6.72h6.72v-6.72zm33.6 0h-6.72v6.72h6.72v-6.72zm13.44 0h-6.72v6.72h6.72v-6.72zm6.72 0h-6.72v6.72h6.72v-6.72zM22.72 96.64H16v6.72h6.72v-6.72zm20.16 0h-6.72v6.72h6.72v-6.72zm6.72 0h-6.72v6.72h6.72v-6.72zm6.72 0H49.6v6.72h6.72v-6.72zm6.72 0h-6.72v6.72h6.72v-6.72zm6.72 0h-6.72v6.72h6.72v-6.72zm6.72 0h-6.72v6.72h6.72v-6.72zm13.44 0H83.2v6.72h6.72v-6.72zm6.72 0h-6.72v6.72h6.72v-6.72zm13.44 0h-6.72v6.72h6.72v-6.72zm6.72 0h-6.72v6.72h6.72v-6.72zm13.44 0h-6.72v6.72h6.72v-6.72zm20.16 0h-6.72v6.72h6.72v-6.72zm13.44 0h-6.72v6.72h6.72v-6.72zm6.72 0h-6.72v6.72h6.72v-6.72zm13.44 0h-6.72v6.72H184v-6.72zm-161.28 6.72H16v6.72h6.72v-6.72zm6.72 0h-6.72v6.72h6.72v-6.72zm40.32 0h-6.72v6.72h6.72v-6.72zm6.72 0h-6.72v6.72h6.72v-6.72zm6.72 0h-6.72v6.72h6.72v-6.72zm20.16 0h-6.72v6.72h6.72v-6.72zm13.44 0h-6.72v6.72h6.72v-6.72zm6.72 0h-6.72v6.72h6.72v-6.72zm6.72 0h-6.72v6.72h6.72v-6.72zm6.72 0h-6.72v6.72h6.72v-6.72zm20.16 0h-6.72v6.72h6.72v-6.72zm13.44 0h-6.72v6.72h6.72v-6.72zm6.72 0h-6.72v6.72h6.72v-6.72zm6.72 0h-6.72v6.72H184v-6.72zm-161.28 6.72H16v6.72h6.72v-6.72zm6.72 0h-6.72v6.72h6.72v-6.72zM36.16 110.08h-6.72v6.72h6.72v-6.72zm26.88 0h-6.72v6.72h6.72v-6.72zm20.16 0h-6.72v6.72h6.72v-6.72zm13.44 0h-6.72v6.72h6.72v-6.72zm6.72 0h-6.72v6.72h6.72v-6.72zm13.44 0h-6.72v6.72h6.72v-6.72zm20.16 0h-6.72v6.72h6.72v-6.72zm13.44 0h-6.72v6.72h6.72v-6.72zm6.72 0h-6.72v6.72h6.72v-6.72zm13.44 0h-6.72v6.72h6.72v-6.72zM29.44 116.8h-6.72v6.72h6.72v-6.72zm40.32 0h-6.72v6.72h6.72v-6.72zm33.6 0h-6.72v6.72h6.72v-6.72zm13.44 0h-6.72v6.72h6.72v-6.72zm6.72 0h-6.72v6.72h6.72v-6.72zm20.16 0h-6.72v6.72h6.72v-6.72zm13.44 0h-6.72v6.72h6.72v-6.72zm20.16 0h-6.72v6.72h6.72v-6.72zm-154.56 6.72H16v6.72h6.72v-6.72zm33.6 0H49.6v6.72h6.72v-6.72zm6.72 0h-6.72v6.72h6.72v-6.72zm6.72 0h-6.72v6.72h6.72v-6.72zm13.44 0h-6.72v6.72h6.72v-6.72zm6.72 0H83.2v6.72h6.72v-6.72zm13.44 0h-6.72v6.72h6.72v-6.72zm20.16 0h-6.72v6.72h6.72v-6.72zm6.72 0h-6.72v6.72h6.72v-6.72zm6.72 0h-6.72v6.72h6.72v-6.72zm6.72 0h-6.72v6.72h6.72v-6.72zm6.72 0h-6.72v6.72h6.72v-6.72zm6.72 0h-6.72v6.72h6.72v-6.72zm6.72 0h-6.72v6.72h6.72v-6.72zm13.44 0h-6.72v6.72h6.72v-6.72zm-100.8 6.72h-6.72v6.72h6.72v-6.72zm13.44 0H83.2v6.72h6.72v-6.72zm13.44 0h-6.72v6.72h6.72v-6.72zm20.16 0h-6.72v6.72h6.72v-6.72zm6.72 0h-6.72v6.72h6.72v-6.72zm26.88 0h-6.72v6.72h6.72v-6.72zm6.72 0h-6.72v6.72h6.72v-6.72zm6.72 0h-6.72v6.72h6.72v-6.72zm-147.84 6.72H16v6.72h6.72v-6.72zm6.72 0h-6.72v6.72h6.72v-6.72zM36.16 136.96h-6.72v6.72h6.72v-6.72zm6.72 0h-6.72v6.72h6.72v-6.72zm6.72 0h-6.72v6.72h6.72v-6.72zm6.72 0H49.6v6.72h6.72v-6.72zm6.72 0h-6.72v6.72h6.72v-6.72zm13.44 0h-6.72v6.72h6.72v-6.72zm26.88 0h-6.72v6.72h6.72v-6.72zm20.16 0h-6.72v6.72h6.72v-6.72zm6.72 0h-6.72v6.72h6.72v-6.72zm13.44 0h-6.72v6.72h6.72v-6.72zm13.44 0h-6.72v6.72h6.72v-6.72zm6.72 0h-6.72v6.72h6.72v-6.72zm6.72 0h-6.72v6.72h6.72v-6.72zm13.44 0h-6.72v6.72H184v-6.72zm-161.28 6.72H16v6.72h6.72v-6.72zm40.32 0h-6.72v6.72h6.72v-6.72zm13.44 0h-6.72v6.72h6.72v-6.72zm13.44 0H83.2v6.72h6.72v-6.72zm26.88 0h-6.72v6.72h6.72v-6.72zm13.44 0h-6.72v6.72h6.72v-6.72zm26.88 0h-6.72v6.72h6.72v-6.72zm13.44 0h-6.72v6.72h6.72v-6.72zM22.72 150.4H16v6.72h6.72v-6.72zm13.44 0h-6.72v6.72h6.72v-6.72zm6.72 0h-6.72v6.72h6.72v-6.72zm6.72 0h-6.72v6.72h6.72v-6.72zm13.44 0h-6.72v6.72h6.72v-6.72zm13.44 0h-6.72v6.72h6.72v-6.72zm6.72 0h-6.72v6.72h6.72v-6.72zm6.72 0H83.2v6.72h6.72v-6.72zm20.16 0h-6.72v6.72h6.72v-6.72zm6.72 0h-6.72v6.72h6.72v-6.72zm13.44 0h-6.72v6.72h6.72v-6.72zm6.72 0h-6.72v6.72h6.72v-6.72zm6.72 0h-6.72v6.72h6.72v-6.72zm6.72 0h-6.72v6.72h6.72v-6.72zm6.72 0h-6.72v6.72h6.72v-6.72zm26.88 0h-6.72v6.72H184v-6.72zm-161.28 6.72H16v6.72h6.72v-6.72zm13.44 0h-6.72v6.72h6.72v-6.72zm6.72 0h-6.72v6.72h6.72v-6.72zm6.72 0h-6.72v6.72h6.72v-6.72zm13.44 0h-6.72v6.72h6.72v-6.72zm13.44 0h-6.72v6.72h6.72v-6.72zm26.88 0h-6.72v6.72h6.72v-6.72zm26.88 0h-6.72v6.72h6.72v-6.72zm6.72 0h-6.72v6.72h6.72v-6.72zm26.88 0h-6.72v6.72h6.72v-6.72zm-141.12 6.72H16v6.72h6.72v-6.72zm13.44 0h-6.72v6.72h6.72v-6.72zm6.72 0h-6.72v6.72h6.72v-6.72zm6.72 0h-6.72v6.72h6.72v-6.72zm13.44 0h-6.72v6.72h6.72v-6.72zm33.6 0h-6.72v6.72h6.72v-6.72zm6.72 0h-6.72v6.72h6.72v-6.72zm13.44 0h-6.72v6.72h6.72v-6.72zm6.72 0h-6.72v6.72h6.72v-6.72zm6.72 0h-6.72v6.72h6.72v-6.72zm20.16 0h-6.72v6.72h6.72v-6.72zm6.72 0h-6.72v6.72h6.72v-6.72zm13.44 0h-6.72v6.72h6.72v-6.72zm6.72 0h-6.72v6.72h6.72v-6.72zm6.72 0h-6.72v6.72H184v-6.72zm-161.28 6.72H16v6.72h6.72v-6.72zm40.32 0h-6.72v6.72h6.72v-6.72zm20.16 0h-6.72v6.72h6.72v-6.72zm6.72 0H83.2v6.72h6.72v-6.72zm6.72 0h-6.72v6.72h6.72v-6.72zm13.44 0h-6.72v6.72h6.72v-6.72zm6.72 0h-6.72v6.72h6.72v-6.72zm20.16 0h-6.72v6.72h6.72v-6.72zm6.72 0h-6.72v6.72h6.72v-6.72zm6.72 0h-6.72v6.72h6.72v-6.72zm6.72 0h-6.72v6.72h6.72v-6.72zm13.44 0h-6.72v6.72h6.72v-6.72zm6.72 0h-6.72v6.72h6.72v-6.72zm6.72 0h-6.72v6.72H184v-6.72zm-161.28 6.72H16V184h6.72v-6.72zm6.72 0h-6.72V184h6.72v-6.72zM36.16 177.28h-6.72V184h6.72v-6.72zm6.72 0h-6.72V184h6.72v-6.72zm6.72 0h-6.72V184h6.72v-6.72zm6.72 0H49.6V184h6.72v-6.72zm6.72 0h-6.72V184h6.72v-6.72zm13.44 0h-6.72V184h6.72v-6.72zm20.16 0h-6.72V184h6.72v-6.72zm6.72 0h-6.72V184h6.72v-6.72zm26.88 0h-6.72V184h6.72v-6.72zm33.6 0h-6.72V184h6.72v-6.72zm20.16 0h-6.72V184H184v-6.72z"/></symbol><symbol viewBox="0 0 20 20" id="refresh" xmlns="http://www.w3.org/2000/svg"><path fill-rule="evenodd" clip-rule="evenodd" d="M14.065 6.5c-.952-1.345-2.39-2.1-4.065-2.1a5.6 5.6 0 105.6 5.6H17a7 7 0 11-7-7c1.963 0 3.692.828 4.9 2.29V3h1.4v4.9h-4.9V6.5h2.665z"/></symbol><symbol viewBox="0 0 14 14" id="search" xmlns="http://www.w3.org/2000/svg"><path d="M12.688 12.069L9.383 8.765a4.82 4.82 0 10-.62.619l3.305 3.303.618-.618zM1.75 5.688a3.938 3.938 0 117.875 0 3.938 3.938 0 01-7.875 0z"/></symbol><symbol viewBox="0 0 24 24" id="share" xmlns="http://www.w3.org/2000/svg"><path d="M5.5 15c.91 0 1.733-.358 2.357-.93l6.26 3.577A3.486 3.486 0 0014 18.5c0 1.93 1.57 3.5 3.5 3.5s3.5-1.57 3.5-3.5-1.57-3.5-3.5-3.5c-.91 0-1.733.358-2.357.93l-6.26-3.577c.063-.247.103-.502.108-.768l6.151-3.515c.625.572 1.448.93 2.358.93C19.43 9 21 7.43 21 5.5S19.43 2 17.5 2 14 3.57 14 5.5c0 .296.048.578.117.853L8.433 9.602A3.496 3.496 0 005.5 8C3.57 8 2 9.57 2 11.5S3.57 15 5.5 15zm12 2c.827 0 1.5.673 1.5 1.5s-.673 1.5-1.5 1.5-1.5-.673-1.5-1.5.673-1.5 1.5-1.5zm0-13c.827 0 1.5.673 1.5 1.5S18.327 7 17.5 7 16 6.327 16 5.5 16.673 4 17.5 4zm-12 6c.827 0 1.5.673 1.5 1.5S6.327 13 5.5 13 4 12.327 4 11.5 4.673 10 5.5 10z"/></symbol><symbol viewBox="0 0 18 18" id="sort" xmlns="http://www.w3.org/2000/svg"><path d="M4.75 8.125h8.5v1.75h-8.5v-1.75zm-2.625-4h13.75v1.75H2.125v-1.75zm5.25 8h3.25v1.75h-3.25v-1.75z"/></symbol><symbol viewBox="0 0 25 24" id="strategy" xmlns="http://www.w3.org/2000/svg"><path d="M2.748 13h6v8h-6v-8zm7-10h6v18h-6V3zm7 5h6v13h-6V8z"/></symbol></svg>