<svg width="343" height="100" viewBox="0 0 343 100" fill="none" xmlns="http://www.w3.org/2000/svg">
<g clip-path="url(#clip0)">
<path d="M492 -38H0V123H492V-38Z" fill="url(#paint0_radial)"/>
<path d="M351.995 116H303.96C275.961 106.635 249.564 94.3187 218.49 90.951C181.308 86.9195 140.584 96.1224 106.591 85.794C87.1123 79.878 73.463 68.4674 61.4014 57.1521C49.3399 45.8367 37.6352 33.8951 20.1057 25.9158C14.1115 23.1887 7.20674 21.0445 0.00457668 19.7142V-32H38.0333C39.6851 -30.5773 41.6572 -29.3046 43.9634 -28.234C54.7712 -23.2213 69.3677 -23.6455 82.7791 -23.38C96.1905 -23.1145 111.51 -21.1493 118.04 -13.7586C123.183 -7.93792 121.027 -0.783932 120.121 5.85349C119.215 12.4909 120.753 20.3721 129.872 23.7341C137.916 26.7008 148.157 24.747 156.64 22.3056C174.238 17.2439 190.651 10.3006 209.339 7.14634C228.021 3.99212 250.607 5.62262 262.604 15.192C273.655 24.0083 273.106 37.26 285.364 45.4183C301.434 56.1132 328.678 52.2866 352 55.0945V116H351.995ZM247.294 -18.4077C266.837 -10.3332 293.152 -11.0142 312.425 -2.6857C329.3 4.60681 337.724 17.4459 352 26.6806V-2.46637C329.204 -7.27417 304.037 -9.64056 284.728 -18.5924C276.698 -22.3151 270.131 -26.9642 264.183 -31.9971H226.635C232.359 -26.7189 238.806 -21.914 247.294 -18.4077ZM71.1111 91.4589C47.7338 85.7536 22.9334 82.23 0.704659 74.9202C0.466723 74.8422 0.233361 74.7614 0 74.6835V116H125.933C113.359 104.229 92.3286 96.639 71.1111 91.4589Z" fill="url(#paint1_radial)"/>
<path d="M334.133 24.9625C334.133 25.1899 333.949 25.3741 333.721 25.3741C333.494 25.3741 333.31 25.1899 333.31 24.9625C333.31 24.735 333.494 24.5508 333.721 24.5508C333.949 24.5508 334.133 24.735 334.133 24.9625Z" fill="#1FD7EE"/>
<path d="M286.684 11.7483C286.684 12.1715 286.341 12.5112 285.921 12.5112C285.498 12.5112 285.158 12.1686 285.158 11.7483C285.158 11.328 285.501 10.9854 285.921 10.9854C286.341 10.9825 286.684 11.3251 286.684 11.7483Z" fill="#1FD7EE"/>
<path d="M265.086 11.7482C265.086 12.1714 264.744 12.5111 264.324 12.5111C263.903 12.5111 263.561 12.1686 263.561 11.7482C263.561 11.3279 263.903 10.9854 264.324 10.9854C264.744 10.9854 265.086 11.3251 265.086 11.7482Z" fill="#1FD7EE"/>
<path d="M340.53 58.5406C340.53 58.768 340.345 58.9523 340.118 58.9523C339.891 58.9523 339.706 58.768 339.706 58.5406C339.706 58.3132 339.891 58.1289 340.118 58.1289C340.345 58.1289 340.53 58.3132 340.53 58.5406Z" fill="#1FD7EE"/>
<path d="M335.411 68.9367C335.411 69.3599 335.069 69.6996 334.648 69.6996C334.228 69.6996 333.885 69.357 333.885 68.9367C333.885 68.5164 334.228 68.1738 334.648 68.1738C335.069 68.1738 335.411 68.5135 335.411 68.9367Z" fill="#1FD7EE"/>
<path d="M317.197 18.8957C317.197 19.3189 316.854 19.6586 316.434 19.6586C316.011 19.6586 315.671 19.316 315.671 18.8957C315.671 18.4754 316.013 18.1328 316.434 18.1328C316.854 18.1328 317.197 18.4754 317.197 18.8957Z" fill="#1FD7EE"/>
<path d="M307.083 20.4078C307.258 20.4078 307.4 20.266 307.4 20.0911C307.4 19.9162 307.258 19.7744 307.083 19.7744C306.908 19.7744 306.767 19.9162 306.767 20.0911C306.767 20.266 306.908 20.4078 307.083 20.4078Z" fill="#1FD7EE"/>
<path d="M302.785 26.7466C302.96 26.7466 303.102 26.6048 303.102 26.43C303.102 26.2551 302.96 26.1133 302.785 26.1133C302.61 26.1133 302.468 26.2551 302.468 26.43C302.468 26.6048 302.61 26.7466 302.785 26.7466Z" fill="#1FD7EE"/>
<path d="M331.867 53.6972C331.867 53.7922 331.792 53.867 331.697 53.867C331.602 53.867 331.528 53.7922 331.528 53.6972C331.528 53.6022 331.602 53.5273 331.697 53.5273C331.792 53.5273 331.867 53.6022 331.867 53.6972Z" fill="#1FD7EE"/>
<path d="M296.642 37.563C296.774 37.6695 296.794 37.8595 296.69 37.992C296.584 38.1244 296.394 38.1445 296.261 38.0409C296.129 37.9344 296.109 37.7444 296.213 37.612C296.319 37.4795 296.509 37.4594 296.642 37.563Z" fill="#1FD7EE"/>
<path d="M328.692 15.3983C328.786 15.3983 328.862 15.3223 328.862 15.2284C328.862 15.1346 328.786 15.0586 328.692 15.0586C328.598 15.0586 328.522 15.1346 328.522 15.2284C328.522 15.3223 328.598 15.3983 328.692 15.3983Z" fill="#1FD7EE"/>
<path d="M304.273 12.5105C304.445 12.5105 304.584 12.3713 304.584 12.1996C304.584 12.0279 304.445 11.8887 304.273 11.8887C304.102 11.8887 303.962 12.0279 303.962 12.1996C303.962 12.3713 304.102 12.5105 304.273 12.5105Z" fill="#1FD7EE"/>
<path d="M307.852 44.0116C307.852 44.1067 307.777 44.1815 307.682 44.1815C307.587 44.1815 307.512 44.1067 307.512 44.0116C307.512 43.9166 307.587 43.8418 307.682 43.8418C307.774 43.8418 307.852 43.9166 307.852 44.0116Z" fill="#1FD7EE"/>
<path d="M168.823 83.021C168.823 83.2485 168.639 83.4327 168.412 83.4327C168.184 83.4327 168 83.2485 168 83.021C168 82.7936 168.184 82.6094 168.412 82.6094C168.639 82.6094 168.823 82.7936 168.823 83.021Z" fill="#1FD7EE"/>
<path d="M194.314 68.7629C194.314 69.1861 193.972 69.5258 193.552 69.5258C193.131 69.5258 192.789 69.1832 192.789 68.7629C192.789 68.3397 193.131 68 193.552 68C193.972 68 194.314 68.3426 194.314 68.7629Z" fill="#1FD7EE"/>
<path d="M192.916 23.7629C192.916 24.1861 193.259 24.5258 193.679 24.5258C194.099 24.5258 194.442 24.1832 194.442 23.7629C194.442 23.3397 194.099 23 193.679 23C193.259 23 192.916 23.3426 192.916 23.7629Z" fill="#1FD7EE"/>
<path d="M198.231 82.6692C198.231 83.0924 197.888 83.4321 197.468 83.4321C197.045 83.4321 196.705 83.0895 196.705 82.6692C196.705 82.246 197.048 81.9063 197.468 81.9063C197.891 81.9034 198.231 82.246 198.231 82.6692Z" fill="#1FD7EE"/>
<path d="M189 37.6692C189 38.0924 189.343 38.4321 189.763 38.4321C190.186 38.4321 190.526 38.0895 190.526 37.6692C190.526 37.246 190.183 36.9063 189.763 36.9063C189.34 36.9034 189 37.246 189 37.6692Z" fill="#1FD7EE"/>
<path d="M185.642 86.8521C185.816 86.8521 185.958 86.7103 185.958 86.5354C185.958 86.3605 185.816 86.2188 185.642 86.2188C185.467 86.2188 185.325 86.3605 185.325 86.5354C185.325 86.7103 185.467 86.8521 185.642 86.8521Z" fill="#1FD7EE"/>
<path d="M201.589 41.8521C201.414 41.8521 201.273 41.7103 201.273 41.5354C201.273 41.3605 201.414 41.2188 201.589 41.2188C201.764 41.2188 201.906 41.3605 201.906 41.5354C201.906 41.7103 201.764 41.8521 201.589 41.8521Z" fill="#1FD7EE"/>
<path d="M189.024 95.2505C189.199 95.2505 189.341 95.1087 189.341 94.9339C189.341 94.759 189.199 94.6172 189.024 94.6172C188.849 94.6172 188.708 94.759 188.708 94.9339C188.708 95.1087 188.849 95.2505 189.024 95.2505Z" fill="#1FD7EE"/>
<path d="M180.287 76.7523C180.287 76.9222 180.149 77.0632 179.976 77.0632C179.806 77.0632 179.665 76.9251 179.665 76.7523C179.665 76.5796 179.803 76.4414 179.976 76.4414C180.149 76.4414 180.287 76.5825 180.287 76.7523Z" fill="#1FD7EE"/>
<path d="M206.944 31.7523C206.944 31.9222 207.082 32.0632 207.255 32.0632C207.425 32.0632 207.566 31.9251 207.566 31.7523C207.566 31.5796 207.428 31.4414 207.255 31.4414C207.082 31.4414 206.944 31.5825 206.944 31.7523Z" fill="#1FD7EE"/>
<path d="M329.97 100.418C330.145 100.418 330.287 100.277 330.287 100.102C330.287 99.9269 330.145 99.7852 329.97 99.7852C329.795 99.7852 329.653 99.9269 329.653 100.102C329.653 100.277 329.795 100.418 329.97 100.418Z" fill="#1FD7EE"/>
<path d="M309.398 68.6822C309.573 68.6822 309.715 68.5404 309.715 68.3655C309.715 68.1906 309.573 68.0488 309.398 68.0488C309.223 68.0488 309.081 68.1906 309.081 68.3655C309.081 68.5404 309.223 68.6822 309.398 68.6822Z" fill="#1FD7EE"/>
<path d="M305.1 75.022C305.275 75.022 305.416 74.8802 305.416 74.7053C305.416 74.5305 305.275 74.3887 305.1 74.3887C304.925 74.3887 304.783 74.5305 304.783 74.7053C304.783 74.8802 304.925 75.022 305.1 75.022Z" fill="#1FD7EE"/>
<path d="M324.494 70.5796C324.494 70.8071 324.31 70.9913 324.083 70.9913C323.855 70.9913 323.671 70.8071 323.671 70.5796C323.671 70.3522 323.855 70.168 324.083 70.168C324.31 70.168 324.494 70.3522 324.494 70.5796Z" fill="#1FD7EE"/>
<path d="M333.37 92.8397C333.461 92.8397 333.534 92.7637 333.534 92.6699C333.534 92.576 333.461 92.5 333.37 92.5C333.279 92.5 333.206 92.576 333.206 92.6699C333.206 92.7637 333.279 92.8397 333.37 92.8397Z" fill="#1FD7EE"/>
<path d="M321.184 91.7827C321.316 91.8893 321.336 92.0793 321.233 92.2117C321.126 92.3441 320.936 92.3643 320.804 92.2606C320.671 92.1541 320.651 91.9641 320.755 91.8317C320.858 91.6993 321.051 91.6791 321.184 91.7827Z" fill="#1FD7EE"/>
<path d="M324.253 76.4722C324.261 76.5643 324.192 76.6478 324.097 76.6564C324.005 76.6651 323.922 76.596 323.913 76.501C323.904 76.4089 323.974 76.3254 324.069 76.3167C324.164 76.311 324.244 76.3801 324.253 76.4722Z" fill="#1FD7EE"/>
<path d="M322.364 91.3564C322.399 91.4428 322.358 91.5435 322.272 91.5781C322.186 91.6126 322.085 91.5723 322.05 91.486C322.016 91.3996 322.056 91.2988 322.143 91.2643C322.229 91.2297 322.327 91.2701 322.364 91.3564Z" fill="#1FD7EE"/>
<path d="M249.313 3.56305C249.313 3.79048 249.129 3.97472 248.902 3.97472C248.674 3.97472 248.49 3.79048 248.49 3.56305C248.49 3.33562 248.674 3.15137 248.902 3.15137C249.129 3.15425 249.313 3.3385 249.313 3.56305Z" fill="#1FD7EE"/>
<path d="M196.253 48.0903C196.253 48.2602 196.115 48.3955 195.948 48.3955C195.778 48.3955 195.643 48.2573 195.643 48.0903C195.643 47.9233 195.781 47.7852 195.948 47.7852C196.115 47.7852 196.253 47.9205 196.253 48.0903Z" fill="#1FD7EE"/>
<path d="M242.191 -0.164837C242.191 0.258355 241.848 0.598058 241.428 0.598058C241.008 0.598058 240.665 0.255476 240.665 -0.164837C240.665 -0.58515 241.008 -0.927734 241.428 -0.927734C241.848 -0.927734 242.191 -0.58515 242.191 -0.164837Z" fill="#1FD7EE"/>
<path d="M224.287 14.4048C224.287 14.6323 224.103 14.8165 223.876 14.8165C223.648 14.8165 223.464 14.6323 223.464 14.4048C223.464 14.1774 223.648 13.9932 223.876 13.9932C224.103 13.9932 224.287 14.1774 224.287 14.4048Z" fill="#1FD7EE"/>
<path d="M185.927 65.1249C186.017 65.1249 186.091 65.0488 186.091 64.955C186.091 64.8612 186.017 64.7852 185.927 64.7852C185.836 64.7852 185.762 64.8612 185.762 64.955C185.762 65.0488 185.836 65.1249 185.927 65.1249Z" fill="#1FD7EE"/>
<path d="M201.304 20.1249C201.213 20.1249 201.14 20.0488 201.14 19.955C201.14 19.8612 201.213 19.7852 201.304 19.7852C201.395 19.7852 201.468 19.8612 201.468 19.955C201.468 20.0488 201.395 20.1249 201.304 20.1249Z" fill="#1FD7EE"/>
<path d="M176.829 65.6824C176.962 65.7889 176.982 65.9789 176.878 66.1113C176.772 66.2438 176.582 66.2639 176.449 66.1603C176.317 66.0538 176.297 65.8638 176.401 65.7313C176.507 65.5989 176.7 65.5759 176.829 65.6824Z" fill="#1FD7EE"/>
<path d="M210.401 20.6824C210.269 20.7889 210.249 20.9789 210.352 21.1113C210.459 21.2438 210.649 21.2639 210.781 21.1603C210.914 21.0538 210.934 20.8638 210.83 20.7313C210.724 20.5989 210.531 20.5759 210.401 20.6824Z" fill="#1FD7EE"/>
<path d="M185.115 57.1057C185.149 57.192 185.109 57.2928 185.023 57.3273C184.936 57.3619 184.836 57.3216 184.801 57.2352C184.766 57.1488 184.807 57.0481 184.893 57.0135C184.98 56.9761 185.077 57.0193 185.115 57.1057Z" fill="#1FD7EE"/>
<path d="M202.116 12.1057C202.081 12.192 202.122 12.2928 202.208 12.3273C202.294 12.3619 202.395 12.3216 202.43 12.2352C202.464 12.1488 202.424 12.0481 202.338 12.0135C202.251 11.9761 202.153 12.0193 202.116 12.1057Z" fill="#1FD7EE"/>
<path d="M215.6 89.8806L215.916 90.4765C216.026 90.6838 216.19 90.8536 216.391 90.9659L216.97 91.2912C216.993 91.3027 216.993 91.3373 216.97 91.3488L216.391 91.6741C216.19 91.7864 216.026 91.9562 215.916 92.1635L215.6 92.7594C215.588 92.7824 215.556 92.7824 215.542 92.7594L215.225 92.1635C215.116 91.9562 214.952 91.7864 214.75 91.6741L214.172 91.3488C214.149 91.3373 214.149 91.3027 214.172 91.2912L214.75 90.9659C214.952 90.8536 215.116 90.6838 215.225 90.4765L215.542 89.8806C215.554 89.8575 215.588 89.8575 215.6 89.8806Z" fill="white"/>
<path d="M337.882 64.3415L338.198 64.9374C338.308 65.1447 338.472 65.3146 338.673 65.4268L339.252 65.7521C339.275 65.7637 339.275 65.7982 339.252 65.8097L338.673 66.135C338.472 66.2473 338.308 66.4172 338.198 66.6244L337.882 67.2203C337.87 67.2434 337.839 67.2434 337.824 67.2203L337.507 66.6244C337.398 66.4172 337.234 66.2473 337.032 66.135L336.454 65.8097C336.431 65.7982 336.431 65.7637 336.454 65.7521L337.032 65.4268C337.234 65.3146 337.398 65.1447 337.507 64.9374L337.824 64.3415C337.836 64.3185 337.87 64.3185 337.882 64.3415Z" fill="white"/>
<path d="M322.362 9.00648L322.486 9.23103C322.529 9.30876 322.592 9.37209 322.67 9.41528L322.894 9.53907C322.903 9.54483 322.903 9.55634 322.894 9.5621L322.67 9.68589C322.592 9.72907 322.529 9.7924 322.486 9.87013L322.362 10.0947C322.356 10.1033 322.344 10.1033 322.339 10.0947L322.215 9.87013C322.172 9.7924 322.108 9.72907 322.031 9.68589L321.806 9.5621C321.798 9.55634 321.798 9.54483 321.806 9.53907L322.031 9.41528C322.108 9.37209 322.172 9.30876 322.215 9.23103L322.339 9.00648C322.344 8.99784 322.359 8.99784 322.362 9.00648Z" fill="white"/>
<path d="M333.186 54.653L333.31 54.8775C333.353 54.9552 333.417 55.0186 333.494 55.0618L333.719 55.1856C333.727 55.1913 333.727 55.2028 333.719 55.2086L333.494 55.3324C333.417 55.3756 333.353 55.4389 333.31 55.5166L333.186 55.7412C333.18 55.7498 333.169 55.7498 333.163 55.7412L333.039 55.5166C332.996 55.4389 332.933 55.3756 332.855 55.3324L332.631 55.2086C332.622 55.2028 332.622 55.1913 332.631 55.1856L332.855 55.0618C332.933 55.0186 332.996 54.9552 333.039 54.8775L333.163 54.653C333.169 54.6443 333.18 54.6443 333.186 54.653Z" fill="white"/>
<path d="M241.915 11.0582L242.039 11.2828C242.082 11.3605 242.145 11.4238 242.223 11.467L242.448 11.5908C242.456 11.5966 242.456 11.6081 242.448 11.6139L242.223 11.7376C242.145 11.7808 242.082 11.8442 242.039 11.9219L241.915 12.1464C241.909 12.1551 241.898 12.1551 241.892 12.1464L241.768 11.9219C241.725 11.8442 241.662 11.7808 241.584 11.7376L241.359 11.6139C241.351 11.6081 241.351 11.5966 241.359 11.5908L241.584 11.467C241.662 11.4238 241.725 11.3605 241.768 11.2828L241.892 11.0582C241.898 11.0496 241.909 11.0496 241.915 11.0582Z" fill="white"/>
<path d="M307.049 23.1268L307.208 23.4176C307.262 23.5183 307.346 23.6018 307.446 23.6565L307.737 23.8148C307.749 23.8206 307.749 23.8379 307.737 23.8436L307.446 24.002C307.346 24.0567 307.262 24.1402 307.208 24.2409L307.049 24.5317C307.043 24.5432 307.026 24.5432 307.02 24.5317L306.862 24.2409C306.807 24.1402 306.724 24.0567 306.623 24.002L306.332 23.8436C306.321 23.8379 306.321 23.8206 306.332 23.8148L306.623 23.6565C306.724 23.6018 306.807 23.5183 306.862 23.4176L307.02 23.1268C307.029 23.1153 307.043 23.1153 307.049 23.1268Z" fill="white"/>
<path d="M205.725 51.0086L205.884 51.2994C205.939 51.4002 206.022 51.4836 206.123 51.5383L206.414 51.6967C206.425 51.7024 206.425 51.7197 206.414 51.7255L206.123 51.8838C206.022 51.9385 205.939 52.022 205.884 52.1228L205.725 52.4135C205.72 52.425 205.702 52.425 205.697 52.4135L205.538 52.1228C205.484 52.022 205.4 51.9385 205.299 51.8838L205.009 51.7255C204.997 51.7197 204.997 51.7024 205.009 51.6967L205.299 51.5383C205.4 51.4836 205.484 51.4002 205.538 51.2994L205.697 51.0086C205.702 50.9971 205.72 50.9971 205.725 51.0086Z" fill="white"/>
<path d="M237.116 22.4566C236.215 23.3577 236.215 24.8201 237.116 25.7212C238.018 26.6223 239.48 26.6223 240.381 25.7212C243.721 22.3817 255.838 7 255.838 7C255.838 7 240.456 19.1171 237.116 22.4566Z" fill="url(#paint2_linear)"/>
<path d="M289.689 90.7329C288.77 91.6513 288.77 93.1397 289.689 94.058C290.607 94.9764 292.095 94.9764 293.014 94.058C296.414 90.6581 308.75 75 308.75 75C308.75 75 293.089 87.333 289.689 90.7329Z" fill="url(#paint3_linear)"/>
<path d="M249.553 19.3704C248.926 19.998 248.926 21.0171 249.553 21.6447C250.181 22.2723 251.2 22.2723 251.828 21.6447C254.154 19.3186 262.594 8.60059 262.594 8.60059C262.594 8.60059 251.879 17.0443 249.553 19.3704Z" fill="url(#paint4_linear)"/>
<path d="M313.046 26.3463C312.756 26.6371 312.756 27.1092 313.046 27.4029C313.337 27.6936 313.809 27.6936 314.103 27.4029C315.183 26.3233 319.101 21.3486 319.101 21.3486C319.101 21.3486 314.126 25.2668 313.046 26.3463Z" fill="url(#paint5_linear)"/>
<path d="M331.424 65.6668C331.424 65.9778 331.173 66.2282 330.862 66.2282C330.551 66.2282 330.301 65.9778 330.301 65.6668C330.301 65.3559 330.551 65.1055 330.862 65.1055C331.173 65.1055 331.424 65.3588 331.424 65.6668Z" fill="white"/>
<path d="M343.025 40.1374C343.025 40.6959 342.573 41.1479 342.015 41.1479C341.456 41.1479 341.004 40.6959 341.004 40.1374C341.004 39.5789 341.456 39.127 342.015 39.127C342.573 39.127 343.025 39.5789 343.025 40.1374Z" fill="white"/>
<path d="M183.618 47.9537C184.434 47.9537 185.095 47.2925 185.095 46.4769C185.095 45.6612 184.434 45 183.618 45C182.802 45 182.141 45.6612 182.141 46.4769C182.141 47.2925 182.802 47.9537 183.618 47.9537Z" fill="white"/>
<path d="M224.748 5.02464C224.927 5.02464 225.073 4.879 225.073 4.69933C225.073 4.51967 224.927 4.37402 224.748 4.37402C224.568 4.37402 224.422 4.51967 224.422 4.69933C224.422 4.879 224.568 5.02464 224.748 5.02464Z" fill="white"/>
<path d="M183.529 61.6938C183.529 62.0767 183.218 62.3876 182.835 62.3876C182.452 62.3876 182.141 62.0767 182.141 61.6938C182.141 61.3109 182.452 61 182.835 61C183.218 61 183.529 61.3109 183.529 61.6938Z" fill="white"/>
<path d="M155.206 90.2914C155.872 90.2914 156.412 89.7513 156.412 89.0851C156.412 88.419 155.872 87.8789 155.206 87.8789C154.54 87.8789 154 88.419 154 89.0851C154 89.7513 154.54 90.2914 155.206 90.2914Z" fill="white"/>
<path d="M201.711 67.1099C201.711 67.4899 201.403 67.798 201.023 67.798C200.643 67.798 200.335 67.4899 200.335 67.1099C200.335 66.7299 200.643 66.4219 201.023 66.4219C201.406 66.4219 201.711 66.7299 201.711 67.1099Z" fill="white"/>
<path d="M335.746 11.3732C335.746 12.1304 335.133 12.7464 334.373 12.7464C333.616 12.7464 333 12.1332 333 11.3732C333 10.6161 333.613 10 334.373 10C335.133 10.0029 335.746 10.6161 335.746 11.3732Z" fill="white"/>
<path d="M283.528 3.32634C283.528 3.50483 283.384 3.64877 283.206 3.64877C283.027 3.64877 282.883 3.50483 282.883 3.32634C282.883 3.14785 283.027 3.00391 283.206 3.00391C283.384 3.00391 283.528 3.14785 283.528 3.32634Z" fill="white"/>
<path d="M284.89 26.7484C285.068 26.7484 285.212 26.604 285.212 26.4259C285.212 26.2479 285.068 26.1035 284.89 26.1035C284.712 26.1035 284.567 26.2479 284.567 26.4259C284.567 26.604 284.712 26.7484 284.89 26.7484Z" fill="white"/>
<path d="M228.539 16.0488C228.539 16.3568 228.289 16.6044 227.983 16.6044C227.675 16.6044 227.428 16.3539 227.428 16.0488C227.428 15.7436 227.678 15.4932 227.983 15.4932C228.292 15.4932 228.539 15.7407 228.539 16.0488Z" fill="white"/>
<path opacity="0.05" d="M255.143 96.902C242.465 96.902 230.546 91.9648 221.581 83C203.076 64.4948 203.076 34.3848 221.581 15.8795C230.546 6.91477 242.465 1.97754 255.143 1.97754C267.822 1.97754 279.74 6.91477 288.702 15.8795C307.207 34.3848 307.207 64.4948 288.702 83C279.737 91.9677 267.819 96.902 255.143 96.902Z" fill="white"/>
<path d="M255.14 94.0233C279.762 94.0233 299.722 74.0633 299.722 49.4413C299.722 24.8194 279.762 4.85938 255.14 4.85938C230.518 4.85938 210.558 24.8194 210.558 49.4413C210.558 74.0633 230.518 94.0233 255.14 94.0233Z" fill="url(#paint6_radial)"/>
<path opacity="0.2" d="M260.572 22.6884C260.572 27.2629 256.865 30.9709 252.29 30.9709C247.716 30.9709 244.008 27.2629 244.008 22.6884C244.008 18.1139 247.716 14.406 252.29 14.406C256.865 14.4088 260.572 18.1168 260.572 22.6884ZM225.773 22.556C221.573 22.556 218.17 25.9588 218.17 30.1591C218.17 34.3593 221.573 37.7621 225.773 37.7621C229.973 37.7621 233.376 34.3593 233.376 30.1591C233.376 25.9588 229.973 22.556 225.773 22.556ZM244.195 33.4179C237.651 33.4179 232.345 38.7237 232.345 45.2673C232.345 51.8109 237.651 57.1167 244.195 57.1167C250.738 57.1167 256.044 51.8109 256.044 45.2673C256.044 38.7208 250.738 33.4179 244.195 33.4179ZM272.076 63.3667C272.076 69.3317 276.91 74.1652 282.875 74.1652C288.84 74.1652 293.674 69.3317 293.674 63.3667C293.674 57.4017 288.84 52.5681 282.875 52.5681C276.91 52.5681 272.076 57.4017 272.076 63.3667ZM255.016 67.0718C248.867 67.0718 243.881 72.0579 243.881 78.2072C243.881 84.3564 248.867 89.3426 255.016 89.3426C261.166 89.3426 266.152 84.3564 266.152 78.2072C266.152 72.0579 261.166 67.0718 255.016 67.0718ZM281.522 24.8102C276.153 24.8102 271.803 29.163 271.803 34.5292C271.803 39.8982 276.156 44.2482 281.522 44.2482C286.891 44.2482 291.241 39.8954 291.241 34.5292C291.241 29.163 286.891 24.8102 281.522 24.8102ZM227.552 55.778C222.37 55.778 218.173 59.9783 218.173 65.1573C218.173 70.3364 222.373 74.5366 227.552 74.5366C232.731 74.5366 236.931 70.3364 236.931 65.1573C236.931 59.9783 232.731 55.778 227.552 55.778ZM272.528 15.8195C272.528 17.4748 271.187 18.8135 269.534 18.8135C267.882 18.8135 266.54 17.4719 266.54 15.8195C266.54 14.1641 267.882 12.8255 269.534 12.8255C271.187 12.8255 272.528 14.1641 272.528 15.8195ZM257.103 31.8921C255.532 31.8921 254.256 33.1675 254.256 34.7393C254.256 36.3112 255.532 37.5865 257.103 37.5865C258.675 37.5865 259.951 36.3112 259.951 34.7393C259.951 33.1675 258.675 31.8921 257.103 31.8921ZM236.854 14.4088C234.933 14.4088 233.379 15.9634 233.379 17.8836C233.379 19.8038 234.933 21.3584 236.854 21.3584C238.774 21.3584 240.328 19.8038 240.328 17.8836C240.328 15.9634 238.771 14.4088 236.854 14.4088ZM239.565 25.9934C238.112 25.9934 236.931 27.1708 236.931 28.6275C236.931 30.0813 238.109 31.2617 239.565 31.2617C241.019 31.2617 242.2 30.0813 242.2 28.6275C242.197 27.1708 241.019 25.9934 239.565 25.9934ZM225.946 41.3722C224.929 41.3722 224.103 42.1956 224.103 43.2147C224.103 44.2309 224.926 45.0571 225.946 45.0571C226.962 45.0571 227.788 44.2338 227.788 43.2147C227.788 42.1956 226.965 41.3722 225.946 41.3722ZM219.675 46.2893C217.254 46.2893 215.288 48.2527 215.288 50.6767C215.288 53.0978 217.251 55.064 219.675 55.064C222.097 55.064 224.063 53.1007 224.063 50.6767C224.06 48.2527 222.097 46.2893 219.675 46.2893ZM264.338 59.7048C263.02 59.7048 261.951 60.7728 261.951 62.0913C261.951 63.4098 263.02 64.4779 264.338 64.4779C265.657 64.4779 266.725 63.4098 266.725 62.0913C266.725 60.7728 265.654 59.7048 264.338 59.7048ZM269.221 43.2147C266.327 43.2147 263.984 45.5581 263.984 48.4513C263.984 51.3446 266.327 53.6879 269.221 53.6879C272.114 53.6879 274.457 51.3446 274.457 48.4513C274.457 45.5581 272.114 43.2147 269.221 43.2147ZM291.56 45.0312C290.262 45.0312 289.208 46.0849 289.208 47.3833C289.208 48.6816 290.262 49.7353 291.56 49.7353C292.859 49.7353 293.913 48.6816 293.913 47.3833C293.913 46.082 292.859 45.0312 291.56 45.0312ZM278.934 16.0613C277.751 16.0613 276.789 17.02 276.789 18.2061C276.789 19.3893 277.748 20.3508 278.934 20.3508C280.117 20.3508 281.079 19.3921 281.079 18.2061C281.079 17.02 280.12 16.0613 278.934 16.0613ZM274.256 76.31C272.065 76.31 270.291 78.0863 270.291 80.2742C270.291 82.465 272.068 84.2384 274.256 84.2384C276.446 84.2384 278.22 82.4621 278.22 80.2742C278.22 78.0863 276.446 76.31 274.256 76.31ZM260.918 10.6289C260.4 10.6289 259.979 11.0492 259.979 11.5674C259.979 12.0856 260.4 12.5059 260.918 12.5059C261.436 12.5059 261.856 12.0856 261.856 11.5674C261.856 11.0492 261.436 10.6289 260.918 10.6289ZM266.589 20.5034C264.263 20.5034 262.378 22.389 262.378 24.7151C262.378 27.0413 264.263 28.924 266.589 28.924C268.915 28.924 270.801 27.0384 270.801 24.7151C270.798 22.389 268.915 20.5034 266.589 20.5034ZM279.829 46.8852C278.799 46.8852 277.964 47.7201 277.964 48.7507C277.964 49.7813 278.799 50.6162 279.829 50.6162C280.86 50.6162 281.695 49.7813 281.695 48.7507C281.692 47.7201 280.857 46.8852 279.829 46.8852Z" fill="#F8C3FF"/>
<g opacity="0.2">
<path opacity="0.5" d="M266.247 20.9693C268.573 20.9693 270.459 22.855 270.459 25.1811C270.459 26.0131 270.214 26.7875 269.797 27.441C270.421 26.7069 270.801 25.7568 270.801 24.7147C270.801 22.3886 268.916 20.5029 266.59 20.5029C265.098 20.5029 263.788 21.2802 263.043 22.4519C263.814 21.5451 264.963 20.9693 266.247 20.9693Z" fill="#F8C3FF"/>
<path opacity="0.5" d="M269.192 13.2877C270.847 13.2877 272.186 14.6293 272.186 16.2817C272.186 16.8431 272.031 17.3642 271.763 17.8133C272.238 17.2836 272.529 16.584 272.529 15.8182C272.529 14.1629 271.187 12.8242 269.535 12.8242C268.441 12.8242 267.488 13.4115 266.964 14.2867C267.514 13.6764 268.305 13.2877 269.192 13.2877Z" fill="#F8C3FF"/>
<path opacity="0.5" d="M260.578 11.0914C261.097 11.0914 261.517 11.5117 261.517 12.0299C261.517 12.1336 261.497 12.2343 261.465 12.3293C261.704 12.1595 261.859 11.8831 261.859 11.5664C261.859 11.0482 261.439 10.6279 260.921 10.6279C260.506 10.6279 260.161 10.8985 260.034 11.2699C260.187 11.1576 260.374 11.0914 260.578 11.0914Z" fill="#F8C3FF"/>
<path opacity="0.5" d="M251.493 15.2046C256.067 15.2046 259.775 18.9126 259.775 23.4871C259.775 25.5714 259.004 27.4714 257.734 28.9281C259.473 27.411 260.576 25.177 260.576 22.6868C260.576 18.1123 256.868 14.4043 252.293 14.4043C249.803 14.4043 247.572 15.504 246.052 17.2457C247.506 15.9762 249.409 15.2046 251.493 15.2046Z" fill="#F8C3FF"/>
<path opacity="0.5" d="M259.951 34.7349C259.951 33.163 258.676 31.8877 257.104 31.8877C256.059 31.8877 255.149 32.452 254.654 33.2926C255.175 32.7168 255.926 32.3541 256.764 32.3541C258.336 32.3541 259.611 33.6294 259.611 35.2013C259.611 35.7281 259.464 36.2204 259.217 36.6436C259.669 36.1369 259.951 35.4719 259.951 34.7349Z" fill="#F8C3FF"/>
<path opacity="0.5" d="M281.692 48.7503C281.692 47.7196 280.857 46.8848 279.827 46.8848C279.107 46.8848 278.485 47.2936 278.174 47.8895C278.511 47.5555 278.975 47.3511 279.484 47.3511C280.515 47.3511 281.35 48.186 281.35 49.2166C281.35 49.5275 281.272 49.8183 281.139 50.0774C281.482 49.7377 281.692 49.2685 281.692 48.7503Z" fill="#F8C3FF"/>
<path opacity="0.5" d="M289.508 46.2355C289.937 45.7807 290.545 45.4928 291.218 45.4928C292.517 45.4928 293.57 46.5465 293.57 47.8448C293.57 48.2594 293.461 48.6509 293.271 48.9906C293.668 48.5703 293.91 48.0031 293.91 47.3813C293.91 46.083 292.856 45.0293 291.558 45.0293C290.677 45.0293 289.911 45.5158 289.508 46.2355Z" fill="#F8C3FF"/>
<path opacity="0.5" d="M278.594 16.524C279.778 16.524 280.739 17.4827 280.739 18.6688C280.739 19.0373 280.644 19.3856 280.48 19.6908C280.851 19.305 281.079 18.7839 281.079 18.2053C281.079 17.0221 280.12 16.0605 278.934 16.0605C278.119 16.0605 277.411 16.5154 277.048 17.1833C277.44 16.7774 277.987 16.524 278.594 16.524Z" fill="#F8C3FF"/>
<path opacity="0.5" d="M269.221 43.2129C267.393 43.2129 265.783 44.1514 264.848 45.5735C265.809 44.4162 267.257 43.6793 268.878 43.6793C271.771 43.6793 274.115 46.0227 274.115 48.9159C274.115 49.9782 273.795 50.9685 273.251 51.7919C274.003 50.885 274.457 49.722 274.457 48.4495C274.457 45.5563 272.114 43.2129 269.221 43.2129Z" fill="#F8C3FF"/>
<path opacity="0.5" d="M280.722 25.6089C286.091 25.6089 290.441 29.9617 290.441 35.3279C290.441 37.8095 289.511 40.0694 287.982 41.7881C289.98 40.0089 291.241 37.4151 291.241 34.5276C291.241 29.1585 286.889 24.8086 281.522 24.8086C278.635 24.8086 276.044 26.0695 274.262 28.0675C275.981 26.5388 278.243 25.6089 280.722 25.6089Z" fill="#F8C3FF"/>
<path opacity="0.5" d="M256.044 45.2625C256.044 38.7188 250.739 33.4131 244.195 33.4131C240.72 33.4131 237.594 34.9101 235.426 37.2938C237.53 35.3793 240.326 34.2134 243.395 34.2134C249.938 34.2134 255.244 39.5191 255.244 46.0628C255.244 49.1316 254.078 51.927 252.164 54.0314C254.547 51.8637 256.044 48.7401 256.044 45.2625Z" fill="#F8C3FF"/>
<path opacity="0.5" d="M264.338 59.7031C263.443 59.7031 262.666 60.1954 262.257 60.9238C262.692 60.4603 263.308 60.1695 263.996 60.1695C265.314 60.1695 266.382 61.2376 266.382 62.5561C266.382 62.9793 266.27 63.3765 266.077 63.722C266.477 63.2959 266.725 62.723 266.725 62.0926C266.722 60.7712 265.654 59.7031 264.338 59.7031Z" fill="#F8C3FF"/>
<path opacity="0.5" d="M227.552 55.7773C224.76 55.7773 222.252 57.0009 220.534 58.9383C222.189 57.4701 224.365 56.5777 226.752 56.5777C231.934 56.5777 236.131 60.7779 236.131 65.957C236.131 68.3436 235.239 70.52 233.771 72.1753C235.708 70.4566 236.932 67.9491 236.932 65.1567C236.932 59.9776 232.731 55.7773 227.552 55.7773Z" fill="#F8C3FF"/>
<path opacity="0.5" d="M237.286 27.3107C237.766 26.7867 238.454 26.4557 239.223 26.4557C240.677 26.4557 241.857 27.636 241.857 29.0898C241.857 29.5677 241.728 30.0168 241.503 30.4055C241.935 29.9362 242.2 29.3144 242.2 28.6263C242.2 27.1725 241.02 25.9922 239.566 25.9922C238.59 25.9922 237.741 26.5219 237.286 27.3107Z" fill="#F8C3FF"/>
<path opacity="0.5" d="M274.256 76.3086C272.845 76.3086 271.607 77.0485 270.905 78.1597C271.633 77.3104 272.71 76.7721 273.913 76.7721C276.104 76.7721 277.878 78.5483 277.878 80.7363C277.878 81.5136 277.65 82.239 277.262 82.8494C277.857 82.1555 278.217 81.2573 278.217 80.2699C278.22 78.0849 276.447 76.3086 274.256 76.3086Z" fill="#F8C3FF"/>
<path opacity="0.5" d="M282.875 52.5664C279.691 52.5664 276.827 53.9454 274.852 56.1391C276.766 54.4146 279.297 53.3638 282.078 53.3638C288.043 53.3638 292.876 58.1974 292.876 64.1624C292.876 66.9405 291.826 69.4739 290.101 71.3884C292.295 69.4106 293.674 66.549 293.674 63.365C293.674 57.4 288.837 52.5664 282.875 52.5664Z" fill="#F8C3FF"/>
<path opacity="0.5" d="M255.017 67.0703C251.738 67.0703 248.793 68.4867 246.754 70.7409C248.729 68.956 251.346 67.8678 254.216 67.8678C260.365 67.8678 265.352 72.8539 265.352 79.0032C265.352 81.8734 264.263 84.4903 262.479 86.4652C264.733 84.4269 266.149 81.4819 266.149 78.2028C266.152 72.0565 261.166 67.0703 255.017 67.0703Z" fill="#F8C3FF"/>
<path opacity="0.5" d="M236.511 14.8707C238.431 14.8707 239.986 16.4253 239.986 18.3455C239.986 19.0134 239.793 19.6352 239.468 20.1649C240.003 19.5546 240.329 18.7572 240.329 17.882C240.329 15.9618 238.774 14.4072 236.854 14.4072C235.601 14.4072 234.51 15.0694 233.897 16.0626C234.533 15.3342 235.466 14.8707 236.511 14.8707Z" fill="#F8C3FF"/>
<path opacity="0.5" d="M224.976 23.355C229.176 23.355 232.579 26.7578 232.579 30.9581C232.579 32.8552 231.882 34.5854 230.736 35.9183C232.354 34.525 233.379 32.4608 233.379 30.1577C233.379 25.9575 229.976 22.5547 225.776 22.5547C223.473 22.5547 221.412 23.5796 220.016 25.1975C221.346 24.0488 223.079 23.355 224.976 23.355Z" fill="#F8C3FF"/>
<path opacity="0.5" d="M219.333 46.7565C221.754 46.7565 223.721 48.7198 223.721 51.1438C223.721 52.0161 223.461 52.828 223.024 53.5103C223.672 52.7474 224.063 51.7599 224.063 50.6803C224.063 48.2592 222.1 46.293 219.676 46.293C218.127 46.293 216.768 47.099 215.988 48.3139C216.791 47.361 217.989 46.7565 219.333 46.7565Z" fill="#F8C3FF"/>
<path opacity="0.5" d="M227.788 43.2136C227.788 42.1973 226.965 41.3711 225.946 41.3711C225.235 41.3711 224.619 41.7741 224.311 42.3672C224.645 42.039 225.1 41.8375 225.603 41.8375C226.62 41.8375 227.446 42.6608 227.446 43.6799C227.446 43.9851 227.371 44.273 227.239 44.5263C227.578 44.1895 227.788 43.726 227.788 43.2136Z" fill="#F8C3FF"/>
</g>
<path opacity="0.5" d="M230.077 74.5053C213.757 58.185 212.735 32.3617 227.011 14.8496C225.842 15.8025 224.708 16.8245 223.617 17.9156C206.206 35.3269 206.206 63.5541 223.617 80.9654C241.028 98.3767 269.255 98.3767 286.667 80.9654C287.758 79.8743 288.78 78.7429 289.733 77.5712C272.223 91.8475 246.397 90.8255 230.077 74.5053Z" fill="url(#paint7_linear)"/>
<path d="M333.68 66.4684C340.161 66.4684 345.415 61.2148 345.415 54.7342C345.415 48.2536 340.161 43 333.68 43C327.2 43 321.946 48.2536 321.946 54.7342C321.946 61.2148 327.2 66.4684 333.68 66.4684Z" fill="url(#paint8_radial)"/>
<g opacity="0.5">
<path opacity="0.5" d="M325.559 56.1912C326.786 55.9091 328.064 55.8544 329.307 56.0358C329.621 56.0818 329.944 56.1423 330.255 56.0732C330.565 56.0041 330.862 55.7623 330.885 55.4456C330.92 54.9188 330.263 54.6539 329.736 54.6136C328.202 54.4927 326.682 54.8957 325.196 55.2959C324.252 55.5492 322.859 55.6385 322.156 56.3784C322.13 56.4071 322.102 56.4359 322.076 56.4676C322.13 56.8418 322.205 57.2103 322.294 57.5731C322.764 57.4435 323.414 56.9368 323.768 56.7814C324.344 56.5281 324.946 56.3294 325.559 56.1912Z" fill="url(#paint9_linear)"/>
<path opacity="0.5" d="M329.944 62.7219C331.74 62.1346 332.612 60.0417 334.282 59.1608C336.113 58.1964 338.632 58.8355 340.164 57.4421C340.938 56.7368 341.275 55.6486 342.061 54.9548C342.959 54.166 344.24 54.0537 345.357 53.6132C345.164 51.5721 344.447 49.6807 343.345 48.0801C343.195 48.4371 343.077 48.8084 342.993 49.1683C342.662 50.5876 342.441 52.2112 341.26 53.0662C339.346 54.4567 336.266 52.8273 334.438 54.3301C333.603 55.0181 333.283 56.1956 332.425 56.8577C331.518 57.5573 330.243 57.4997 329.123 57.2636C328 57.0276 326.872 56.6475 325.738 56.8116C324.776 56.9498 323.918 57.468 323.046 57.8998C322.856 57.9949 322.657 58.0841 322.459 58.1676C322.902 59.6185 323.622 60.9486 324.552 62.1001C325.349 62.1462 326.135 62.3822 326.915 62.5837C327.908 62.8428 328.971 63.0415 329.944 62.7219Z" fill="url(#paint10_linear)"/>
<path opacity="0.5" d="M338.214 51.0442C337.745 51.1594 337.25 51.2083 336.821 51.4357C336.395 51.6631 336.047 52.1468 336.179 52.6132C337.285 53.2926 338.782 52.9989 339.824 52.2303C340.869 51.4616 341.548 50.3043 342.147 49.1528C342.42 48.6288 342.685 48.0963 342.976 47.5809C342.642 47.1491 342.282 46.7403 341.891 46.3574C341.778 46.8756 341.704 47.4053 341.545 47.912C341.07 49.432 339.76 50.6613 338.214 51.0442Z" fill="url(#paint11_linear)"/>
<path opacity="0.5" d="M323.213 49.4324C323.354 49.4439 323.498 49.4554 323.639 49.4669C324.517 49.5274 325.499 49.4554 326.112 48.825C326.693 48.229 326.981 47.1466 327.813 47.1351C328.47 47.1235 328.953 47.8605 329.61 47.8577C330.729 47.8519 330.853 45.9259 331.933 45.6265C332.592 45.4423 333.355 45.972 333.951 45.6323C334.46 45.3444 334.492 44.6276 334.812 44.1353C335.105 43.6862 335.615 43.4645 336.124 43.2572C335.373 43.0989 334.596 43.0125 333.798 43.0039C333.747 43.073 333.695 43.145 333.637 43.2112C333.125 43.81 332.442 43.8877 331.798 44.2332C331.225 44.5412 330.842 45.1314 330.2 45.33C329.267 45.6179 328.233 44.8176 327.332 45.3991C326.88 45.6928 326.656 46.2916 326.155 46.4873C325.887 46.5938 325.611 46.5593 325.332 46.4844C324.485 47.3481 323.766 48.3413 323.213 49.4324Z" fill="url(#paint12_linear)"/>
<path opacity="0.5" d="M337.947 45.4416C337.846 46.3945 337.662 47.4338 336.922 48.0441C335.822 48.9509 334.112 48.4299 332.822 49.0315C331.464 49.6649 330.824 51.4152 329.394 51.8614C327.756 52.3739 326.057 50.8913 324.367 51.1878C323.613 51.3202 322.968 51.7866 322.254 52.0687C322.055 52.9266 321.946 53.8162 321.946 54.7345C321.946 54.8843 321.952 55.0311 321.958 55.1808C322.597 55.224 323.233 55.2585 323.832 55.0541C324.718 54.7518 325.378 53.9688 326.267 53.6665C327.943 53.0994 329.906 54.3977 331.492 53.6118C332.819 52.9554 333.3 51.0726 334.722 50.661C335.615 50.4019 336.628 50.8251 337.486 50.4594C338.307 50.1111 338.687 49.164 338.856 48.2888C339.026 47.4136 339.087 46.4751 339.585 45.7381C339.769 45.4646 340.005 45.2343 340.241 45.004C339.605 44.5722 338.92 44.2037 338.203 43.9043C338.059 44.3966 338.001 44.932 337.947 45.4416Z" fill="url(#paint13_linear)"/>
<path opacity="0.5" d="M339.343 63.9254C338.451 64.458 337.725 65.2036 337.026 65.978C338.793 65.454 340.382 64.5242 341.695 63.2978C340.886 63.2805 340.037 63.5108 339.343 63.9254Z" fill="url(#paint14_linear)"/>
<path opacity="0.5" d="M328.412 50.4455C329.42 50.2468 330.171 49.435 331.026 48.8678C331.798 48.3554 332.693 48.0301 333.614 47.9236C333.888 47.8919 334.173 47.8775 334.42 47.7624C334.671 47.6472 334.881 47.3939 334.852 47.1175C334.818 46.821 334.51 46.6166 334.21 46.5993C333.911 46.582 333.626 46.7029 333.355 46.8296C332.411 47.2643 331.498 47.7624 330.623 48.318C330.278 48.5368 329.817 49.0003 329.414 49.0694C328.927 49.15 328.487 48.7844 327.954 48.983C327.459 49.1672 327.131 49.8524 327.488 50.2439C327.713 50.4858 328.09 50.5088 328.412 50.4455Z" fill="url(#paint15_linear)"/>
<path opacity="0.5" d="M345.273 55.9693C344.64 56.2312 344.182 56.7897 343.765 57.3339C343.347 57.878 342.924 58.4537 342.317 58.7733C341.525 59.1907 340.555 59.1101 339.74 59.4786C337.95 60.2876 337.57 62.8756 335.816 63.7594C334.394 64.4763 332.681 63.7882 331.098 63.9639C330.047 64.079 329.094 64.5713 328.164 65.0895C328.996 65.5328 329.889 65.8812 330.827 66.1144C330.977 66.0712 331.127 66.0395 331.276 66.0194C332.039 65.9272 332.814 66.0568 333.574 65.956C334.846 65.7862 335.937 65.0031 336.971 64.2431C338.528 63.0944 340.089 61.9486 341.646 60.8C342.527 60.1522 343.422 59.4959 344.444 59.1072C344.493 59.09 344.539 59.0727 344.588 59.0554C344.977 58.0766 345.239 57.0316 345.351 55.9434C345.325 55.952 345.299 55.9578 345.273 55.9693Z" fill="url(#paint16_linear)"/>
</g>
<path d="M343.008 47.6129C343.29 47.9814 343.549 48.37 343.788 48.7788C345.438 48.5226 346.509 48.6176 346.724 49.1185C346.94 49.6195 346.272 50.4601 344.954 51.4821C342.858 53.1058 339.119 55.1901 334.697 57.0959C330.275 58.9988 326.192 60.2856 323.573 60.6915C321.923 60.9478 320.855 60.8556 320.636 60.3547C320.417 59.8538 321.088 59.0103 322.407 57.9883C322.274 57.5334 322.171 57.0786 322.096 56.6208C315.587 60.0265 311.447 62.9745 311.933 64.103C312.42 65.2315 317.403 64.2498 324.35 61.8575C327.554 60.7578 331.173 59.3529 334.961 57.7234C338.75 56.0911 342.256 54.4243 345.259 52.8524C351.768 49.4467 355.908 46.5017 355.421 45.3732C354.941 44.2418 349.955 45.2235 343.008 47.6129Z" fill="url(#paint17_linear)"/>
<path d="M252.495 52.8105L164.194 158.47L146 140.843L252.495 52.8105Z" fill="url(#paint18_linear)"/>
<path d="M249.256 43.748C249.256 43.748 236.529 44.6434 236.27 44.9917C236.01 45.3372 214.051 73.5183 214.051 73.5183L238.42 57.0685L249.256 43.748Z" fill="url(#paint19_linear)"/>
<path d="M261.554 56.0488C261.554 56.0488 260.659 68.7762 260.311 69.0353C259.965 69.2944 231.784 91.2543 231.784 91.2543L248.234 66.8848L261.554 56.0488Z" fill="url(#paint20_linear)"/>
<path d="M237.968 67.3358L233.759 63.127L229.435 68.6141C229.311 68.7695 229.326 68.9941 229.467 69.1351L232.818 72.4861L236.169 75.8371C236.31 75.9782 236.534 75.9926 236.69 75.8688L242.177 71.5447L237.968 67.3358Z" fill="url(#paint21_linear)"/>
<g opacity="0.4">
<path opacity="0.4" d="M236.16 69.1434L232.164 65.1504L231.422 66.0947L235.317 69.9897L239.209 73.882L240.153 73.1392L236.16 69.1434Z" fill="#5A0489"/>
<path opacity="0.4" d="M237.968 67.3339L233.759 63.125L233.034 64.0462L237.145 68.1572L241.256 72.2682L242.177 71.5428L237.968 67.3339Z" fill="#5A0489"/>
<path opacity="0.4" d="M230.598 67.1387L229.852 68.0829L233.537 71.765L237.219 75.4499L238.164 74.7072L234.381 70.9215L230.598 67.1387Z" fill="#5A0489"/>
</g>
<path opacity="0.2" d="M260.838 65.0256L259.689 66.1743C259.674 66.1887 259.657 66.1944 259.637 66.1944C259.626 66.1944 259.617 66.1916 259.605 66.1887C259.577 66.1772 259.562 66.1455 259.565 66.1167L260.247 59.3888C260.25 59.3715 260.256 59.3571 260.267 59.3456L261.396 58.2171C261.39 58.2891 261.384 58.3639 261.379 58.4359L260.388 59.4262L259.729 65.9296L260.858 64.8011C260.852 64.8759 260.843 64.9508 260.838 65.0256ZM221.19 68.6962L239.45 44.5426C239.384 44.5483 239.321 44.5541 239.255 44.5627L236.37 48.3801L233.546 48.4923C233.509 48.5413 233.471 48.5902 233.431 48.642L234.51 48.5989L229.757 54.656H228.744C228.707 54.7049 228.669 54.751 228.632 54.7999H229.792C229.815 54.7999 229.835 54.7884 229.85 54.7711L234.674 48.619C234.68 48.6104 234.68 48.5989 234.683 48.5902L236.258 48.5269L220.821 68.9437L221.19 68.6962ZM254.069 68.3795C254.087 68.3507 254.089 68.3161 254.064 68.2902C254.061 68.2874 254.055 68.2874 254.052 68.2845L253.042 62.9759L252.915 63.0795L253.917 68.3392L237.467 84.789C237.438 84.8177 237.438 84.8638 237.467 84.8897L238.558 85.9808C238.595 85.952 238.633 85.9203 238.673 85.8916L237.622 84.8408L253.954 68.509L254.864 73.2793C254.907 73.2447 254.95 73.2131 254.991 73.1814L254.069 68.3795ZM245.571 44.0215C245.505 44.0272 245.441 44.033 245.375 44.0359L240.599 50.0383C240.579 50.0613 240.579 50.093 240.593 50.1189C240.605 50.1419 240.631 50.1534 240.654 50.1534C240.66 50.1534 240.662 50.1534 240.668 50.1534L244.647 49.4107L244.788 49.238L240.832 49.9778L245.571 44.0215Z" fill="#871EAB"/>
<path d="M291.356 29.6992C293.205 25.879 295.073 10.2295 295.073 10.2295C295.073 10.2295 279.424 12.0979 275.603 13.9461C271.953 15.7108 236.151 58.9599 232.956 62.8262C232.826 62.9816 232.838 63.212 232.982 63.3559L237.464 67.8383L241.947 72.3206C242.091 72.4646 242.318 72.4761 242.476 72.3466C246.343 69.151 289.592 33.3496 291.356 29.6992Z" fill="url(#paint22_linear)"/>
<path opacity="0.1" d="M248.81 48.5159C248.752 48.4641 248.747 48.3777 248.798 48.3201C248.85 48.2626 248.937 48.2568 248.994 48.3086C249.052 48.3604 249.057 48.4468 249.006 48.5044C248.954 48.5591 248.865 48.5648 248.81 48.5159ZM249.599 47.825C249.65 47.7674 249.645 47.681 249.587 47.6292C249.53 47.5774 249.443 47.5831 249.391 47.6407C249.34 47.6983 249.345 47.7847 249.403 47.8365C249.46 47.8883 249.55 47.8825 249.599 47.825ZM250.195 47.1484C250.246 47.0909 250.241 47.0045 250.183 46.9527C250.125 46.9009 250.039 46.9066 249.987 46.9642C249.935 47.0218 249.941 47.1081 249.999 47.16C250.056 47.2118 250.146 47.206 250.195 47.1484ZM248.41 49.1809C248.462 49.1233 248.456 49.037 248.398 48.9851C248.341 48.9333 248.254 48.9391 248.202 48.9967C248.151 49.0542 248.156 49.1406 248.214 49.1924C248.272 49.2442 248.358 49.2385 248.41 49.1809ZM247.218 50.5368C247.27 50.4793 247.264 50.3929 247.206 50.3411C247.149 50.2893 247.062 50.295 247.011 50.3526C246.959 50.4102 246.965 50.4965 247.022 50.5484C247.08 50.5973 247.166 50.5915 247.218 50.5368ZM252.578 44.4366C252.63 44.379 252.624 44.2926 252.567 44.2408C252.509 44.189 252.423 44.1947 252.371 44.2523C252.319 44.3099 252.325 44.3962 252.383 44.4481C252.44 44.4999 252.529 44.4941 252.578 44.4366ZM253.174 43.76C253.226 43.7024 253.22 43.6161 253.163 43.5643C253.105 43.5124 253.019 43.5182 252.967 43.5758C252.915 43.6334 252.921 43.7197 252.978 43.7715C253.036 43.8234 253.125 43.8176 253.174 43.76ZM251.386 45.7925C251.438 45.7349 251.432 45.6486 251.375 45.5967C251.317 45.5449 251.231 45.5507 251.179 45.6082C251.127 45.6658 251.133 45.7522 251.191 45.804C251.248 45.8558 251.337 45.8501 251.386 45.7925ZM251.982 45.1131C252.034 45.0555 252.028 44.9691 251.971 44.9173C251.913 44.8655 251.827 44.8713 251.775 44.9288C251.723 44.9864 251.729 45.0728 251.787 45.1246C251.844 45.1764 251.933 45.1707 251.982 45.1131ZM250.791 46.469C250.842 46.4114 250.837 46.3251 250.779 46.2733C250.721 46.2214 250.635 46.2272 250.583 46.2848C250.531 46.3424 250.537 46.4287 250.595 46.4805C250.652 46.5324 250.742 46.5266 250.791 46.469ZM243.642 54.6018C243.694 54.5442 243.688 54.4578 243.631 54.406C243.573 54.3542 243.487 54.36 243.435 54.4175C243.383 54.4751 243.389 54.5615 243.447 54.6133C243.504 54.6651 243.59 54.6594 243.642 54.6018ZM244.238 53.9224C244.29 53.8648 244.284 53.7784 244.227 53.7266C244.169 53.6748 244.083 53.6806 244.031 53.7381C243.979 53.7957 243.985 53.8821 244.042 53.9339C244.1 53.9857 244.186 53.98 244.238 53.9224ZM246.622 51.2134C246.674 51.1558 246.668 51.0694 246.61 51.0176C246.553 50.9658 246.466 50.9716 246.415 51.0291C246.363 51.0867 246.369 51.1731 246.426 51.2249C246.484 51.2767 246.57 51.271 246.622 51.2134ZM259.891 36.2606C259.94 36.203 259.934 36.1138 259.876 36.0648C259.819 36.0159 259.729 36.0217 259.68 36.0792C259.631 36.1368 259.637 36.2261 259.695 36.275C259.755 36.3239 259.842 36.3182 259.891 36.2606ZM242.439 55.762C242.381 55.7102 242.295 55.7159 242.243 55.7735C242.191 55.8311 242.197 55.9174 242.255 55.9692C242.312 56.0211 242.399 56.0153 242.45 55.9577C242.502 55.9002 242.497 55.8109 242.439 55.762ZM293.562 20.6284C293.547 20.7148 293.533 20.8011 293.516 20.8904L292.672 20.0469C292.367 21.3021 290.686 28.2286 290.49 28.7871C290.352 29.1815 284.367 34.7607 279.665 39.102L280.607 40.0434C280.552 40.0924 280.497 40.1384 280.446 40.1874L279.507 39.2489C277.069 41.5001 274.999 43.3973 274.322 44.0162L275.131 44.8252C275.077 44.8713 275.022 44.9202 274.967 44.9663L262.26 32.259L235.42 62.5071C235.4 62.5302 235.371 62.5417 235.343 62.5446H235.34C235.311 62.5446 235.285 62.533 235.262 62.5129L234.142 61.393C234.188 61.3354 234.231 61.2836 234.28 61.226L235.334 62.2797L262.104 32.1064L260.337 30.3388C260.383 30.2841 260.432 30.2294 260.478 30.1747L274.17 43.8665C275.79 42.3839 277.613 40.7084 279.432 39.0272V39.0243H279.435C284.781 34.0842 290.116 29.0894 290.286 28.718C290.484 28.1537 292.318 20.591 292.491 19.8713L284.413 11.7932C284.499 11.7788 284.585 11.7644 284.675 11.7471L286.088 13.1607L294.255 10.4114C294.313 10.3912 294.373 10.4229 294.394 10.4805C294.414 10.538 294.382 10.5985 294.325 10.6186L289.502 12.2423L290.334 13.0743C290.36 13.1002 290.372 13.1348 290.363 13.1693C290.357 13.2038 290.334 13.2326 290.303 13.247L287.496 14.5713L293.562 20.6284ZM287.335 14.4043L290.072 13.1146L289.272 12.3143L286.258 13.3305L287.335 14.4043ZM243.046 55.2783C243.098 55.2207 243.092 55.1344 243.035 55.0826C242.977 55.0307 242.891 55.0365 242.839 55.0941C242.787 55.1517 242.793 55.238 242.851 55.2898C242.908 55.3417 242.997 55.3359 243.046 55.2783ZM246.026 51.8899C246.078 51.8323 246.072 51.746 246.014 51.6941C245.957 51.6423 245.871 51.6481 245.819 51.7057C245.767 51.7632 245.773 51.8496 245.83 51.9014C245.888 51.9532 245.974 51.9475 246.026 51.8899ZM244.834 53.2458C244.886 53.1883 244.88 53.1019 244.823 53.0501C244.765 52.9983 244.679 53.004 244.627 53.0616C244.575 53.1192 244.581 53.2055 244.638 53.2574C244.696 53.3092 244.782 53.3034 244.834 53.2458ZM246.32 56.5479L250.292 52.5751C250.333 52.5348 250.405 52.5348 250.445 52.5751L252.639 54.7688C252.682 54.8119 252.682 54.8782 252.639 54.9213L248.666 58.8942C248.646 58.9143 248.617 58.9258 248.588 58.9258C248.559 58.9258 248.531 58.9143 248.51 58.8942L246.317 56.7005C246.276 56.6602 246.276 56.5911 246.32 56.5479ZM246.547 56.6256L248.588 58.6667L252.408 54.8465L250.367 52.8054L246.547 56.6256ZM245.43 52.5693C245.482 52.5117 245.476 52.4254 245.419 52.3736C245.361 52.3217 245.275 52.3275 245.223 52.3851C245.171 52.4426 245.177 52.529 245.234 52.5808C245.292 52.6327 245.378 52.6269 245.43 52.5693ZM247.814 49.8574C247.866 49.7999 247.86 49.7135 247.802 49.6617C247.745 49.6099 247.658 49.6156 247.606 49.6732C247.555 49.7308 247.56 49.8171 247.618 49.869C247.676 49.9208 247.762 49.915 247.814 49.8574ZM268.875 22.5803C268.896 22.5976 268.922 22.6091 268.947 22.6091C268.947 22.6091 268.95 22.6091 268.953 22.6091C268.982 22.6091 269.008 22.5947 269.028 22.5745L273.971 17.168C274.011 17.1248 274.008 17.0586 273.968 17.0183L273.099 16.1489C273.047 16.2007 272.998 16.2497 272.946 16.3015L273.744 17.0989L268.945 22.3471L268.072 21.5381C268.023 21.5928 267.977 21.6447 267.928 21.6994L268.875 22.5803ZM283.92 12.4064L283.497 12.8296C283.414 12.9131 283.414 13.0455 283.497 13.129C283.581 13.2125 283.713 13.2125 283.797 13.129L284.22 12.7058C284.303 12.6223 284.303 12.4899 284.22 12.4064C284.136 12.3229 284.004 12.3229 283.92 12.4064ZM240.663 57.9902C240.715 57.9326 240.709 57.8463 240.651 57.7944C240.594 57.7426 240.507 57.7484 240.455 57.806C240.404 57.8635 240.409 57.9499 240.467 58.0017C240.525 58.0535 240.614 58.0478 240.663 57.9902ZM284.824 14.1539L285.248 13.7307C285.331 13.6472 285.331 13.5148 285.248 13.4313C285.164 13.3478 285.032 13.3478 284.948 13.4313L284.525 13.8545C284.441 13.938 284.441 14.0704 284.525 14.1539C284.608 14.2374 284.741 14.2374 284.824 14.1539ZM241.259 57.3108C241.31 57.2532 241.305 57.1668 241.247 57.115C241.19 57.0632 241.103 57.069 241.051 57.1265C241 57.1841 241.005 57.2705 241.063 57.3223C241.12 57.3741 241.21 57.3684 241.259 57.3108ZM241.647 56.45C241.595 56.5076 241.601 56.594 241.659 56.6458C241.716 56.6976 241.803 56.6918 241.855 56.6343C241.906 56.5767 241.901 56.4903 241.843 56.4385C241.785 56.3867 241.696 56.3924 241.647 56.45ZM285.852 15.1816L286.275 14.7584C286.359 14.6749 286.359 14.5425 286.275 14.459C286.192 14.3755 286.059 14.3755 285.976 14.459L285.553 14.8822C285.469 14.9657 285.469 15.0981 285.553 15.1816C285.636 15.2651 285.769 15.2651 285.852 15.1816ZM286.88 16.2094L287.303 15.7862C287.387 15.7027 287.387 15.5703 287.303 15.4868C287.22 15.4033 287.087 15.4033 287.004 15.4868L286.58 15.91C286.497 15.9935 286.497 16.1259 286.58 16.2094C286.664 16.2929 286.796 16.2929 286.88 16.2094ZM290.988 20.3175L291.411 19.8943C291.495 19.8108 291.495 19.6784 291.411 19.5949C291.328 19.5114 291.195 19.5114 291.112 19.5949L290.689 20.0181C290.605 20.1016 290.605 20.234 290.689 20.3175C290.772 20.401 290.904 20.401 290.988 20.3175ZM289.96 19.2898L290.383 18.8666C290.467 18.7831 290.467 18.6506 290.383 18.5672C290.3 18.4837 290.167 18.4837 290.084 18.5672L289.661 18.9903C289.577 19.0738 289.577 19.2063 289.661 19.2898C289.744 19.3732 289.877 19.3732 289.96 19.2898ZM287.905 17.2371L288.328 16.8139C288.411 16.7304 288.411 16.598 288.328 16.5145C288.244 16.431 288.112 16.431 288.029 16.5145L287.605 16.9377C287.522 17.0212 287.522 17.1536 287.605 17.2371C287.689 17.3177 287.824 17.3177 287.905 17.2371ZM288.932 18.2649L289.356 17.8417C289.439 17.7582 289.439 17.6258 289.356 17.5423C289.272 17.4588 289.14 17.4588 289.056 17.5423L288.633 17.9655C288.55 18.049 288.55 18.1814 288.633 18.2649C288.717 18.3455 288.852 18.3455 288.932 18.2649ZM261.667 34.2195C261.716 34.1619 261.71 34.0727 261.652 34.0237C261.595 33.9748 261.506 33.9805 261.457 34.0381C261.408 34.0957 261.413 34.1849 261.471 34.2339C261.529 34.2828 261.618 34.2771 261.667 34.2195ZM235.302 64.0876C235.354 64.03 235.348 63.9437 235.291 63.8919C235.233 63.84 235.147 63.8458 235.095 63.9034C235.043 63.961 235.049 64.0473 235.107 64.0991C235.164 64.151 235.25 64.1452 235.302 64.0876ZM236.494 62.7317C236.546 62.6741 236.54 62.5877 236.483 62.5359C236.425 62.4841 236.339 62.4899 236.287 62.5474C236.235 62.605 236.241 62.6914 236.298 62.7432C236.356 62.795 236.442 62.7893 236.494 62.7317ZM235.898 63.4111C235.95 63.3535 235.944 63.2671 235.887 63.2153C235.829 63.1635 235.743 63.1693 235.691 63.2268C235.639 63.2844 235.645 63.3708 235.702 63.4226C235.76 63.4744 235.846 63.4687 235.898 63.4111ZM261.077 34.8989C261.126 34.8413 261.12 34.7521 261.062 34.7031C261.005 34.6542 260.915 34.66 260.867 34.7175C260.818 34.7751 260.823 34.8644 260.881 34.9133C260.938 34.9622 261.025 34.9565 261.077 34.8989ZM260.484 35.5812C260.533 35.5236 260.527 35.4344 260.469 35.3854C260.412 35.3365 260.322 35.3422 260.273 35.3998C260.225 35.4574 260.23 35.5466 260.288 35.5956C260.345 35.6445 260.435 35.6388 260.484 35.5812ZM238.282 60.6992C238.334 60.6416 238.328 60.5553 238.27 60.5034C238.213 60.4516 238.126 60.4574 238.075 60.515C238.023 60.5725 238.029 60.6589 238.086 60.7107C238.144 60.7625 238.23 60.7568 238.282 60.6992ZM239.471 59.3461C239.523 59.2886 239.517 59.2022 239.459 59.1504C239.402 59.0986 239.315 59.1043 239.264 59.1619C239.212 59.2195 239.218 59.3058 239.275 59.3577C239.333 59.4066 239.422 59.4037 239.471 59.3461ZM237.09 62.0551C237.142 61.9976 237.136 61.9112 237.079 61.8594C237.021 61.8076 236.935 61.8133 236.883 61.8709C236.831 61.9285 236.837 62.0148 236.894 62.0667C236.952 62.1185 237.038 62.1127 237.09 62.0551ZM238.878 60.0227C238.93 59.9651 238.924 59.8787 238.866 59.8269C238.809 59.7751 238.722 59.7809 238.671 59.8384C238.619 59.896 238.624 59.9824 238.682 60.0342C238.74 60.086 238.826 60.0802 238.878 60.0227ZM237.672 61.1829C237.614 61.131 237.528 61.1368 237.476 61.1944C237.424 61.2519 237.43 61.3383 237.487 61.3901C237.545 61.442 237.631 61.4362 237.683 61.3786C237.735 61.321 237.729 61.2318 237.672 61.1829ZM240.067 58.6667C240.119 58.6092 240.113 58.5228 240.055 58.471C239.998 58.4192 239.911 58.4249 239.859 58.4825C239.808 58.5401 239.813 58.6264 239.871 58.6783C239.929 58.7301 240.018 58.7243 240.067 58.6667Z" fill="#871EAB"/>
<path d="M240.553 73.1043L236.376 68.9271L232.198 64.7498C232.046 64.5973 231.795 64.6203 231.672 64.7959L231.381 65.2162C231.286 65.3544 231.303 65.5386 231.421 65.6567L235.535 69.7706L239.649 73.8844C239.767 74.0025 239.954 74.0198 240.089 73.9247L240.51 73.634C240.682 73.5073 240.706 73.2569 240.553 73.1043Z" fill="url(#paint23_linear)"/>
<path d="M238.52 74.6308L234.597 70.7069L230.673 66.783C230.52 66.6305 230.27 66.6535 230.146 66.8291L229.855 67.2494C229.76 67.3876 229.777 67.5718 229.895 67.6899L233.756 71.5504L237.617 75.411C237.735 75.529 237.922 75.5463 238.057 75.4513L238.477 75.1605C238.65 75.0367 238.673 74.7834 238.52 74.6308Z" fill="url(#paint24_linear)"/>
<path d="M255.756 35.6666L269.635 49.5456C269.808 49.3988 269.981 49.2491 270.154 49.1023L256.2 35.1484C256.053 35.3212 255.903 35.4939 255.756 35.6666Z" fill="url(#paint25_linear)"/>
<path d="M265.818 52.7982L252.506 39.4863C252.115 39.9469 251.726 40.4047 251.337 40.8624L264.442 53.967C264.9 53.5754 265.357 53.1868 265.818 52.7982Z" fill="url(#paint26_linear)"/>
<path d="M307.302 -2L294.454 10.1603L295.142 10.8483L307.302 -2Z" fill="url(#paint27_linear)"/>
<path d="M293.743 10.6069L294.696 11.5598C295.012 11.8764 295.528 11.8764 295.844 11.5598C296.161 11.2431 296.161 10.7278 295.844 10.4111L294.892 9.45821C294.575 9.14153 294.06 9.14153 293.743 9.45821C293.426 9.77488 293.426 10.2902 293.743 10.6069Z" fill="url(#paint28_linear)"/>
<path d="M281.643 23.7542C278.568 20.6796 273.579 20.6796 270.505 23.7542C267.43 26.8288 267.43 31.8179 270.505 34.8925C273.579 37.9671 278.568 37.9671 281.643 34.8925C284.718 31.815 284.718 26.8288 281.643 23.7542ZM280.166 33.4156C277.906 35.6755 274.242 35.6755 271.982 33.4156C269.722 31.1557 269.722 27.491 271.982 25.2311C274.242 22.9711 277.906 22.9711 280.166 25.2311C282.426 27.491 282.426 31.1557 280.166 33.4156Z" fill="url(#paint29_linear)"/>
<path d="M276.237 37.0373C280.587 37.0373 284.113 33.5108 284.113 29.1607C284.113 24.8106 280.587 21.2842 276.237 21.2842C271.887 21.2842 268.36 24.8106 268.36 29.1607C268.36 33.5108 271.887 37.0373 276.237 37.0373Z" fill="url(#paint30_linear)"/>
<path d="M276.237 34.947C279.432 34.947 282.023 32.3563 282.023 29.1605C282.023 25.9647 279.432 23.374 276.237 23.374C273.041 23.374 270.45 25.9647 270.45 29.1605C270.45 32.3563 273.041 34.947 276.237 34.947Z" fill="url(#paint31_radial)"/>
<path d="M280.353 25.0443C278.094 22.7844 274.403 22.8103 272.143 25.0702C272.114 25.099 272.091 25.1278 272.065 25.1566C274.331 22.9773 277.932 23.0003 280.163 25.2343C282.397 27.4683 282.42 31.0669 280.241 33.3354C280.27 33.3095 280.299 33.2865 280.328 33.2577C282.59 30.992 282.613 27.3042 280.353 25.0443Z" fill="url(#paint32_linear)"/>
<path d="M280.687 26.8872C280.454 26.4324 280.152 26.0063 279.772 25.6263C279.757 25.6119 279.743 25.6033 279.732 25.5889C277.397 25.5946 275.062 25.6004 272.727 25.6061C272.719 25.6148 272.71 25.6205 272.704 25.6263C272.324 26.0063 272.019 26.4352 271.789 26.8872H280.687Z" fill="url(#paint33_linear)"/>
<path d="M280.664 31.4793C281.019 30.7999 281.209 30.06 281.232 29.3115C277.901 29.3115 274.573 29.3115 271.242 29.3115C271.265 30.0571 271.455 30.7999 271.809 31.4793C274.76 31.4793 277.714 31.4793 280.664 31.4793Z" fill="url(#paint34_linear)"/>
<path d="M278.914 33.3787C279.193 33.2031 279.458 32.9958 279.703 32.7568H272.771C273.018 32.9958 273.283 33.2002 273.559 33.3787C275.344 33.3787 277.129 33.3787 278.914 33.3787Z" fill="url(#paint35_linear)"/>
<path d="M281.076 24.5397C281.249 24.5397 281.39 24.3992 281.39 24.2259C281.39 24.0526 281.249 23.9121 281.076 23.9121C280.903 23.9121 280.762 24.0526 280.762 24.2259C280.762 24.3992 280.903 24.5397 281.076 24.5397Z" fill="#3B0364"/>
<path d="M281.076 24.5397C281.249 24.5397 281.39 24.3992 281.39 24.2259C281.39 24.0526 281.249 23.9121 281.076 23.9121C280.903 23.9121 280.762 24.0526 280.762 24.2259C280.762 24.3992 280.903 24.5397 281.076 24.5397Z" fill="#3B0364"/>
<path d="M278.266 22.5473C278.22 22.7143 278.048 22.8151 277.881 22.769C277.714 22.7229 277.613 22.5502 277.659 22.3832C277.705 22.2163 277.878 22.1155 278.045 22.1616C278.212 22.2076 278.309 22.3804 278.266 22.5473Z" fill="#3B0364"/>
<path d="M274.688 22.4215C274.734 22.5885 274.633 22.7612 274.466 22.8073C274.299 22.8533 274.127 22.7526 274.081 22.5856C274.034 22.4186 274.135 22.2459 274.302 22.1998C274.469 22.1538 274.642 22.2517 274.688 22.4215Z" fill="#3B0364"/>
<path d="M271.302 24.6344C271.476 24.6344 271.616 24.4939 271.616 24.3206C271.616 24.1473 271.476 24.0068 271.302 24.0068C271.129 24.0068 270.989 24.1473 270.989 24.3206C270.989 24.4939 271.129 24.6344 271.302 24.6344Z" fill="#3B0364"/>
<path d="M269.624 27.1293C269.791 27.1754 269.892 27.3481 269.846 27.5151C269.8 27.6821 269.627 27.7828 269.46 27.7368C269.293 27.6907 269.192 27.518 269.238 27.351C269.284 27.184 269.457 27.0861 269.624 27.1293Z" fill="#3B0364"/>
<path d="M269.498 30.7084C269.665 30.6624 269.837 30.7631 269.883 30.9301C269.929 31.0971 269.829 31.2698 269.662 31.3159C269.495 31.3619 269.322 31.2612 269.276 31.0942C269.23 30.9244 269.328 30.7516 269.498 30.7084Z" fill="#3B0364"/>
<path d="M271.397 34.4079C271.571 34.4079 271.711 34.2674 271.711 34.0941C271.711 33.9208 271.571 33.7803 271.397 33.7803C271.224 33.7803 271.084 33.9208 271.084 34.0941C271.084 34.2674 271.224 34.4079 271.397 34.4079Z" fill="#3B0364"/>
<path d="M274.207 35.769C274.253 35.602 274.426 35.5012 274.593 35.5473C274.76 35.5934 274.861 35.7661 274.815 35.9331C274.769 36.1001 274.596 36.2008 274.429 36.1547C274.262 36.1116 274.164 35.9388 274.207 35.769Z" fill="#3B0364"/>
<path d="M277.786 35.8989C277.74 35.7319 277.84 35.5592 278.007 35.5131C278.174 35.4671 278.347 35.5678 278.393 35.7348C278.439 35.9018 278.338 36.0745 278.171 36.1206C278.001 36.1666 277.829 36.0659 277.786 35.8989Z" fill="#3B0364"/>
<path d="M281.171 34.3131C281.344 34.3131 281.485 34.1726 281.485 33.9993C281.485 33.826 281.344 33.6855 281.171 33.6855C280.998 33.6855 280.857 33.826 280.857 33.9993C280.857 34.1726 280.998 34.3131 281.171 34.3131Z" fill="#3B0364"/>
<path d="M282.847 31.1889C282.68 31.1429 282.579 30.9701 282.625 30.8032C282.671 30.6362 282.844 30.5354 283.011 30.5815C283.178 30.6275 283.279 30.8003 283.232 30.9673C283.189 31.1342 283.017 31.2321 282.847 31.1889Z" fill="#3B0364"/>
<path d="M282.976 27.6118C282.809 27.6578 282.636 27.5571 282.59 27.3901C282.544 27.2231 282.645 27.0504 282.812 27.0043C282.979 26.9583 283.152 27.059 283.198 27.226C283.244 27.393 283.143 27.5657 282.976 27.6118Z" fill="#3B0364"/>
</g>
<defs>
<radialGradient id="paint0_radial" cx="0" cy="0" r="1" gradientUnits="userSpaceOnUse" gradientTransform="translate(250.395 48.734) scale(260.066 127.653)">
<stop stop-color="#0E64CF"/>
<stop offset="0.2022" stop-color="#0B49A6"/>
<stop offset="0.4576" stop-color="#092A78"/>
<stop offset="0.685" stop-color="#071457"/>
<stop offset="0.8736" stop-color="#050742"/>
<stop offset="1" stop-color="#05023B"/>
</radialGradient>
<radialGradient id="paint1_radial" cx="0" cy="0" r="1" gradientUnits="userSpaceOnUse" gradientTransform="translate(179.142 47.7306) scale(206.439 130.198)">
<stop stop-color="#0E64CF"/>
<stop offset="0.2022" stop-color="#0B49A6"/>
<stop offset="0.4576" stop-color="#092A78"/>
<stop offset="0.685" stop-color="#071457"/>
<stop offset="0.8736" stop-color="#050742"/>
<stop offset="1" stop-color="#05023B"/>
</radialGradient>
<linearGradient id="paint2_linear" x1="255.839" y1="16.6994" x2="236.44" y2="16.6994" gradientUnits="userSpaceOnUse">
<stop stop-color="#F2FFFF"/>
<stop offset="0.6726" stop-color="#93FFFD"/>
</linearGradient>
<linearGradient id="paint3_linear" x1="308.748" y1="84.8711" x2="289" y2="84.8711" gradientUnits="userSpaceOnUse">
<stop stop-color="#F2FFFF"/>
<stop offset="0.6726" stop-color="#93FFFD"/>
</linearGradient>
<linearGradient id="paint4_linear" x1="262.595" y1="15.3596" x2="249.082" y2="15.3596" gradientUnits="userSpaceOnUse">
<stop stop-color="#F2FFFF"/>
<stop offset="0.6726" stop-color="#93FFFD"/>
</linearGradient>
<linearGradient id="paint5_linear" x1="319.101" y1="24.4838" x2="312.829" y2="24.4838" gradientUnits="userSpaceOnUse">
<stop stop-color="#F2FFFF"/>
<stop offset="0.6726" stop-color="#93FFFD"/>
</linearGradient>
<radialGradient id="paint6_radial" cx="0" cy="0" r="1" gradientUnits="userSpaceOnUse" gradientTransform="translate(237.417 23.3296) scale(74.638)">
<stop offset="0.3364" stop-color="white"/>
<stop offset="0.4268" stop-color="#FEF9FF"/>
<stop offset="0.5471" stop-color="#FDE8FF"/>
<stop offset="0.6835" stop-color="#FACDFF"/>
<stop offset="0.7867" stop-color="#F7B3FF"/>
<stop offset="0.8223" stop-color="#EEBAFF"/>
<stop offset="0.88" stop-color="#D6CCFE"/>
<stop offset="0.9522" stop-color="#AFEAFE"/>
<stop offset="0.9976" stop-color="#93FFFD"/>
</radialGradient>
<linearGradient id="paint7_linear" x1="210.559" y1="54.4385" x2="289.733" y2="54.4385" gradientUnits="userSpaceOnUse">
<stop stop-color="#9796FE"/>
<stop offset="0.9927" stop-color="#FF7DFF"/>
</linearGradient>
<radialGradient id="paint8_radial" cx="0" cy="0" r="1" gradientUnits="userSpaceOnUse" gradientTransform="translate(334.284 51.1116) scale(15.4202)">
<stop offset="0.00534856" stop-color="#FFCFFF"/>
<stop offset="0.1172" stop-color="#FFC9FF"/>
<stop offset="0.266" stop-color="#FDB8FF"/>
<stop offset="0.4356" stop-color="#FC9DFF"/>
<stop offset="0.6192" stop-color="#F976FF"/>
<stop offset="0.7361" stop-color="#F75AFF"/>
<stop offset="0.7666" stop-color="#F263FF"/>
<stop offset="0.8162" stop-color="#E37BFF"/>
<stop offset="0.8787" stop-color="#CBA2FE"/>
<stop offset="0.9508" stop-color="#ABD8FD"/>
<stop offset="0.9976" stop-color="#93FFFD"/>
</radialGradient>
<linearGradient id="paint9_linear" x1="322.075" y1="56.0793" x2="330.884" y2="56.0793" gradientUnits="userSpaceOnUse">
<stop stop-color="#9796FE"/>
<stop offset="0.9927" stop-color="#FF7DFF"/>
</linearGradient>
<linearGradient id="paint10_linear" x1="322.46" y1="55.4856" x2="345.359" y2="55.4856" gradientUnits="userSpaceOnUse">
<stop stop-color="#9796FE"/>
<stop offset="0.9927" stop-color="#FF7DFF"/>
</linearGradient>
<linearGradient id="paint11_linear" x1="336.151" y1="49.6751" x2="342.979" y2="49.6751" gradientUnits="userSpaceOnUse">
<stop stop-color="#9796FE"/>
<stop offset="0.9927" stop-color="#FF7DFF"/>
</linearGradient>
<linearGradient id="paint12_linear" x1="323.213" y1="46.2428" x2="336.125" y2="46.2428" gradientUnits="userSpaceOnUse">
<stop stop-color="#9796FE"/>
<stop offset="0.9927" stop-color="#FF7DFF"/>
</linearGradient>
<linearGradient id="paint13_linear" x1="321.946" y1="49.5569" x2="340.238" y2="49.5569" gradientUnits="userSpaceOnUse">
<stop stop-color="#9796FE"/>
<stop offset="0.9927" stop-color="#FF7DFF"/>
</linearGradient>
<linearGradient id="paint14_linear" x1="337.026" y1="64.6367" x2="341.694" y2="64.6367" gradientUnits="userSpaceOnUse">
<stop stop-color="#9796FE"/>
<stop offset="0.9927" stop-color="#FF7DFF"/>
</linearGradient>
<linearGradient id="paint15_linear" x1="327.337" y1="48.5367" x2="334.856" y2="48.5367" gradientUnits="userSpaceOnUse">
<stop stop-color="#9796FE"/>
<stop offset="0.9927" stop-color="#FF7DFF"/>
</linearGradient>
<linearGradient id="paint16_linear" x1="328.162" y1="61.0291" x2="345.351" y2="61.0291" gradientUnits="userSpaceOnUse">
<stop stop-color="#9796FE"/>
<stop offset="0.9927" stop-color="#FF7DFF"/>
</linearGradient>
<linearGradient id="paint17_linear" x1="353.416" y1="41.3883" x2="318.201" y2="65.2041" gradientUnits="userSpaceOnUse">
<stop offset="0.0295" stop-color="#FFCFFF"/>
<stop offset="0.1224" stop-color="#FFC9FF"/>
<stop offset="0.2459" stop-color="#FDB8FF"/>
<stop offset="0.3867" stop-color="#FC9DFF"/>
<stop offset="0.5392" stop-color="#F976FF"/>
<stop offset="0.6362" stop-color="#F75AFF"/>
<stop offset="0.6784" stop-color="#F263FF"/>
<stop offset="0.7469" stop-color="#E37BFF"/>
<stop offset="0.8332" stop-color="#CBA2FE"/>
<stop offset="0.9329" stop-color="#ABD8FD"/>
<stop offset="0.9976" stop-color="#93FFFD"/>
</linearGradient>
<linearGradient id="paint18_linear" x1="241.662" y1="63.0925" x2="180.192" y2="124.562" gradientUnits="userSpaceOnUse">
<stop stop-color="#FF009C"/>
<stop offset="0.6699" stop-color="#FF009C" stop-opacity="0"/>
</linearGradient>
<linearGradient id="paint19_linear" x1="238.399" y1="63.5902" x2="223.224" y2="52.4446" gradientUnits="userSpaceOnUse">
<stop stop-color="#070340"/>
<stop offset="0.565" stop-color="#70237A"/>
<stop offset="0.7041" stop-color="#A565AB"/>
<stop offset="0.8433" stop-color="#D6A1D8"/>
<stop offset="0.9459" stop-color="#F4C7F3"/>
<stop offset="1" stop-color="#FFD5FE"/>
</linearGradient>
<linearGradient id="paint20_linear" x1="242.983" y1="68.5377" x2="252.062" y2="81.1323" gradientUnits="userSpaceOnUse">
<stop stop-color="#070340"/>
<stop offset="0.565" stop-color="#70237A"/>
<stop offset="0.7041" stop-color="#A565AB"/>
<stop offset="0.8433" stop-color="#D6A1D8"/>
<stop offset="0.9459" stop-color="#F4C7F3"/>
<stop offset="1" stop-color="#FFD5FE"/>
</linearGradient>
<linearGradient id="paint21_linear" x1="236.874" y1="68.352" x2="229.656" y2="75.0489" gradientUnits="userSpaceOnUse">
<stop stop-color="#5A0389"/>
<stop offset="0.565" stop-color="#BB23B3"/>
<stop offset="0.7041" stop-color="#B665CF"/>
<stop offset="0.8433" stop-color="#B1A1E8"/>
<stop offset="0.9459" stop-color="#AEC7F8"/>
<stop offset="1" stop-color="#ADD5FE"/>
</linearGradient>
<linearGradient id="paint22_linear" x1="258.944" y1="31.7097" x2="274.117" y2="46.8832" gradientUnits="userSpaceOnUse">
<stop stop-color="#851591"/>
<stop offset="0.0494" stop-color="#6D0E83"/>
<stop offset="0.1128" stop-color="#540875"/>
<stop offset="0.171" stop-color="#45036C"/>
<stop offset="0.2188" stop-color="#400269"/>
<stop offset="0.2894" stop-color="#4A056F"/>
<stop offset="0.4113" stop-color="#660D7F"/>
<stop offset="0.5697" stop-color="#941999"/>
<stop offset="0.7568" stop-color="#D22BBC"/>
<stop offset="0.7604" stop-color="#D32BBD"/>
<stop offset="0.7835" stop-color="#D034C0"/>
<stop offset="0.8209" stop-color="#C94CC7"/>
<stop offset="0.8681" stop-color="#BD73D3"/>
<stop offset="0.9231" stop-color="#ADAAE3"/>
<stop offset="0.9841" stop-color="#98EFF8"/>
<stop offset="0.9976" stop-color="#93FFFD"/>
</linearGradient>
<linearGradient id="paint23_linear" x1="230.761" y1="64.4228" x2="240.212" y2="73.3866" gradientUnits="userSpaceOnUse">
<stop stop-color="#5A0389"/>
<stop offset="0.565" stop-color="#BB23B3"/>
<stop offset="0.7041" stop-color="#B665CF"/>
<stop offset="0.8433" stop-color="#B1A1E8"/>
<stop offset="0.9459" stop-color="#AEC7F8"/>
<stop offset="1" stop-color="#ADD5FE"/>
</linearGradient>
<linearGradient id="paint24_linear" x1="229.03" y1="66.2481" x2="238.482" y2="75.2118" gradientUnits="userSpaceOnUse">
<stop stop-color="#5A0389"/>
<stop offset="0.565" stop-color="#BB23B3"/>
<stop offset="0.7041" stop-color="#B665CF"/>
<stop offset="0.8433" stop-color="#B1A1E8"/>
<stop offset="0.9459" stop-color="#AEC7F8"/>
<stop offset="1" stop-color="#ADD5FE"/>
</linearGradient>
<linearGradient id="paint25_linear" x1="255.756" y1="42.347" x2="270.155" y2="42.347" gradientUnits="userSpaceOnUse">
<stop stop-color="#B336A1"/>
<stop offset="0.0367" stop-color="#A33497"/>
<stop offset="0.1048" stop-color="#8A3188"/>
<stop offset="0.1674" stop-color="#7B2F7F"/>
<stop offset="0.2188" stop-color="#762E7C"/>
<stop offset="0.3076" stop-color="#803584"/>
<stop offset="0.4609" stop-color="#9C489B"/>
<stop offset="0.6587" stop-color="#C966C0"/>
<stop offset="0.7604" stop-color="#E378D5"/>
<stop offset="0.7925" stop-color="#DE81D8"/>
<stop offset="0.8446" stop-color="#CF99DF"/>
<stop offset="0.9102" stop-color="#B8C0EA"/>
<stop offset="0.986" stop-color="#98F6FA"/>
<stop offset="0.9976" stop-color="#93FFFD"/>
</linearGradient>
<linearGradient id="paint26_linear" x1="251.338" y1="46.7244" x2="265.818" y2="46.7244" gradientUnits="userSpaceOnUse">
<stop stop-color="#B336A1"/>
<stop offset="0.0367" stop-color="#A33497"/>
<stop offset="0.1048" stop-color="#8A3188"/>
<stop offset="0.1674" stop-color="#7B2F7F"/>
<stop offset="0.2188" stop-color="#762E7C"/>
<stop offset="0.3076" stop-color="#803584"/>
<stop offset="0.4609" stop-color="#9C489B"/>
<stop offset="0.6587" stop-color="#C966C0"/>
<stop offset="0.7604" stop-color="#E378D5"/>
<stop offset="0.7925" stop-color="#DE81D8"/>
<stop offset="0.8446" stop-color="#CF99DF"/>
<stop offset="0.9102" stop-color="#B8C0EA"/>
<stop offset="0.986" stop-color="#98F6FA"/>
<stop offset="0.9976" stop-color="#93FFFD"/>
</linearGradient>
<linearGradient id="paint27_linear" x1="294.454" y1="4.4244" x2="307.303" y2="4.4244" gradientUnits="userSpaceOnUse">
<stop stop-color="#5A0389"/>
<stop offset="0.565" stop-color="#BB23B3"/>
<stop offset="0.7041" stop-color="#B665CF"/>
<stop offset="0.8433" stop-color="#B1A1E8"/>
<stop offset="0.9459" stop-color="#AEC7F8"/>
<stop offset="1" stop-color="#ADD5FE"/>
</linearGradient>
<linearGradient id="paint28_linear" x1="293.821" y1="9.5364" x2="295.923" y2="11.6382" gradientUnits="userSpaceOnUse">
<stop stop-color="#5A0389"/>
<stop offset="0.6289" stop-color="#BB23B3"/>
<stop offset="0.6728" stop-color="#BB29B5"/>
<stop offset="0.7307" stop-color="#B939BC"/>
<stop offset="0.7963" stop-color="#B755C8"/>
<stop offset="0.8677" stop-color="#B47BD8"/>
<stop offset="0.943" stop-color="#B0ABEC"/>
<stop offset="1" stop-color="#ADD5FE"/>
</linearGradient>
<linearGradient id="paint29_linear" x1="270.093" y1="35.3032" x2="281.687" y2="23.7099" gradientUnits="userSpaceOnUse">
<stop stop-color="#5A0389"/>
<stop offset="0.565" stop-color="#BB23B3"/>
<stop offset="0.7041" stop-color="#B665CF"/>
<stop offset="0.8433" stop-color="#B1A1E8"/>
<stop offset="0.9459" stop-color="#AEC7F8"/>
<stop offset="1" stop-color="#ADD5FE"/>
</linearGradient>
<linearGradient id="paint30_linear" x1="268.763" y1="21.6869" x2="285.772" y2="38.6961" gradientUnits="userSpaceOnUse">
<stop stop-color="#5A0389"/>
<stop offset="0.565" stop-color="#BB23B3"/>
<stop offset="0.7041" stop-color="#B665CF"/>
<stop offset="0.8433" stop-color="#B1A1E8"/>
<stop offset="0.9459" stop-color="#AEC7F8"/>
<stop offset="1" stop-color="#ADD5FE"/>
</linearGradient>
<radialGradient id="paint31_radial" cx="0" cy="0" r="1" gradientUnits="userSpaceOnUse" gradientTransform="translate(274.443 25.8493) scale(13.6452)">
<stop offset="0.2582" stop-color="#FFCFFF"/>
<stop offset="0.3772" stop-color="#F9D2FF"/>
<stop offset="0.5356" stop-color="#E8D9FF"/>
<stop offset="0.716" stop-color="#CDE5FE"/>
<stop offset="0.9115" stop-color="#A6F6FD"/>
<stop offset="0.9976" stop-color="#93FFFD"/>
</radialGradient>
<linearGradient id="paint32_linear" x1="281.038" y1="24.3594" x2="273.041" y2="32.3559" gradientUnits="userSpaceOnUse">
<stop stop-color="#5A0389"/>
<stop offset="0.565" stop-color="#BB23B3"/>
<stop offset="0.7041" stop-color="#B665CF"/>
<stop offset="0.8433" stop-color="#B1A1E8"/>
<stop offset="0.9459" stop-color="#AEC7F8"/>
<stop offset="1" stop-color="#ADD5FE"/>
</linearGradient>
<linearGradient id="paint33_linear" x1="271.557" y1="26.2383" x2="281.308" y2="26.2383" gradientUnits="userSpaceOnUse">
<stop stop-color="white"/>
<stop offset="1" stop-color="white" stop-opacity="0"/>
</linearGradient>
<linearGradient id="paint34_linear" x1="271.557" y1="30.3941" x2="281.308" y2="30.3941" gradientUnits="userSpaceOnUse">
<stop stop-color="white"/>
<stop offset="1" stop-color="white" stop-opacity="0"/>
</linearGradient>
<linearGradient id="paint35_linear" x1="271.557" y1="33.0684" x2="281.308" y2="33.0684" gradientUnits="userSpaceOnUse">
<stop stop-color="white"/>
<stop offset="1" stop-color="white" stop-opacity="0"/>
</linearGradient>
<clipPath id="clip0">
<rect width="343" height="100" fill="white"/>
</clipPath>
</defs>
</svg>
