<svg width="30" height="30" viewBox="0 0 30 30" fill="none" xmlns="http://www.w3.org/2000/svg">
<path d="M15 28.125C13.487 28.125 11.9889 27.8303 10.5911 27.2577C9.1933 26.685 7.92323 25.8457 6.85341 24.7877C5.78358 23.7296 4.93495 22.4735 4.35597 21.0911C3.77698 19.7087 3.47898 18.227 3.47898 16.7307C3.47898 15.2343 3.77698 13.7527 4.35597 12.3703C4.93495 10.9878 5.78358 9.73173 6.85341 8.67366C7.92323 7.6156 9.1933 6.7763 10.5911 6.20369C11.9889 5.63107 13.487 5.33634 15 5.33634C18.0556 5.33634 20.986 6.53681 23.1466 8.67366C25.3072 10.8105 26.521 13.7087 26.521 16.7307C26.521 19.7526 25.3072 22.6508 23.1466 24.7877C20.986 26.9245 18.0556 28.125 15 28.125ZM16.2801 16.7307V10.4005H13.7199V19.2627H20.1205V16.7307H16.2801ZM1.875 8.22544L6.4002 3.75L8.21156 5.54018L3.6838 10.0169L1.875 8.22544ZM23.5985 3.75L28.125 8.22544L26.3149 10.0169L21.7884 5.54018L23.5998 3.75H23.5985Z" fill="#5E81F4"/>
</svg>
