<svg width="16" height="16" viewBox="0 0 16 16" fill="none" xmlns="http://www.w3.org/2000/svg">
    <path d="M0 2C0 0.895431 0.895431 0 2 0H14C15.1046 0 16 0.895431 16 2V14C16 15.1046 15.1046 16 14 16H2C0.895431 16 0 15.1046 0 14V2Z" fill="#F591B3"/>
    <path fill-rule="evenodd" clip-rule="evenodd" d="M7.04803 3.15588C7.62849 3.15588 8.20682 3.15588 8.78728 3.15588C8.75313 3.54855 8.71686 3.94335 8.68485 4.33601C9.36134 4.38509 10.0208 4.60277 10.614 4.92501C10.3579 5.56949 10.0997 6.21397 9.8415 6.85845C9.34213 6.43378 8.68485 6.19903 8.02969 6.20757C7.86537 6.21184 7.69465 6.24385 7.55807 6.33774C7.46844 6.39963 7.40228 6.49566 7.38308 6.60237C7.36814 6.68773 7.37241 6.78376 7.41936 6.86059C7.47271 6.94595 7.56661 6.99716 7.6605 7.02918C7.85257 7.09747 8.05957 7.10173 8.26017 7.12307C8.73179 7.18069 9.20555 7.26179 9.65157 7.43038C9.99728 7.56269 10.3281 7.76115 10.5649 8.05138C10.789 8.31814 10.9192 8.65532 10.9683 9.00103C11.0259 9.4001 11.0088 9.8141 10.885 10.2025C10.789 10.5141 10.6247 10.8043 10.4113 11.0497C9.96954 11.5619 9.32079 11.8692 8.65497 11.9481C8.67631 12.3686 8.70192 12.7868 8.72539 13.2072C8.17481 13.2072 7.62636 13.2072 7.07791 13.2072C7.09925 12.7911 7.12699 12.375 7.1462 11.9588C6.70445 11.9439 6.26697 11.8457 5.8551 11.6899C5.45604 11.5384 5.07618 11.3378 4.72192 11.1031C4.98228 10.433 5.24263 9.76289 5.50512 9.09066C5.80175 9.34035 6.11759 9.57296 6.4633 9.75008C6.83463 9.94001 7.2465 10.0617 7.66477 10.0659C7.86324 10.0681 8.06811 10.0574 8.2559 9.9891C8.37114 9.94641 8.48425 9.87172 8.53546 9.75435C8.58881 9.63058 8.58455 9.47479 8.50345 9.36382C8.44583 9.28913 8.36474 9.23791 8.27938 9.20163C8.16414 9.15468 8.04463 9.12908 7.92299 9.10987C7.47484 9.03731 7.02456 8.97756 6.59135 8.83671C6.2435 8.72361 5.90418 8.56569 5.62676 8.32241C5.45177 8.17089 5.30665 7.98523 5.20422 7.77609C5.05057 7.46452 4.99295 7.1124 4.99722 6.76669C4.99722 6.38043 5.07618 5.98776 5.26824 5.64845C5.43469 5.34541 5.68865 5.09786 5.97461 4.90793C6.32032 4.67959 6.70659 4.52381 7.09925 4.3979C7.08218 3.98389 7.06511 3.56989 7.04803 3.15588Z" fill="white"/>
</svg>
