<svg width="16" height="16" viewBox="0 0 16 16" fill="none" xmlns="http://www.w3.org/2000/svg">
    <path d="M0 2C0 0.895431 0.895431 0 2 0H14C15.1046 0 16 0.895431 16 2V14C16 15.1046 15.1046 16 14 16H2C0.895431 16 0 15.1046 0 14V2Z" fill="#64B5F6"/>
    <path fill-rule="evenodd" clip-rule="evenodd" d="M11.0252 6.91007C11.1588 6.01574 10.4779 5.53497 9.54677 5.21425L9.8488 4.00278L9.11116 3.819L8.81712 4.99855C8.62347 4.95024 8.42435 4.90466 8.2265 4.85951L8.52265 3.67218L7.78564 3.4884L7.4834 4.69946C7.32293 4.66291 7.16541 4.62679 7.0125 4.58877L7.01335 4.58499L5.99636 4.33106L5.80019 5.11869C5.80019 5.11869 6.34733 5.24408 6.33578 5.25185C6.63444 5.32641 6.68863 5.52405 6.67939 5.68074L6.33536 7.06087C6.35594 7.06612 6.38261 7.07368 6.41202 7.08545L6.33431 7.06612L5.85186 8.99948C5.81531 9.09022 5.72269 9.22632 5.51391 9.17465C5.52126 9.18536 4.97791 9.04086 4.97791 9.04086L4.61182 9.8852L5.57167 10.1244C5.68004 10.1516 5.78709 10.1795 5.89297 10.2071C5.96152 10.225 6.02957 10.2428 6.09718 10.2601L5.792 11.4857L6.52859 11.6694L6.83104 10.4571C7.03204 10.5117 7.22737 10.5621 7.4185 10.6096L7.11731 11.8163L7.85474 12L8.15992 10.777C9.41739 11.015 10.3632 10.919 10.7608 9.78186C11.0815 8.86611 10.745 8.33788 10.0834 7.99321C10.5652 7.88168 10.9282 7.56474 11.025 6.91007H11.0252ZM9.34012 9.27258C9.13077 10.1131 7.81492 9.7653 7.21339 9.60633C7.15953 9.59209 7.11139 9.57937 7.07029 9.56915L7.47523 7.9458C7.52546 7.95833 7.58682 7.9721 7.65633 7.9877L7.65638 7.98771C8.27868 8.12736 9.55401 8.41354 9.34033 9.27258H9.34012ZM7.78143 7.23452C8.28334 7.36842 9.37739 7.6603 9.56798 6.89678C9.76283 6.11568 8.69898 5.88026 8.17941 5.76528C8.121 5.75235 8.06947 5.74095 8.02738 5.73046L7.66024 7.2028C7.69498 7.21146 7.73575 7.22233 7.78143 7.23452Z" fill="white"/>
</svg>
