<svg width="40" height="40" viewBox="0 0 40 40" fill="none" xmlns="http://www.w3.org/2000/svg">
<rect width="40" height="40" rx="12" fill="#A337FF"/>
<mask id="mask0" mask-type="alpha" maskUnits="userSpaceOnUse" x="0" y="0" width="40" height="40">
<rect width="40" height="40" rx="12" fill="white"/>
</mask>
<g mask="url(#mask0)">
<path fill-rule="evenodd" clip-rule="evenodd" d="M19.0013 27.9006L20.9763 25.7109C21.0096 25.678 20.9874 25.6233 20.9319 25.6233H18.7572C18.7461 25.6233 18.7239 25.6123 18.7128 25.6014L16.871 23.5649C16.8599 23.543 16.8488 23.5211 16.8599 23.4992L19.9444 18.2766C19.9555 18.2547 19.9555 18.2328 19.9444 18.2218L18.6684 16.0539C18.6463 16.0211 18.5908 16.0211 18.5686 16.0539L14.0083 23.7839C13.9972 23.8058 13.9972 23.8277 14.0083 23.8496L17.6698 27.9116C17.6809 27.9225 17.692 27.9335 17.7142 27.9335H18.9569C18.968 27.9225 18.9902 27.9116 19.0013 27.9006Z" fill="white"/>
<path d="M19.0679 15.2007C19.0568 15.2226 19.0568 15.2445 19.0679 15.2555L20.3994 17.5109L23.9277 23.4891C23.9388 23.5109 23.9388 23.5328 23.9166 23.5547L22.0526 25.6131L20.0665 27.8248C20.0332 27.8577 20.0554 27.9124 20.1109 27.9124H23.0845C23.0956 27.9124 23.1178 27.9015 23.1289 27.8905L26.7904 23.8285C26.8015 23.8066 26.8126 23.7847 26.8015 23.7628L20.4437 13.0328C20.4326 12.9891 20.3772 12.9891 20.355 13.0328L19.0679 15.2007Z" fill="white"/>
</g>
</svg>
