<svg width="20" height="20" viewBox="0 0 20 20" fill="none" xmlns="http://www.w3.org/2000/svg">
<path d="M19 6.44444H10.9C10.6613 6.44444 10.4324 6.53809 10.2636 6.70479C10.0948 6.87149 10 7.09759 10 7.33333V12.6667C10 12.9024 10.0948 13.1285 10.2636 13.2952C10.4324 13.4619 10.6613 13.5556 10.9 13.5556H19V17.1111C19 17.3469 18.9052 17.573 18.7364 17.7397C18.5676 17.9064 18.3387 18 18.1 18H1.9C1.66131 18 1.43239 17.9064 1.2636 17.7397C1.09482 17.573 1 17.3469 1 17.1111V2.88889C1 2.65314 1.09482 2.42705 1.2636 2.26035C1.43239 2.09365 1.66131 2 1.9 2H18.1C18.3387 2 18.5676 2.09365 18.7364 2.26035C18.9052 2.42705 19 2.65314 19 2.88889V6.44444ZM12.7 9.11111H15.4V10.8889H12.7V9.11111Z" fill="#5E81F4"/>
</svg>
