<svg width="21" height="20" viewBox="0 0 21 20" fill="none" xmlns="http://www.w3.org/2000/svg">
    <path d="M12.2969 1C13.9438 0.999215 15.5412 1.56321 16.8226 2.59793C18.1041 3.63265 18.9922 5.07554 19.3388 6.68595C19.6853 8.29636 19.4695 9.97695 18.7271 11.4474C17.9848 12.9179 16.7609 14.0894 15.2595 14.7664C14.7796 15.8277 14.0496 16.7566 13.1319 17.4737C12.2143 18.1907 11.1364 18.6744 9.99083 18.8833C8.84525 19.0921 7.66611 19.02 6.55454 18.6729C5.44297 18.3259 4.43214 17.7143 3.60874 16.8907C2.78534 16.0672 2.17395 15.0561 1.827 13.9442C1.48005 12.8324 1.40789 11.653 1.61672 10.5071C1.82555 9.36126 2.30912 8.28316 3.02598 7.36529C3.74283 6.44741 4.67157 5.71715 5.73255 5.23714C6.30325 3.97409 7.22611 2.90253 8.39044 2.15098C9.55478 1.39942 10.9111 0.999787 12.2969 1ZM9.59698 7.30125H7.79706V8.20143C7.21219 8.20001 6.64975 8.42645 6.22895 8.83276C5.80816 9.23907 5.56209 9.79332 5.54289 10.378C5.5237 10.9627 5.7329 11.5319 6.12614 11.965C6.51938 12.398 7.06576 12.6609 7.64947 12.6978L7.79706 12.7023H9.59698L9.67798 12.7095C9.78173 12.7283 9.87559 12.7829 9.94317 12.8639C10.0108 12.9448 10.0478 13.0469 10.0478 13.1524C10.0478 13.2579 10.0108 13.36 9.94317 13.4409C9.87559 13.5219 9.78173 13.5765 9.67798 13.5953L9.59698 13.6025H5.99714V15.4029H7.79706V16.303H9.59698V15.4029C10.1819 15.4043 10.7443 15.1778 11.1651 14.7715C11.5859 14.3652 11.832 13.811 11.8511 13.2263C11.8703 12.6416 11.6611 12.0724 11.2679 11.6393C10.8747 11.2063 10.3283 10.9434 9.74457 10.9065L9.59698 10.902H7.79706L7.71606 10.8948C7.61231 10.876 7.51845 10.8213 7.45087 10.7404C7.38328 10.6595 7.34625 10.5573 7.34625 10.4519C7.34625 10.3464 7.38328 10.2443 7.45087 10.1634C7.51845 10.0824 7.61231 10.0278 7.71606 10.009L7.79706 10.0018H11.3969V8.20143H9.59698V7.30125ZM12.2969 2.80036C11.5343 2.79946 10.7803 2.96054 10.0846 3.27292C9.38894 3.5853 8.76751 4.04186 8.26144 4.61242C9.27863 4.55065 10.2973 4.70558 11.2502 5.06696C12.2031 5.42834 13.0684 5.98793 13.789 6.70873C14.5095 7.42954 15.0689 8.29513 15.43 9.24828C15.7912 10.2014 15.946 11.2204 15.8841 12.2378C16.7024 11.5101 17.2801 10.5508 17.5408 9.48716C17.8014 8.42348 17.7326 7.30567 17.3435 6.282C16.9544 5.25832 16.2634 4.37715 15.3621 3.75534C14.4608 3.13354 13.3918 2.80048 12.2969 2.80036Z" fill="#5E81F4"/>
</svg>
