<svg width="21" height="20" viewBox="0 0 21 20" fill="none" xmlns="http://www.w3.org/2000/svg">
    <g clip-path="url(#clip0)">
        <path d="M8.83316 20C10.3424 20 11.6049 18.9241 11.8948 17.5H5.77148C6.06155 18.9241 7.32407 20 8.83316 20Z" fill="#5E81F4"/>
        <path d="M15.1466 12.0799C15.1249 12.0799 15.1049 12.0833 15.0833 12.0833C11.4074 12.0833 8.41672 9.09256 8.41672 5.41672C8.41672 3.97247 8.88333 2.6384 9.66672 1.54495V0.833282C9.66672 0.372467 9.29333 0 8.83328 0C8.37338 0 8 0.372467 8 0.833282V1.7334C5.17743 2.14005 3 4.56757 3 7.5V9.8233C3 11.4725 2.2775 13.0292 1.00995 14.1008C0.685852 14.3784 0.5 14.7816 0.5 15.2083C0.5 16.0126 1.15414 16.6667 1.95828 16.6667H15.7083C16.5126 16.6667 17.1667 16.0126 17.1667 15.2083C17.1667 14.7816 16.9809 14.3784 16.6484 14.0942C15.9916 13.5384 15.485 12.8467 15.1466 12.0799Z" fill="#5E81F4"/>
        <path d="M15.0836 0C12.097 0 9.66699 2.42996 9.66699 5.41672C9.66699 8.40332 12.097 10.8333 15.0836 10.8333C18.0703 10.8333 20.5003 8.40332 20.5003 5.41672C20.5003 2.42996 18.0703 0 15.0836 0V0ZM15.917 7.29172C15.917 7.63672 15.637 7.91672 15.292 7.91672C14.947 7.91672 14.667 7.63672 14.667 7.29172V4.58328H14.2503C13.9053 4.58328 13.6253 4.30328 13.6253 3.95828C13.6253 3.61328 13.9053 3.33328 14.2503 3.33328H15.292C15.637 3.33328 15.917 3.61328 15.917 3.95828V7.29172Z" fill="#5E81F4"/>
    </g>
    <defs>
        <clipPath id="clip0">
            <rect width="20" height="20" fill="white" transform="translate(0.5)"/>
        </clipPath>
    </defs>
</svg>
