<svg width="21" height="20" viewBox="0 0 21 20" fill="none" xmlns="http://www.w3.org/2000/svg">
    <g clip-path="url(#clip0)">
        <path d="M11.1001 6.875H9.13281C9.02496 6.875 8.9375 6.96246 8.9375 7.07031V9.17969C8.9375 9.28754 9.02496 9.375 9.13281 9.375H11.125C11.807 9.375 12.3632 8.82594 12.3748 8.14664C12.3868 7.44734 11.7995 6.875 11.1001 6.875Z" fill="#5E81F4"/>
        <path d="M11.1001 10.625H9.13281C9.02496 10.625 8.9375 10.7125 8.9375 10.8203V12.9297C8.9375 13.0375 9.02496 13.125 9.13281 13.125H11.125C11.807 13.125 12.3632 12.5759 12.3748 11.8966C12.3868 11.1973 11.7995 10.625 11.1001 10.625Z" fill="#5E81F4"/>
        <path d="M17.5711 2.92891C15.6823 1.04016 13.1711 0 10.5 0C7.82891 0 5.31766 1.04016 3.42891 2.92891C1.54016 4.81766 0.5 7.32891 0.5 10C0.5 12.6711 1.5402 15.1823 3.42891 17.0711C5.31762 18.9599 7.82891 20 10.5 20C13.1711 20 15.6823 18.9598 17.5711 17.0711C19.4598 15.1823 20.5 12.6711 20.5 10C20.5 7.32891 19.4598 4.8177 17.5711 2.92891ZM13.625 11.875C13.625 12.8784 13.0306 13.745 12.1756 14.1427C12.1067 14.1747 12.0625 14.2435 12.0625 14.3195V14.9823C12.0625 15.3189 11.8039 15.6085 11.4677 15.6243C11.1088 15.6412 10.8125 15.3552 10.8125 15V14.5703C10.8125 14.4625 10.725 14.375 10.6172 14.375H9.75781C9.64996 14.375 9.5625 14.4625 9.5625 14.5703V14.9823C9.5625 15.3189 9.30387 15.6085 8.9677 15.6243C8.60875 15.6412 8.3125 15.3552 8.3125 15V14.5703C8.3125 14.4625 8.22504 14.375 8.11719 14.375H7.08016C6.74363 14.375 6.45406 14.1164 6.4382 13.7802C6.42129 13.4213 6.70727 13.125 7.0625 13.125H7.49219C7.60004 13.125 7.6875 13.0375 7.6875 12.9297V10V7.07031C7.6875 6.96246 7.60004 6.875 7.49219 6.875H7.08016C6.74363 6.875 6.45406 6.61637 6.4382 6.28023C6.42129 5.92133 6.70727 5.625 7.0625 5.625H8.11719C8.22504 5.625 8.3125 5.53754 8.3125 5.42969V5.01766C8.3125 4.68109 8.57113 4.39152 8.9073 4.3757C9.26625 4.35883 9.5625 4.6448 9.5625 5V5.42969C9.5625 5.53754 9.64996 5.625 9.75781 5.625H10.6172C10.725 5.625 10.8125 5.53754 10.8125 5.42969V5.01766C10.8125 4.68109 11.0711 4.39152 11.4073 4.3757C11.7662 4.35883 12.0625 4.6448 12.0625 5V5.68051C12.0625 5.75648 12.1067 5.82527 12.1756 5.85731C13.0306 6.25496 13.625 7.12164 13.625 8.125C13.625 8.80016 13.3556 9.41332 12.9191 9.86352C12.8451 9.93981 12.8451 10.0602 12.9191 10.1364C13.3556 10.5867 13.625 11.1998 13.625 11.875Z" fill="#5E81F4"/>
    </g>
    <defs>
        <clipPath id="clip0">
            <rect width="20" height="20" fill="white" transform="translate(0.5)"/>
        </clipPath>
    </defs>
</svg>
