<svg width="24" height="24" viewBox="0 0 24 24" fill="none" xmlns="http://www.w3.org/2000/svg">
<path d="M22.5011 12.2345C22.5011 11.3712 22.4296 10.7412 22.2749 10.0879H12.2153V13.9845H18.1201C18.0011 14.9529 17.3582 16.4112 15.9296 17.3912L15.9095 17.5217L19.0902 19.9364L19.3106 19.9579C21.3344 18.1262 22.5011 15.4312 22.5011 12.2345Z" fill="#4285F4"/>
<path d="M12.2146 22.4996C15.1075 22.4996 17.536 21.5662 19.3099 19.9562L15.9289 17.3894C15.0241 18.0078 13.8099 18.4395 12.2146 18.4395C9.38136 18.4395 6.97663 16.6079 6.11941 14.0762L5.99376 14.0866L2.6865 16.595L2.64325 16.7128C4.40513 20.1428 8.02416 22.4996 12.2146 22.4996Z" fill="#34A853"/>
<path d="M6.12004 14.0755C5.89385 13.4221 5.76295 12.7221 5.76295 11.9988C5.76295 11.2754 5.89386 10.5754 6.10814 9.92212L6.10215 9.783L2.75343 7.23438L2.64387 7.28545C1.91771 8.70877 1.50104 10.3072 1.50104 11.9988C1.50104 13.6905 1.91771 15.2887 2.64387 16.7121L6.12004 14.0755Z" fill="#FBBC05"/>
<path d="M12.2147 5.55997C14.2266 5.55997 15.5837 6.41164 16.3576 7.12335L19.3813 4.23C17.5243 2.53834 15.1075 1.5 12.2147 1.5C8.02424 1.5 4.40514 3.85665 2.64325 7.28662L6.10753 9.92332C6.97666 7.39166 9.38144 5.55997 12.2147 5.55997Z" fill="#EB4335"/>
</svg>
