<svg width="91" height="91" viewBox="0 0 91 91" fill="none" xmlns="http://www.w3.org/2000/svg">
<g clip-path="url(#clip0)">
<g opacity="0.3">
<path opacity="0.3" d="M22.2932 7.88965C22.2643 7.92272 22.2292 7.9498 22.1898 7.96934C22.1504 7.98888 22.1076 8.0005 22.0637 8.00353C22.0198 8.00657 21.9757 8.00095 21.934 7.98702C21.8923 7.97308 21.8538 7.95109 21.8206 7.92231C21.5496 7.68682 21.2635 7.45982 20.9729 7.24719C20.902 7.19569 20.8542 7.11847 20.8399 7.03219C20.8256 6.94591 20.846 6.85749 20.8965 6.78601L20.9001 6.78079C20.9526 6.70931 21.0314 6.66152 21.1192 6.64792C21.207 6.63433 21.2966 6.65604 21.3684 6.70828C21.6751 6.93234 21.9756 7.17142 22.2607 7.41899C22.3232 7.47299 22.3634 7.54809 22.3736 7.62986C22.3838 7.71162 22.3633 7.79427 22.3161 7.86188C22.309 7.87161 22.3014 7.88088 22.2932 7.88965ZM19.4822 6.30915C19.1643 6.13833 18.8363 5.97927 18.5066 5.83654C18.4636 5.821 18.4242 5.79684 18.3909 5.76554C18.3576 5.73424 18.3311 5.69647 18.313 5.65457C18.2949 5.61266 18.2857 5.5675 18.2858 5.52188C18.2859 5.47626 18.2954 5.43115 18.3137 5.38933C18.332 5.34751 18.3587 5.30987 18.3921 5.27873C18.4256 5.2476 18.4651 5.22363 18.5082 5.2083C18.5513 5.19297 18.5971 5.18661 18.6427 5.18962C18.6884 5.19262 18.733 5.20493 18.7737 5.22577C19.1204 5.37601 19.4658 5.54324 19.8004 5.7232C19.8779 5.76525 19.9356 5.83607 19.961 5.92028C19.9864 6.00449 19.9774 6.09529 19.936 6.17295C19.9296 6.18418 19.9226 6.19508 19.9151 6.20562C19.8682 6.27274 19.7982 6.32036 19.7184 6.33945C19.6386 6.35854 19.5545 6.34775 19.4822 6.30915ZM16.8459 5.25059C16.4988 5.15489 16.1436 5.07291 15.7894 5.00694C15.7455 4.99955 15.7036 4.98354 15.666 4.95984C15.6285 4.93613 15.596 4.90521 15.5706 4.86887C15.5451 4.83253 15.5272 4.79151 15.5178 4.74819C15.5084 4.70486 15.5078 4.66012 15.5159 4.61655C15.5241 4.57299 15.5409 4.53148 15.5653 4.49444C15.5897 4.45741 15.6213 4.4256 15.6582 4.40086C15.6951 4.37612 15.7366 4.35894 15.7802 4.35034C15.8238 4.34174 15.8687 4.34189 15.9123 4.35077C16.2852 4.42001 16.6594 4.50624 17.0248 4.60716C17.0672 4.61887 17.1068 4.63879 17.1415 4.66577C17.1762 4.69276 17.2052 4.72628 17.2268 4.76444C17.2485 4.80259 17.2624 4.84463 17.2678 4.88814C17.2731 4.93165 17.2699 4.97579 17.2581 5.01804C17.2464 5.06029 17.2264 5.09982 17.1993 5.13437C17.1722 5.16892 17.1386 5.19782 17.1003 5.21941C17.062 5.24101 17.0199 5.25488 16.9762 5.26023C16.9325 5.26558 16.8883 5.2623 16.8459 5.25059ZM14.0385 4.8064C13.678 4.79006 13.313 4.78941 12.9532 4.80411C12.8644 4.8077 12.7778 4.776 12.7125 4.71597C12.6471 4.65595 12.6084 4.57251 12.6048 4.48403C12.6012 4.39554 12.633 4.30925 12.6932 4.24414C12.7535 4.17903 12.8372 4.14043 12.926 4.13683C13.3048 4.12148 13.6892 4.12246 14.0683 4.13945C14.157 4.14339 14.2406 4.1823 14.3005 4.24763C14.3605 4.31295 14.3919 4.39934 14.388 4.48778C14.384 4.57622 14.345 4.65948 14.2794 4.71923C14.2139 4.77898 14.1272 4.81034 14.0385 4.8064ZM11.2013 4.99714C10.8474 5.06246 10.4912 5.14085 10.1428 5.23459C10.1001 5.24684 10.0554 5.25049 10.0113 5.24534C9.96711 5.24019 9.92444 5.22633 9.88573 5.20458C9.84702 5.18282 9.81304 5.15361 9.78577 5.11863C9.7585 5.08366 9.73848 5.04362 9.72689 5.00086C9.7153 4.9581 9.71237 4.91346 9.71826 4.86956C9.72415 4.82566 9.73875 4.78336 9.7612 4.74514C9.78366 4.70691 9.81352 4.67353 9.84906 4.64692C9.88459 4.62032 9.92508 4.60103 9.96817 4.59018C10.3349 4.49219 10.7097 4.4076 11.0823 4.34031C11.126 4.33145 11.1711 4.33138 11.2148 4.3401C11.2586 4.34883 11.3001 4.36617 11.337 4.39112C11.374 4.41606 11.4055 4.44811 11.4298 4.48537C11.4541 4.52264 11.4708 4.56437 11.4787 4.60812C11.4866 4.65187 11.4857 4.69676 11.476 4.74015C11.4662 4.78353 11.4479 4.82455 11.4221 4.86079C11.3962 4.89703 11.3634 4.92775 11.3255 4.95117C11.2876 4.97458 11.2453 4.99021 11.2013 4.99714ZM8.47748 5.8078C8.14585 5.94824 7.81651 6.10469 7.49799 6.27257C7.41988 6.31079 7.32991 6.3172 7.24714 6.29046C7.16436 6.26372 7.09528 6.20591 7.05452 6.12929C7.01376 6.05266 7.00452 5.96324 7.02876 5.87994C7.053 5.79665 7.10881 5.72603 7.18438 5.68303C7.51962 5.50633 7.86665 5.34172 8.21532 5.19311C8.25581 5.17595 8.2993 5.16691 8.3433 5.16651C8.3873 5.1661 8.43095 5.17434 8.47175 5.19075C8.51256 5.20715 8.54972 5.23141 8.58112 5.26214C8.61252 5.29286 8.63754 5.32945 8.65476 5.36981C8.67197 5.41017 8.68104 5.45351 8.68145 5.49737C8.68185 5.54122 8.67359 5.58473 8.65713 5.6254C8.64067 5.66607 8.61633 5.70311 8.5855 5.73441C8.55468 5.7657 8.51797 5.79064 8.47748 5.8078ZM0.575399 15.3806C0.488232 15.3642 0.411125 15.3141 0.360995 15.2412C0.310864 15.1683 0.291805 15.0785 0.307999 14.9916C0.378126 14.6202 0.465621 14.2472 0.567535 13.8811C0.592012 13.7964 0.649091 13.7248 0.726322 13.6819C0.803552 13.639 0.894668 13.6283 0.979796 13.6521C1.06492 13.6759 1.13716 13.7323 1.18074 13.809C1.22432 13.8856 1.23572 13.9764 1.21244 14.0614C1.11413 14.4076 1.03254 14.762 0.966014 15.1144C0.957946 15.1575 0.941424 15.1986 0.917394 15.2353C0.893364 15.272 0.862299 15.3036 0.825981 15.3284C0.789662 15.3531 0.748803 15.3704 0.705747 15.3794C0.662691 15.3884 0.618284 15.3888 0.575072 15.3806H0.575399ZM6.00304 7.19951C5.71139 7.40985 5.42531 7.63554 5.15267 7.87005C5.0854 7.92787 4.99784 7.95669 4.90925 7.95017C4.82066 7.94364 4.7383 7.90231 4.68029 7.83526C4.62228 7.76822 4.59336 7.68095 4.59991 7.59265C4.60645 7.50436 4.64792 7.42227 4.71519 7.36445C5.00192 7.11753 5.30504 6.88008 5.61046 6.65863C5.67465 6.61314 5.75286 6.59163 5.83138 6.59787C5.9099 6.60412 5.9837 6.63772 6.03984 6.69278C6.09598 6.74784 6.13088 6.82085 6.13841 6.89899C6.14595 6.97714 6.12563 7.05543 6.08103 7.12014C6.05977 7.15084 6.03339 7.17768 6.00304 7.19951ZM1.36285 12.5792C1.32255 12.5616 1.28611 12.5363 1.25562 12.5047C1.22513 12.4731 1.20118 12.4359 1.18514 12.395C1.1691 12.3542 1.16129 12.3106 1.16215 12.2668C1.16301 12.223 1.17253 12.1797 1.19016 12.1396C1.34188 11.7934 1.51065 11.4494 1.69153 11.1166C1.73386 11.0386 1.80552 10.9806 1.89076 10.9553C1.976 10.93 2.06783 10.9395 2.14605 10.9817C2.22427 11.0239 2.28247 11.0953 2.30785 11.1803C2.33323 11.2652 2.32371 11.3568 2.28139 11.4347C2.10935 11.7509 1.9491 12.0782 1.80492 12.4071C1.79602 12.4276 1.78504 12.4472 1.77215 12.4655C1.7276 12.5287 1.66249 12.5745 1.58787 12.5952C1.51326 12.616 1.43375 12.6103 1.36285 12.5792ZM3.90316 9.1076C3.66623 9.37738 3.43783 9.66088 3.2245 9.95059C3.172 10.0206 3.09401 10.0674 3.0073 10.0807C2.9206 10.0941 2.8321 10.073 2.76084 10.022C2.68957 9.97097 2.64123 9.89413 2.62621 9.80798C2.6112 9.72183 2.6307 9.63324 2.68052 9.56126L2.68445 9.55539C2.90925 9.25065 3.14978 8.9518 3.39916 8.66764C3.45523 8.60185 3.5347 8.56026 3.62088 8.55161C3.70706 8.54296 3.79325 8.56793 3.86135 8.62127C3.92945 8.67461 3.97418 8.75217 3.98613 8.83768C3.99808 8.92318 3.97633 9.00997 3.92544 9.07983C3.91857 9.08951 3.91112 9.09878 3.90316 9.1076Z" fill="#91B3FA"/>
<path opacity="0.3" d="M0.688172 17.5781C0.727346 17.5224 0.748498 17.4561 0.748796 17.388C0.748796 17.2159 0.754039 17.0408 0.761904 16.8681C0.765945 16.7796 0.734571 16.6932 0.674683 16.6278C0.614795 16.5624 0.531299 16.5234 0.442564 16.5194C0.353828 16.5154 0.267121 16.5466 0.201518 16.6063C0.135915 16.666 0.0967891 16.7492 0.0927477 16.8377C0.0845553 17.0196 0.0799676 17.2035 0.0789845 17.3848C0.0785949 17.4559 0.101017 17.5253 0.142981 17.5828C0.184944 17.6404 0.244255 17.6831 0.312263 17.7046C0.380271 17.7262 0.453419 17.7256 0.52104 17.7028C0.588661 17.6801 0.647218 17.6364 0.688172 17.5781Z" fill="#91B3FA"/>
</g>
<g opacity="0.3">
<path opacity="0.3" d="M4.6291 26.9671C4.67485 26.9022 4.69589 26.8231 4.68844 26.7441C4.681 26.6651 4.64555 26.5913 4.58847 26.536C4.4646 26.4161 4.34106 26.2914 4.22178 26.1659C4.1925 26.131 4.15636 26.1023 4.11556 26.0818C4.07476 26.0612 4.03018 26.0492 3.98455 26.0465C3.93892 26.0438 3.89322 26.0504 3.85026 26.0659C3.80729 26.0815 3.76797 26.1056 3.73473 26.1369C3.70148 26.1682 3.675 26.2059 3.65693 26.2477C3.63886 26.2896 3.62957 26.3347 3.62964 26.3802C3.62971 26.4258 3.63913 26.4708 3.65734 26.5126C3.67554 26.5544 3.70213 26.5921 3.73547 26.6232C3.86098 26.7555 3.99108 26.8868 4.1215 27.0132C4.15621 27.047 4.19789 27.0728 4.24363 27.0889C4.28937 27.1051 4.33808 27.111 4.38638 27.1065C4.43468 27.102 4.48141 27.087 4.52333 27.0627C4.56524 27.0383 4.60133 27.0052 4.6291 26.9655V26.9671Z" fill="#91B3FA"/>
<path opacity="0.3" d="M24.0036 25.6669C23.949 25.7367 23.8688 25.7821 23.7806 25.793C23.6925 25.804 23.6036 25.7796 23.5335 25.7252C23.4634 25.6708 23.4179 25.5908 23.4069 25.503C23.3959 25.4151 23.4204 25.3265 23.475 25.2566C23.6916 24.9797 23.8994 24.6893 24.0953 24.3901C24.1451 24.3185 24.2209 24.2691 24.3066 24.2524C24.3923 24.2357 24.4812 24.253 24.5543 24.3007C24.6274 24.3483 24.679 24.4225 24.6981 24.5075C24.7171 24.5924 24.7022 24.6815 24.6563 24.7556C24.5716 24.8849 24.4847 25.0125 24.3958 25.1384C24.2697 25.3177 24.1376 25.4954 24.0036 25.6669ZM25.1017 23.327C25.062 23.3082 25.0264 23.2818 24.9969 23.2493C24.9674 23.2167 24.9447 23.1788 24.93 23.1375C24.9152 23.0962 24.9088 23.0524 24.9111 23.0087C24.9133 22.9649 24.9242 22.922 24.9431 22.8825C25.0951 22.5624 25.2357 22.2328 25.3602 21.9026C25.3748 21.8605 25.3978 21.8217 25.4277 21.7886C25.4576 21.7554 25.4938 21.7286 25.5343 21.7096C25.5747 21.6907 25.6186 21.68 25.6633 21.6782C25.708 21.6764 25.7526 21.6835 25.7944 21.6992C25.8363 21.7149 25.8746 21.7387 25.9071 21.7694C25.9395 21.8 25.9655 21.8368 25.9835 21.8777C26.0014 21.9185 26.011 21.9625 26.0116 22.007C26.0122 22.0516 26.0039 22.0958 25.9871 22.1371C25.856 22.485 25.7082 22.8322 25.548 23.1686C25.5399 23.1857 25.5302 23.2021 25.5192 23.2176C25.4737 23.2819 25.4069 23.3282 25.3305 23.3483C25.2541 23.3683 25.173 23.3607 25.1017 23.327ZM22.7865 27.0223C22.5194 27.2813 22.2376 27.5328 21.9489 27.769C21.9149 27.7968 21.8758 27.8178 21.8337 27.8306C21.7916 27.8434 21.7474 27.8478 21.7036 27.8435C21.6598 27.8393 21.6172 27.8265 21.5784 27.8059C21.5396 27.7853 21.5052 27.7573 21.4772 27.7234C21.4492 27.6895 21.4282 27.6505 21.4154 27.6086C21.4025 27.5666 21.3981 27.5225 21.4024 27.4789C21.4066 27.4352 21.4194 27.3928 21.4401 27.3541C21.4608 27.3154 21.4889 27.2811 21.5229 27.2532C21.7972 27.0285 22.0646 26.7901 22.3182 26.5438C22.378 26.4857 22.4573 26.4519 22.5407 26.4491C22.6241 26.4463 22.7056 26.4746 22.7692 26.5285C22.8327 26.5824 22.8738 26.658 22.8844 26.7406C22.8949 26.8231 22.8741 26.9066 22.8262 26.9746C22.8144 26.9917 22.8011 27.0076 22.7865 27.0223ZM26.111 20.6461C26.0243 20.6266 25.949 20.5737 25.9015 20.4988C25.854 20.424 25.8382 20.3334 25.8577 20.247C25.936 19.9021 25.9999 19.55 26.0484 19.2018C26.0605 19.1141 26.1071 19.0348 26.1779 18.9813C26.2487 18.9279 26.3379 18.9046 26.4259 18.9167C26.5139 18.9288 26.5935 18.9752 26.6471 19.0458C26.7008 19.1163 26.7241 19.2053 26.712 19.293C26.6609 19.6614 26.5934 20.0324 26.5114 20.3953C26.4919 20.4817 26.4387 20.5568 26.3636 20.6041C26.2885 20.6515 26.1977 20.6672 26.111 20.6478V20.6461ZM20.4635 28.8236C20.1459 29.0176 19.8156 29.2008 19.4804 29.3684C19.441 29.3889 19.3979 29.4013 19.3537 29.405C19.3095 29.4088 19.2649 29.4037 19.2227 29.3901C19.1804 29.3765 19.1413 29.3547 19.1076 29.3259C19.0738 29.2971 19.0462 29.2619 19.0263 29.2224C19.0063 29.1828 18.9945 29.1397 18.9914 29.0956C18.9883 29.0514 18.9941 29.0071 19.0083 28.9652C19.0226 28.9233 19.0451 28.8846 19.0745 28.8515C19.1039 28.8183 19.1396 28.7913 19.1795 28.772C19.4964 28.6129 19.8104 28.4388 20.1115 28.2543C20.1872 28.2108 20.2768 28.1985 20.3615 28.2199C20.4461 28.2413 20.519 28.2948 20.5647 28.369C20.6104 28.4431 20.6252 28.5321 20.6061 28.617C20.5869 28.7019 20.5353 28.776 20.4622 28.8236H20.4635ZM17.7999 30.0732C17.447 30.1937 17.0846 30.3019 16.7231 30.3917C16.6805 30.4024 16.6361 30.4046 16.5926 30.3983C16.5491 30.3919 16.5073 30.3771 16.4695 30.3546C16.4317 30.3321 16.3988 30.3025 16.3725 30.2673C16.3463 30.2321 16.3272 30.1922 16.3165 30.1497C16.3057 30.1071 16.3035 30.0629 16.3098 30.0196C16.3162 29.9762 16.3311 29.9345 16.3537 29.8969C16.3762 29.8592 16.406 29.8264 16.4412 29.8002C16.4765 29.774 16.5166 29.755 16.5593 29.7443C16.9027 29.6581 17.2474 29.5562 17.5827 29.4415C17.6243 29.4274 17.6683 29.4215 17.7122 29.4242C17.7561 29.427 17.799 29.4383 17.8385 29.4576C17.878 29.4769 17.9133 29.5038 17.9424 29.5366C17.9715 29.5695 17.9938 29.6078 18.008 29.6493C18.0223 29.6908 18.0282 29.7346 18.0254 29.7784C18.0227 29.8221 18.0113 29.8649 17.9919 29.9043C17.9726 29.9436 17.9456 29.9788 17.9126 30.0078C17.8796 30.0368 17.8412 30.059 17.7996 30.0732H17.7999ZM14.9267 30.715C14.5554 30.7558 14.1782 30.782 13.8057 30.7918C13.7613 30.7937 13.7169 30.7867 13.6753 30.7714C13.6336 30.7561 13.5954 30.7326 13.5629 30.7024C13.5304 30.6722 13.5043 30.6359 13.486 30.5955C13.4677 30.5551 13.4577 30.5115 13.4565 30.4673C13.4553 30.423 13.463 30.3789 13.479 30.3376C13.4951 30.2964 13.5192 30.2587 13.55 30.2268C13.5809 30.1949 13.6177 30.1694 13.6585 30.1518C13.6993 30.1343 13.7432 30.125 13.7876 30.1245C14.1415 30.115 14.5 30.0902 14.853 30.0513C14.9413 30.0416 15.0298 30.0672 15.0992 30.1226C15.1685 30.1779 15.213 30.2584 15.2228 30.3464C15.2326 30.4344 15.2069 30.5227 15.1513 30.5918C15.0958 30.661 15.015 30.7053 14.9267 30.715ZM11.9817 30.7167C11.6104 30.6758 11.2365 30.6187 10.8705 30.5468C10.7833 30.5297 10.7065 30.4788 10.657 30.4053C10.6075 30.3317 10.5894 30.2416 10.6065 30.1547C10.6237 30.0678 10.6748 29.9913 10.7485 29.942C10.8223 29.8926 10.9127 29.8745 10.9999 29.8916C11.3473 29.9599 11.7025 30.0141 12.0551 30.053C12.1434 30.0627 12.2242 30.1069 12.2798 30.176C12.3353 30.2451 12.3611 30.3334 12.3513 30.4214C12.3416 30.5094 12.2972 30.59 12.2279 30.6453C12.1585 30.7007 12.07 30.7264 11.9817 30.7167ZM9.10648 30.0726C8.75421 29.9507 8.40226 29.8139 8.06146 29.6633C8.02122 29.6456 7.98489 29.6201 7.95452 29.5884C7.92416 29.5567 7.90036 29.5193 7.88449 29.4784C7.86862 29.4375 7.86099 29.3939 7.86204 29.35C7.86308 29.3062 7.87277 29.263 7.89057 29.2229C7.90836 29.1828 7.93391 29.1466 7.96574 29.1163C7.99758 29.086 8.03509 29.0623 8.07612 29.0465C8.11716 29.0307 8.16091 29.0231 8.2049 29.0241C8.24888 29.0252 8.29223 29.0348 8.33247 29.0526C8.65688 29.1956 8.99113 29.3266 9.32571 29.4415C9.36732 29.4558 9.40569 29.4782 9.43863 29.5072C9.47157 29.5363 9.49845 29.5716 9.51771 29.611C9.53697 29.6504 9.54825 29.6933 9.5509 29.737C9.55355 29.7808 9.54752 29.8247 9.53315 29.8661C9.52274 29.8957 9.50841 29.9237 9.49054 29.9494C9.44865 30.0088 9.3885 30.0529 9.3192 30.0751C9.24991 30.0973 9.17523 30.0964 9.10648 30.0726ZM6.44624 28.8167C6.21227 28.6734 5.97993 28.5208 5.75546 28.3637C5.67419 28.3069 5.59423 28.2494 5.5146 28.1909C5.47877 28.1653 5.44843 28.1327 5.42538 28.0952C5.40233 28.0577 5.38703 28.016 5.38038 27.9726C5.37372 27.9291 5.37585 27.8847 5.38663 27.8421C5.39741 27.7994 5.41663 27.7593 5.44317 27.7242C5.46921 27.6889 5.502 27.659 5.53965 27.6363C5.57729 27.6136 5.61906 27.5985 5.66256 27.592C5.70605 27.5854 5.75042 27.5874 5.79313 27.5979C5.83584 27.6085 5.87604 27.6273 5.91144 27.6533C5.98725 27.7086 6.06371 27.7631 6.14083 27.8166C6.35383 27.9659 6.5747 28.1106 6.79622 28.2471C6.87181 28.2936 6.92583 28.368 6.94641 28.4541C6.96699 28.5402 6.95246 28.6309 6.906 28.7063C6.90207 28.7122 6.89847 28.7181 6.89453 28.7236C6.84563 28.793 6.7721 28.8412 6.68884 28.8585C6.60559 28.8758 6.51886 28.8608 6.44624 28.8167Z" fill="#91B3FA"/>
<path opacity="0.3" d="M26.7761 17.6593C26.8163 17.6034 26.8381 17.5364 26.8384 17.4676C26.8384 17.2869 26.8344 17.1027 26.8269 16.9202C26.8257 16.8759 26.8157 16.8323 26.7975 16.792C26.7793 16.7516 26.7532 16.7153 26.7207 16.6851C26.6883 16.6549 26.6501 16.6314 26.6085 16.616C26.5669 16.6006 26.5226 16.5937 26.4782 16.5955C26.4338 16.5973 26.3903 16.608 26.3501 16.6267C26.3099 16.6455 26.2738 16.6721 26.244 16.7049C26.2142 16.7377 26.1912 16.776 26.1764 16.8178C26.1616 16.8595 26.1552 16.9037 26.1578 16.9479C26.1646 17.121 26.1686 17.2961 26.1686 17.4676C26.1686 17.5385 26.1914 17.6075 26.2334 17.6647C26.2755 17.7219 26.3348 17.7642 26.4026 17.7856C26.4704 17.8069 26.5433 17.8062 26.6107 17.7835C26.6781 17.7608 26.7365 17.7173 26.7774 17.6593H26.7761Z" fill="#91B3FA"/>
</g>
<path d="M22.7199 13.609C22.7112 13.5777 22.6928 13.5499 22.6674 13.5295C22.6421 13.5092 22.6109 13.4972 22.5784 13.4953L20.6777 13.3846C20.2424 12.597 19.6812 11.8854 19.0163 11.2776L19.3561 9.41035C19.3619 9.37849 19.3576 9.34564 19.3437 9.31636C19.3298 9.28708 19.3071 9.26285 19.2788 9.24704L17.2844 8.13296C17.256 8.11705 17.2233 8.11036 17.1909 8.11381C17.1585 8.11727 17.128 8.13069 17.1036 8.15223L15.6813 9.41395C14.8146 9.16412 13.9127 9.057 13.0113 9.0968L11.9263 7.53591C11.9077 7.50924 11.8812 7.48901 11.8506 7.47801C11.8199 7.467 11.7866 7.46578 11.7552 7.4745L9.55506 8.0905C9.52382 8.09928 9.49607 8.1175 9.47565 8.14266C9.45522 8.16781 9.44313 8.19865 9.44103 8.23094L9.33026 10.1253C8.53994 10.5592 7.82591 11.1186 7.2163 11.7816L5.34154 11.4435C5.30958 11.4378 5.27661 11.4421 5.24724 11.4559C5.21787 11.4698 5.19355 11.4924 5.1777 11.5206L4.05894 13.5068C4.04296 13.535 4.03623 13.5676 4.0397 13.5998C4.04316 13.6321 4.05665 13.6625 4.07827 13.6867L5.34417 15.1046C5.09377 15.9685 4.98641 16.8674 5.0263 17.7658L3.46057 18.846C3.43382 18.8645 3.41351 18.8909 3.40247 18.9214C3.39144 18.952 3.39021 18.9852 3.39896 19.0164L4.01699 21.2093C4.02584 21.2406 4.04422 21.2683 4.06959 21.2887C4.09495 21.309 4.12605 21.321 4.15856 21.323L6.0592 21.4334C6.49439 22.2212 7.05569 22.9329 7.72095 23.5404L7.3808 25.4077C7.37513 25.4395 7.37952 25.4723 7.39337 25.5016C7.40723 25.5308 7.42986 25.5551 7.45814 25.571L9.45086 26.686C9.4793 26.7019 9.51202 26.7086 9.54445 26.7051C9.57688 26.7016 9.6074 26.6881 9.63175 26.6664L11.0539 25.4051C11.9208 25.6546 12.8226 25.7616 13.724 25.7219L14.812 27.285C14.8305 27.3117 14.857 27.332 14.8877 27.3429C14.9184 27.3539 14.9517 27.355 14.983 27.3461L17.1832 26.7305C17.2146 26.7217 17.2424 26.7034 17.2628 26.6781C17.2833 26.6528 17.2953 26.6218 17.2972 26.5894L17.4067 24.6924C18.1971 24.2586 18.9113 23.6991 19.521 23.0361L21.3941 23.3751C21.426 23.3807 21.459 23.3763 21.4883 23.3625C21.5176 23.3487 21.542 23.3262 21.5579 23.2981L22.6767 21.3129C22.6926 21.2846 22.6994 21.252 22.6959 21.2197C22.6924 21.1874 22.679 21.1569 22.6574 21.1326L21.3921 19.7148C21.6425 18.8509 21.7499 17.9521 21.7103 17.0538L23.2764 15.9717C23.3031 15.9532 23.3234 15.9268 23.3344 15.8963C23.3454 15.8657 23.3467 15.8325 23.338 15.8012L22.7199 13.609Z" fill="#91B3FA"/>
<path d="M15.0354 18.9849C14.6274 19.4148 14.0681 19.6703 13.475 19.6976C12.8819 19.725 12.3013 19.5221 11.8552 19.1315C11.4091 18.741 11.1323 18.1933 11.083 17.6036C11.0337 17.0139 11.2157 16.4281 11.5908 15.9694C11.9659 15.5106 12.5048 15.2148 13.0943 15.1439C13.6837 15.073 14.2778 15.2327 14.7516 15.5894C15.2253 15.9461 15.5419 16.472 15.6346 17.0565C15.7274 17.641 15.5892 18.2386 15.2491 18.7236C15.1842 18.8157 15.1128 18.903 15.0354 18.9849ZM11.6077 17.456C11.6184 17.8618 11.77 18.2514 12.0366 18.5584C12.3031 18.8654 12.6682 19.0708 13.0696 19.1396C13.4711 19.2084 13.884 19.1364 14.2382 18.9358C14.5923 18.7352 14.8658 18.4185 15.0119 18.0395C15.1581 17.6606 15.1679 17.2428 15.0397 16.8575C14.9116 16.4721 14.6533 16.1429 14.309 15.926C13.9647 15.7091 13.5556 15.6179 13.1513 15.6679C12.7471 15.7179 12.3728 15.906 12.092 16.2001C12.0322 16.2634 11.9769 16.3307 11.9266 16.4017C11.7088 16.7095 11.5969 17.0794 11.6077 17.456Z" fill="#BDD0FB"/>
<path d="M17.9365 20.6643C18.0479 20.5064 18.1512 20.3429 18.2458 20.1744C18.276 20.1211 18.3052 20.0673 18.3336 20.0131C18.473 19.7461 18.5907 19.4685 18.6856 19.1828L18.6895 19.1711L18.7003 19.1384C18.7072 19.1172 18.7141 19.0956 18.7206 19.0731C18.7267 19.0561 18.7292 19.0381 18.728 19.0201C18.7269 19.0022 18.7221 18.9846 18.714 18.9686C18.7059 18.9525 18.6946 18.9382 18.6808 18.9266C18.667 18.915 18.651 18.9062 18.6338 18.9009C18.6165 18.8956 18.5984 18.8939 18.5804 18.8957C18.5625 18.8976 18.5451 18.903 18.5293 18.9117C18.5135 18.9205 18.4996 18.9323 18.4885 18.9465C18.4774 18.9607 18.4693 18.977 18.4647 18.9944C18.2279 19.7593 17.8225 20.4617 17.2781 21.0502C16.7337 21.6388 16.0641 22.0985 15.3183 22.3957C14.5726 22.6929 13.7696 22.8201 12.9682 22.7679C12.1667 22.7158 11.3871 22.4856 10.6865 22.0943C10.5255 22.0041 10.3691 21.906 10.2179 21.8003C9.13046 21.0349 8.36619 19.895 8.07272 18.6008C7.77925 17.3066 7.9774 15.9499 8.6289 14.7928C10.0822 12.2125 13.3677 11.2944 15.9546 12.742C16.8033 13.2164 17.507 13.9116 17.9905 14.7533C18.0002 14.7704 18.0137 14.7851 18.0299 14.7964C18.0548 14.8138 18.085 14.8223 18.1154 14.8204C18.1458 14.8185 18.1747 14.8062 18.1972 14.7858C18.2197 14.7653 18.2346 14.7378 18.2393 14.7078C18.244 14.6777 18.2384 14.647 18.2232 14.6206C17.8122 13.9051 17.2482 13.2884 16.5713 12.8145C16.4147 12.7048 16.2527 12.603 16.086 12.5094C13.37 10.99 9.91969 11.9568 8.39525 14.6628C7.7113 15.8775 7.50329 17.3018 7.81141 18.6604C8.11953 20.0191 8.92191 21.2157 10.0636 22.0191C10.2221 22.1301 10.3862 22.2331 10.5551 22.3278C11.7739 23.0097 13.2031 23.2171 14.5664 22.9099C15.9297 22.6027 17.1303 21.8026 17.9361 20.6643H17.9365Z" fill="#BDD0FB"/>
<g opacity="0.3">
<path opacity="0.3" d="M36.1079 3.5991C36.1336 3.56265 36.1467 3.5189 36.1453 3.47439C36.144 3.42987 36.1282 3.387 36.1003 3.35217C35.9909 3.21532 35.8759 3.07978 35.7582 2.94978C35.7402 2.92914 35.7183 2.91227 35.6936 2.90017C35.669 2.88806 35.6422 2.88097 35.6148 2.87929C35.5874 2.87762 35.56 2.8814 35.534 2.89041C35.5081 2.89943 35.4843 2.91349 35.4639 2.9318C35.4434 2.9501 35.4269 2.97226 35.4152 2.99701C35.4035 3.02175 35.3968 3.04857 35.3956 3.0759C35.3944 3.10324 35.3986 3.13054 35.4081 3.15621C35.4176 3.18189 35.4321 3.20542 35.4508 3.22545C35.5629 3.34956 35.6724 3.47858 35.7785 3.60922C35.7955 3.63039 35.8164 3.64804 35.8402 3.66114C35.864 3.67424 35.8901 3.68254 35.9171 3.68558C35.9441 3.68861 35.9714 3.68631 35.9975 3.67882C36.0236 3.67132 36.048 3.65877 36.0692 3.64188C36.084 3.62947 36.097 3.61507 36.1079 3.5991Z" fill="#91B3FA"/>
<path opacity="0.3" d="M34.9934 2.47124C34.9575 2.51258 34.9065 2.538 34.8518 2.54192C34.797 2.54584 34.7429 2.52793 34.7014 2.49214C34.4827 2.30324 34.2544 2.12555 34.0175 1.95976C33.9677 1.92481 33.9192 1.89052 33.8665 1.85655C33.8439 1.84143 33.8246 1.82204 33.8096 1.79948C33.7946 1.77692 33.7842 1.75163 33.779 1.72506C33.7738 1.69849 33.7739 1.67116 33.7793 1.64463C33.7847 1.6181 33.7953 1.59289 33.8104 1.57043C33.8421 1.52637 33.8894 1.49602 33.9428 1.48558C33.9961 1.47514 34.0515 1.4854 34.0975 1.51426C34.1506 1.54975 34.2032 1.58579 34.2554 1.62237C34.5038 1.7963 34.7431 1.98271 34.9724 2.18088C35.0134 2.21699 35.0385 2.26763 35.0424 2.32196C35.0463 2.37629 35.0287 2.43 34.9934 2.47157V2.47124ZM32.9617 1.32613C32.6493 1.16807 32.3274 1.02933 31.9979 0.910671C31.9494 0.890017 31.9106 0.851669 31.8895 0.803462C31.8683 0.755255 31.8665 0.700826 31.8842 0.651293C31.902 0.601761 31.9381 0.560862 31.9851 0.536953C32.0321 0.513044 32.0865 0.507929 32.1372 0.522651C32.4826 0.647305 32.8201 0.79281 33.1478 0.958356C33.1721 0.970608 33.1936 0.987503 33.2113 1.00807C33.229 1.02865 33.2425 1.05249 33.2509 1.07825C33.2593 1.104 33.2626 1.13116 33.2605 1.15817C33.2584 1.18518 33.2509 1.21151 33.2386 1.23565C33.234 1.24448 33.2289 1.25299 33.2232 1.26113C33.1946 1.30165 33.1522 1.33053 33.1039 1.34247C33.0557 1.35441 33.0047 1.3486 32.9604 1.32613H32.9617ZM30.988 0.617043C30.6463 0.540075 30.3001 0.484334 29.9515 0.450143C29.8984 0.442901 29.8502 0.415438 29.817 0.373524C29.7838 0.33161 29.7682 0.278505 29.7735 0.225364C29.7787 0.172223 29.8044 0.123181 29.8452 0.0885397C29.886 0.0538979 29.9386 0.0363518 29.9921 0.0395867C30.3579 0.0756246 30.7211 0.134091 31.0797 0.214653C31.1062 0.220615 31.1313 0.231722 31.1535 0.247341C31.1757 0.262961 31.1946 0.282785 31.2091 0.305684C31.2236 0.328582 31.2335 0.354106 31.2381 0.380798C31.2427 0.407489 31.242 0.434826 31.236 0.461248C31.2301 0.487669 31.2189 0.512657 31.2032 0.534786C31.1876 0.556914 31.1677 0.57575 31.1447 0.590217C31.1217 0.604684 31.0961 0.614499 31.0694 0.619102C31.0426 0.623705 31.0151 0.623005 30.9886 0.617043H30.988ZM28.9009 0.412255C28.5504 0.421431 28.2009 0.451972 27.8542 0.503708C27.8273 0.507718 27.7999 0.506413 27.7736 0.499868C27.7472 0.493322 27.7224 0.481664 27.7005 0.46556C27.6787 0.449455 27.6602 0.429219 27.6462 0.406007C27.6322 0.382794 27.623 0.357061 27.6189 0.330275C27.6149 0.303489 27.6162 0.276175 27.6228 0.249894C27.6294 0.223612 27.641 0.198877 27.6572 0.1771C27.6734 0.155324 27.6937 0.136933 27.717 0.122978C27.7402 0.109022 27.7661 0.099775 27.7929 0.0957646C28.1564 0.0414516 28.523 0.00949173 28.8904 6.62483e-05C28.9175 -0.00062002 28.9446 0.00403122 28.9699 0.0137544C28.9953 0.0234776 29.0185 0.0380823 29.0381 0.0567347C29.0578 0.0753871 29.0736 0.0977218 29.0847 0.122464C29.0957 0.147206 29.1017 0.17387 29.1024 0.200935C29.1031 0.228 29.0984 0.254934 29.0887 0.280202C29.0789 0.305469 29.0643 0.328573 29.0456 0.348196C29.0268 0.367819 29.0044 0.383576 28.9796 0.394567C28.9548 0.405559 28.928 0.411569 28.9009 0.412255ZM26.8269 0.721887C26.4894 0.815644 26.1579 0.929734 25.8343 1.06353C25.8092 1.07391 25.7823 1.07926 25.7552 1.07928C25.728 1.0793 25.7011 1.07399 25.676 1.06365C25.6509 1.0533 25.6281 1.03813 25.6088 1.019C25.5896 0.999873 25.5744 0.977157 25.5639 0.952151C25.5535 0.927145 25.5482 0.900339 25.5481 0.873265C25.5481 0.84619 25.5535 0.819377 25.5638 0.794355C25.5742 0.769334 25.5894 0.746594 25.6086 0.727435C25.6278 0.708276 25.6506 0.693073 25.6757 0.682693C26.0149 0.541995 26.3623 0.422014 26.7161 0.323416C26.7682 0.311121 26.8231 0.319422 26.8692 0.346574C26.9153 0.373727 26.9491 0.417621 26.9634 0.469047C26.9777 0.520472 26.9715 0.575431 26.9461 0.622389C26.9206 0.669348 26.8779 0.704657 26.8269 0.720907V0.721887ZM24.8912 1.52373C24.587 1.69636 24.2937 1.88746 24.013 2.09596C23.9912 2.11215 23.9664 2.12391 23.9401 2.13056C23.9138 2.13722 23.8864 2.13863 23.8595 2.13474C23.8052 2.12687 23.7563 2.09782 23.7234 2.05399C23.6906 2.01016 23.6766 1.95513 23.6845 1.90101C23.6924 1.8469 23.7216 1.79812 23.7656 1.76542C24.06 1.54671 24.3676 1.34622 24.6867 1.1651C24.7276 1.1421 24.7751 1.13363 24.8214 1.14106C24.8678 1.14849 24.9102 1.17139 24.9418 1.20601C24.9733 1.24063 24.9922 1.28491 24.9952 1.3316C24.9982 1.37829 24.9852 1.42461 24.9584 1.46298C24.9408 1.48799 24.9179 1.50876 24.8912 1.52373ZM23.2117 2.77271C22.9591 3.01458 22.7217 3.27179 22.501 3.54287C22.4662 3.58535 22.4159 3.61234 22.3612 3.61788C22.3065 3.62343 22.2518 3.60707 22.2092 3.57242C22.1665 3.53778 22.1395 3.48767 22.1339 3.43312C22.1283 3.37858 22.1447 3.32406 22.1795 3.28157C22.4112 2.99728 22.6603 2.72753 22.9253 2.47385C22.9615 2.43332 23.0121 2.4086 23.0664 2.40505C23.1207 2.4015 23.1742 2.41941 23.2153 2.4549C23.2564 2.49038 23.2819 2.54058 23.2861 2.59463C23.2903 2.64868 23.273 2.70221 23.238 2.74364C23.2303 2.7542 23.2215 2.76394 23.2117 2.77271ZM21.1145 5.41437C21.0651 5.39103 21.027 5.3491 21.0085 5.29779C20.9901 5.24647 20.9929 5.18997 21.0162 5.14067C21.1506 4.8526 21.3002 4.57176 21.4641 4.29931C21.489 4.25783 21.5146 4.217 21.5402 4.17617C21.5702 4.13188 21.6163 4.10095 21.6688 4.08992C21.7213 4.07889 21.7761 4.08863 21.8215 4.11708C21.8669 4.14552 21.8995 4.19044 21.9123 4.24236C21.9251 4.29428 21.9171 4.34913 21.8901 4.39533C21.8662 4.43355 21.8423 4.47209 21.8187 4.51193C21.6609 4.7718 21.5172 5.0399 21.3881 5.31508C21.383 5.32649 21.3768 5.33742 21.3698 5.34774C21.3417 5.38711 21.3005 5.41536 21.2536 5.42754C21.2067 5.43972 21.157 5.43506 21.1132 5.41437H21.1145Z" fill="#91B3FA"/>
</g>
<g opacity="0.3">
<path opacity="0.3" d="M36.3498 14.1245C36.1381 14.4161 35.9091 14.6948 35.6639 14.959C35.6261 14.9969 35.575 15.0186 35.5214 15.0197C35.4678 15.0207 35.4159 15.0011 35.3766 14.9648C35.3372 14.9285 35.3135 14.8784 35.3105 14.8251C35.3074 14.7717 35.3252 14.7193 35.3601 14.6788C35.5945 14.4266 35.8133 14.1606 36.0155 13.8822C36.0313 13.8601 36.0513 13.8414 36.0743 13.827C36.0973 13.8127 36.123 13.803 36.1498 13.7985C36.1766 13.794 36.204 13.7949 36.2305 13.801C36.2569 13.8071 36.2819 13.8183 36.3041 13.834C36.3262 13.8497 36.345 13.8696 36.3594 13.8926C36.3738 13.9155 36.3835 13.9411 36.388 13.9678C36.3925 13.9945 36.3916 14.0218 36.3855 14.0482C36.3794 14.0746 36.3682 14.0995 36.3524 14.1216L36.3498 14.1245ZM36.649 13.293C36.6252 13.2798 36.6043 13.2622 36.5874 13.241C36.5704 13.2198 36.5579 13.1955 36.5504 13.1695C36.5429 13.1435 36.5406 13.1162 36.5437 13.0893C36.5468 13.0624 36.5552 13.0364 36.5683 13.0127C36.7352 12.7126 36.884 12.4027 37.0137 12.0848C37.0343 12.0341 37.0743 11.9937 37.1249 11.9724C37.1754 11.9511 37.2324 11.9507 37.2832 11.9713C37.3341 11.9919 37.3746 12.0317 37.396 12.0821C37.4173 12.1325 37.4177 12.1893 37.3971 12.2399C37.2615 12.573 37.106 12.8977 36.9314 13.2123C36.9279 13.2189 36.9239 13.2254 36.9196 13.2316C36.8902 13.2735 36.8463 13.303 36.7962 13.3144C36.7462 13.3258 36.6937 13.3183 36.649 13.2933V13.293ZM34.8794 15.706C34.6033 15.9384 34.3133 16.154 34.011 16.3514C33.9651 16.379 33.9103 16.3877 33.8581 16.3759C33.8059 16.3641 33.7603 16.3325 33.7309 16.2879C33.7015 16.2432 33.6906 16.189 33.7005 16.1365C33.7104 16.0841 33.7403 16.0374 33.7839 16.0065C34.0723 15.8182 34.3491 15.6127 34.6126 15.3911C34.6511 15.3589 34.6999 15.3417 34.7501 15.3428C34.8003 15.3438 34.8484 15.363 34.8854 15.3968C34.9225 15.4306 34.9459 15.4766 34.9514 15.5264C34.9568 15.5761 34.9439 15.6262 34.9151 15.6671C34.9053 15.6814 34.8937 15.6945 34.8807 15.706H34.8794ZM37.4885 11.3597C37.4622 11.3527 37.4376 11.3406 37.4161 11.3241C37.3945 11.3076 37.3764 11.287 37.3628 11.2635C37.3493 11.2401 37.3405 11.2141 37.3369 11.1873C37.3334 11.1604 37.3353 11.1331 37.3424 11.1069C37.4318 10.775 37.5009 10.438 37.5491 10.0977C37.5568 10.0435 37.5858 9.99466 37.6296 9.9618C37.6735 9.92894 37.7286 9.91478 37.7829 9.92245C37.8373 9.93011 37.8863 9.95897 37.9193 10.0027C37.9522 10.0464 37.9664 10.1013 37.9588 10.1555C37.9083 10.5124 37.8359 10.866 37.7418 11.214C37.7355 11.2374 37.7252 11.2595 37.7113 11.2794C37.6869 11.3139 37.6524 11.3401 37.6126 11.3544C37.5728 11.3688 37.5294 11.3707 37.4885 11.3597ZM33.0721 16.8861C32.748 17.0453 32.4146 17.1849 32.0737 17.3041C32.0477 17.3142 32.0201 17.3191 31.9922 17.3183C31.9644 17.3175 31.937 17.3111 31.9117 17.2996C31.8864 17.288 31.8637 17.2715 31.845 17.251C31.8263 17.2305 31.8118 17.2064 31.8026 17.1802C31.7934 17.1541 31.7896 17.1263 31.7914 17.0986C31.7932 17.071 31.8006 17.0439 31.8131 17.0191C31.8256 16.9944 31.843 16.9724 31.8642 16.9544C31.8855 16.9365 31.9101 16.923 31.9367 16.9148C32.262 16.8013 32.58 16.6681 32.889 16.516C32.9379 16.4938 32.9937 16.4914 33.0444 16.5094C33.0951 16.5274 33.1367 16.5644 33.1605 16.6125C33.1844 16.6606 33.1885 16.7161 33.172 16.7671C33.1554 16.8182 33.1197 16.8608 33.0721 16.8861ZM31.0329 17.6004C30.6795 17.6773 30.3218 17.7333 29.9617 17.7679C29.907 17.7731 29.8526 17.7565 29.8103 17.7216C29.768 17.6868 29.7413 17.6367 29.736 17.5822C29.7308 17.5278 29.7475 17.4735 29.7825 17.4313C29.8174 17.3892 29.8677 17.3626 29.9223 17.3574C30.2655 17.3242 30.6064 17.2707 30.9431 17.197C30.9968 17.1851 31.053 17.195 31.0993 17.2244C31.1457 17.2539 31.1784 17.3004 31.1904 17.3539C31.2023 17.4074 31.1924 17.4634 31.1628 17.5096C31.1333 17.5559 31.0866 17.5885 31.0329 17.6004ZM28.8799 17.8068C28.5185 17.7975 28.1579 17.7665 27.8002 17.714C27.7471 17.7047 27.6998 17.6751 27.6683 17.6315C27.6368 17.5879 27.6235 17.5338 27.6314 17.4807C27.6392 17.4276 27.6675 17.3796 27.7103 17.3469C27.7531 17.3142 27.8069 17.2995 27.8605 17.3058C28.2015 17.3562 28.5454 17.3857 28.8901 17.3943C28.9438 17.3973 28.9943 17.421 29.0307 17.4604C29.0672 17.4998 29.0869 17.5518 29.0856 17.6054C29.0843 17.659 29.062 17.71 29.0237 17.7476C28.9853 17.7852 28.9337 17.8064 28.8799 17.8068Z" fill="#91B3FA"/>
<path opacity="0.3" d="M38.0082 9.18387C38.0319 9.15023 38.045 9.11033 38.0459 9.06923C38.0488 8.89253 38.0459 8.71551 38.0396 8.54207C38.0354 8.48887 38.0106 8.43937 37.9705 8.40397C37.9305 8.36857 37.8782 8.35003 37.8247 8.35223C37.7712 8.35442 37.7206 8.37719 37.6836 8.41576C37.6465 8.45432 37.6259 8.50568 37.6261 8.55906C37.633 8.72432 37.6349 8.89351 37.632 9.06205C37.6312 9.1062 37.6446 9.14944 37.6704 9.18539C37.6961 9.22135 37.7327 9.24813 37.7748 9.26177C37.817 9.27542 37.8624 9.27521 37.9044 9.26119C37.9464 9.24716 37.9828 9.22006 38.0082 9.18387Z" fill="#91B3FA"/>
</g>
<path d="M35.3092 6.32538C35.3033 6.30448 35.291 6.28593 35.274 6.2723C35.2571 6.25867 35.2363 6.25062 35.2145 6.24928L33.9417 6.17546C33.6504 5.64838 33.2749 5.17213 32.8299 4.76546L33.0573 3.51616C33.0612 3.49477 33.0583 3.47271 33.049 3.45304C33.0397 3.43337 33.0245 3.41707 33.0055 3.40642L31.6721 2.6601C31.6531 2.64948 31.6312 2.64503 31.6096 2.64737C31.5879 2.64972 31.5675 2.65873 31.5512 2.67316L30.5992 3.51747C30.0192 3.35035 29.4158 3.27864 28.8126 3.30517L28.0865 2.26C28.0738 2.24248 28.056 2.22932 28.0355 2.22235C28.015 2.21539 27.9928 2.21496 27.9721 2.22113L26.5001 2.63201C26.479 2.63779 26.4603 2.65001 26.4466 2.66695C26.4329 2.68389 26.4249 2.70468 26.4237 2.7264L26.3493 3.99498C25.8205 4.28522 25.3428 4.65955 24.935 5.10318L23.6812 4.87651C23.6598 4.87259 23.6376 4.87545 23.6179 4.8847C23.5981 4.89396 23.5818 4.90914 23.5711 4.92812L22.8227 6.25712C22.812 6.27606 22.8075 6.29786 22.8098 6.31947C22.8122 6.34109 22.8213 6.36142 22.8358 6.37764L23.6825 7.32646C23.515 7.90455 23.4431 8.50602 23.4699 9.10716L22.4212 9.83062C22.4033 9.84299 22.3897 9.86061 22.3823 9.88104C22.3749 9.90147 22.3741 9.92369 22.38 9.94461L22.7935 11.4121C22.7994 11.433 22.8116 11.4516 22.8286 11.4653C22.8456 11.4789 22.8664 11.4869 22.8882 11.4882L24.1616 11.5623C24.4529 12.0894 24.8285 12.5657 25.2735 12.9723L25.0461 14.222C25.0422 14.2433 25.0451 14.2653 25.0543 14.285C25.0636 14.3046 25.0789 14.3208 25.0979 14.3314L26.4313 15.0777C26.4503 15.0884 26.4721 15.0928 26.4938 15.0905C26.5155 15.0882 26.5359 15.0791 26.5522 15.0646L27.5041 14.2203C28.0841 14.3875 28.6876 14.4592 29.2907 14.4326L30.0169 15.4778C30.0294 15.4956 30.047 15.5091 30.0675 15.5165C30.088 15.5239 30.1103 15.5247 30.1313 15.519L31.6036 15.1068C31.6246 15.1008 31.6432 15.0885 31.6568 15.0715C31.6705 15.0545 31.6784 15.0338 31.6796 15.012L31.7537 13.7428C32.2826 13.4524 32.7604 13.0779 33.1684 12.6343L34.4218 12.8613C34.4433 12.8651 34.4654 12.8621 34.4851 12.8529C34.5048 12.8437 34.5212 12.8286 34.5319 12.8097L35.2804 11.4804C35.2911 11.4614 35.2956 11.4397 35.2933 11.4181C35.291 11.3965 35.282 11.3761 35.2676 11.3598L34.4205 10.4126C34.5881 9.83455 34.6599 9.23309 34.6332 8.63194L35.6818 7.90816C35.6997 7.89579 35.7133 7.87817 35.7207 7.85774C35.7281 7.83731 35.7289 7.81509 35.7231 7.79417L35.3092 6.32538Z" fill="#91B3FA"/>
<path d="M30.1874 9.94146C29.9096 10.2324 29.5294 10.4046 29.1269 10.422C28.7243 10.4394 28.3306 10.3006 28.0286 10.0347C27.7265 9.76886 27.5397 9.39664 27.5073 8.99631C27.4748 8.59598 27.5994 8.19871 27.8547 7.88799C28.11 7.57727 28.4762 7.37729 28.8764 7.3301C29.2766 7.2829 29.6795 7.39215 30.0006 7.63489C30.3216 7.87763 30.5357 8.23496 30.5979 8.63178C30.6602 9.0286 30.5656 9.434 30.3342 9.7628C30.2896 9.82577 30.2406 9.88548 30.1874 9.94146ZM28.2596 9.70041C28.4809 9.90971 28.7766 10.0228 29.0816 10.0148C29.3865 10.0069 29.6759 9.87851 29.8859 9.65795C29.9899 9.54858 30.0713 9.41986 30.1254 9.27914C30.1795 9.13841 30.2053 8.98845 30.2012 8.83781C30.1972 8.68716 30.1634 8.53879 30.1018 8.40115C30.0402 8.26352 29.9521 8.13932 29.8423 8.03565C29.7326 7.93198 29.6034 7.85087 29.4623 7.79695C29.3211 7.74303 29.1706 7.71735 29.0195 7.72138C28.8683 7.72542 28.7195 7.75908 28.5814 7.82046C28.4433 7.88183 28.3187 7.96972 28.2147 8.07909C28.1759 8.12003 28.14 8.16369 28.1075 8.20974C27.9499 8.43529 27.8785 8.70968 27.9064 8.98316C27.9343 9.25663 28.0596 9.51109 28.2596 9.70041Z" fill="#BDD0FB"/>
<path d="M32.2067 11.1104C32.4355 10.7857 32.6135 10.4284 32.7347 10.0505L32.7455 10.0179C32.758 9.97634 32.7572 9.93194 32.7431 9.89092C32.729 9.8499 32.7023 9.81433 32.6668 9.78923C32.6489 9.77693 32.6293 9.76735 32.6085 9.76081C32.5561 9.74498 32.4995 9.75044 32.451 9.77601C32.4026 9.80159 32.3663 9.84519 32.35 9.89734C32.2767 10.1333 32.1786 10.361 32.0573 10.5764L32.037 10.6116C31.75 11.1112 31.342 11.5311 30.8501 11.8329C30.5824 11.9966 30.2939 12.1237 29.9922 12.2108L29.9846 12.2127L29.962 12.2192C29.5218 12.3438 29.0612 12.3801 28.6068 12.326C28.1524 12.2719 27.7133 12.1285 27.3149 11.9041C27.2106 11.8459 27.1093 11.7825 27.0114 11.714C26.586 11.4141 26.2335 11.0229 25.9799 10.5692C25.7262 10.1155 25.5779 9.6109 25.5459 9.09251C25.5139 8.57413 25.599 8.0552 25.7949 7.57394C25.9909 7.09268 26.2926 6.66136 26.6779 6.31176C27.0633 5.96215 27.5224 5.70317 28.0215 5.55389C28.5206 5.4046 29.0469 5.36882 29.5618 5.44918C30.0766 5.52953 30.5667 5.72398 30.9961 6.0182C31.4255 6.31242 31.7832 6.69891 32.0429 7.14919C32.0582 7.17501 32.0789 7.19728 32.1035 7.21452C32.142 7.2416 32.1886 7.25478 32.2356 7.25187C32.2826 7.24896 32.3272 7.23014 32.3621 7.19852C32.3969 7.1669 32.4198 7.12437 32.4271 7.07799C32.4344 7.0316 32.4255 6.98412 32.4021 6.94342C32.1185 6.44998 31.7294 6.02488 31.2623 5.69837C30.4175 5.10499 29.3707 4.87043 28.3523 5.04629C27.334 5.22214 26.4274 5.79401 25.8321 6.63608C25.2367 7.47815 25.0014 8.52145 25.1778 9.53646C25.3543 10.5515 25.928 11.4551 26.7729 12.0484C26.8822 12.1251 26.9954 12.1962 27.112 12.2614C27.9538 12.7311 28.9403 12.8734 29.8811 12.6608C30.8219 12.4483 31.6505 11.8959 32.2067 11.1104Z" fill="#BDD0FB"/>
<path d="M63.4679 6.87158V88.8564C63.4679 89.3976 63.2481 89.8868 62.8738 90.1883C62.5897 90.4169 62.2312 90.5639 61.8363 90.5492L60.9355 90.5166C60.0248 90.4839 59.2036 89.652 59.2036 88.7032V7.01072L63.4679 6.87158Z" fill="url(#paint0_linear)"/>
<path d="M65.1827 3.9307C65.1818 4.58998 65.0204 5.23919 64.7126 5.82271C64.4047 6.40623 63.9595 6.90666 63.4151 7.28113C62.806 7.70239 62.0875 7.93901 61.3464 7.96245C60.9797 7.97409 60.6134 7.93104 60.2594 7.83474C60.0031 7.7647 59.7553 7.66678 59.5205 7.54274C59.4618 7.51008 59.4028 7.47742 59.3452 7.44476C58.2589 6.79153 57.5366 5.5873 57.5366 4.18677C57.5366 2.03699 59.2406 0.232436 61.3464 0.155028C63.4614 0.0756607 65.1827 1.7659 65.1827 3.9307Z" fill="url(#paint1_linear)"/>
<path d="M63.4263 3.78864C63.4256 4.30118 63.3002 4.80591 63.0609 5.25956C62.8216 5.71322 62.4755 6.10228 62.0523 6.3934C61.5786 6.72128 61.02 6.90561 60.4436 6.92415C60.1587 6.9336 59.8739 6.90058 59.5988 6.82617C59.3994 6.77196 59.2067 6.69594 59.024 6.5995C58.9785 6.57467 58.9326 6.54985 58.888 6.52209C58.0432 6.01518 57.4816 5.07812 57.4816 3.98918C57.4816 2.31789 58.8058 0.915076 60.4436 0.853673C62.088 0.791616 63.4263 2.10592 63.4263 3.78864Z" fill="url(#paint2_linear)"/>
<path d="M32.6441 9.80218L32.9718 9.97072L39.1751 6.17969L69.5562 10.656L73.8054 11.1407L73.5548 11.9314C73.522 12.0163 68.6858 15.5278 68.6858 15.5278L72.4488 20.4502L72.2679 20.9561C72.2581 20.9847 72.2388 21.009 72.2131 21.0249C72.1874 21.0409 72.157 21.0475 72.127 21.0436L68.2202 20.4404L37.8221 15.7469C37.7366 15.7335 37.6579 15.6922 37.5983 15.6297L32.7097 10.5289C32.6777 10.495 32.6531 10.4549 32.6372 10.4112C32.6214 10.3674 32.6147 10.3209 32.6176 10.2745L32.6441 9.80218Z" fill="url(#paint3_linear)"/>
<path d="M39.5179 5.84653L73.8055 11.1406C73.8126 11.1421 73.8192 11.1456 73.8244 11.1508C73.8296 11.1559 73.8332 11.1624 73.8347 11.1696C73.8362 11.1767 73.8357 11.1841 73.833 11.191C73.8304 11.1978 73.8258 11.2037 73.8199 11.2079L68.9883 14.7305C68.9567 14.7542 68.9351 14.7888 68.9278 14.8275C68.9206 14.8663 68.9281 14.9063 68.949 14.9398L72.4042 20.3809C72.4081 20.3869 72.4102 20.3938 72.4103 20.4008C72.4104 20.4079 72.4085 20.4149 72.4048 20.4209C72.4011 20.427 72.3957 20.4318 72.3894 20.435C72.383 20.4381 72.3759 20.4394 72.3688 20.4387L38.059 15.1414C37.9606 15.1261 37.8697 15.0795 37.8001 15.0084L32.6881 9.8479C32.683 9.84264 32.6793 9.83633 32.677 9.82942C32.6747 9.82252 32.674 9.8152 32.675 9.80799C32.6759 9.80079 32.6785 9.79388 32.6824 9.78779C32.6864 9.7817 32.6917 9.77657 32.6979 9.77277L39.2089 5.90761C39.3016 5.85198 39.4109 5.83038 39.5179 5.84653Z" fill="url(#paint4_linear)"/>
<path d="M35.6268 41.7602L35.9745 41.8451L40.9581 36.8368L70.6658 34.1259L74.6309 33.6324C74.6502 33.63 74.6699 33.6318 74.6884 33.6378C74.7069 33.6437 74.7239 33.6537 74.7382 33.6669C74.7524 33.6802 74.7636 33.6964 74.7709 33.7144C74.7782 33.7324 74.7814 33.7518 74.7803 33.7712L74.7476 34.4172C74.7351 34.5054 70.9673 38.937 70.9673 38.937L75.6517 42.7361L75.5973 43.2568C75.5948 43.286 75.5821 43.3135 75.5615 43.3345C75.5409 43.3555 75.5135 43.3687 75.4842 43.3717L71.6577 43.6944L41.8842 46.2051C41.8002 46.2122 41.7163 46.1912 41.6456 46.1454L35.8575 42.4347C35.8195 42.41 35.787 42.3777 35.762 42.34C35.7369 42.3022 35.7199 42.2597 35.712 42.2152L35.6268 41.7602Z" fill="#7D97F4"/>
<path d="M41.2053 36.4433L74.689 33.6194C74.7042 33.6182 74.7194 33.6216 74.7327 33.629C74.7461 33.6364 74.7569 33.6476 74.7639 33.6611C74.7709 33.6746 74.7737 33.6899 74.7721 33.705C74.7704 33.7201 74.7643 33.7344 74.7545 33.7461L71.0676 38.1113C71.0433 38.1411 71.031 38.1787 71.0329 38.217C71.0348 38.2553 71.0509 38.2915 71.0781 38.3187L75.5931 42.68C75.598 42.6848 75.6015 42.6908 75.6031 42.6975C75.6046 42.7042 75.6042 42.7112 75.6019 42.7176C75.5996 42.724 75.5954 42.7297 75.59 42.7339C75.5845 42.738 75.578 42.7405 75.5711 42.7411L41.9665 45.5751C41.8702 45.5835 41.7737 45.5606 41.6916 45.5098L35.6774 41.7932C35.6714 41.7894 35.6663 41.7843 35.6625 41.7783C35.6587 41.7723 35.6564 41.7655 35.6556 41.7585C35.6548 41.7514 35.6556 41.7443 35.6579 41.7376C35.6603 41.7309 35.6641 41.7248 35.6692 41.7198L40.9271 36.5726C41.0017 36.4983 41.1002 36.4525 41.2053 36.4433Z" fill="#91B3FA"/>
<path opacity="0.56" d="M61.0054 37.4452L42.342 38.8994C42.2729 38.9048 42.2213 38.965 42.2267 39.0339L42.2939 39.8909C42.2993 39.9598 42.3597 40.0113 42.4288 40.0059L61.0922 38.5517C61.1613 38.5463 61.213 38.4861 61.2075 38.4172L61.1403 37.5602C61.1349 37.4913 61.0745 37.4399 61.0054 37.4452Z" fill="white"/>
<path opacity="0.56" d="M61.1053 41.4877L42.5904 42.9301C42.5572 42.9325 42.5244 42.9218 42.4991 42.9002C42.4738 42.8786 42.4581 42.8479 42.4554 42.8148L42.3928 42.0152C42.3903 41.9822 42.401 41.9494 42.4226 41.9242C42.4442 41.899 42.475 41.8833 42.5082 41.8807L61.023 40.4383C61.0562 40.4359 61.0891 40.4466 61.1144 40.4682C61.1397 40.4898 61.1554 40.5205 61.158 40.5536L61.2206 41.3532C61.2232 41.3863 61.2124 41.419 61.1908 41.4442C61.1692 41.4694 61.1384 41.4851 61.1053 41.4877Z" fill="white"/>
<path d="M89.6788 25.0331L89.3183 25.1765L83.0639 21.1411L50.5154 23.6303L45.9834 23.888L46.1682 24.5947C46.1971 24.679 51.0309 28.3871 51.0309 28.3871L46.6355 32.9133L46.7849 33.413C46.7943 33.4424 46.8136 33.4676 46.8394 33.4845C46.8652 33.5014 46.8961 33.5089 46.9268 33.5058L51.1148 33.1593L83.6993 30.4614C83.7896 30.4546 83.8757 30.4204 83.946 30.3634L89.5496 25.7327C89.5855 25.7035 89.6147 25.6669 89.6353 25.6255C89.6558 25.5841 89.6672 25.5388 89.6686 25.4926L89.6788 25.0331Z" fill="url(#paint5_linear)"/>
<path d="M82.7283 20.7993L46.0509 23.8368C46.0373 23.8375 46.0243 23.8424 46.0137 23.8508C46.0031 23.8592 45.9953 23.8707 45.9915 23.8837C45.9877 23.8966 45.988 23.9105 45.9924 23.9233C45.9969 23.936 46.0051 23.9471 46.0161 23.955L50.7769 27.5994C50.7923 27.6111 50.8051 27.6257 50.8147 27.6424C50.8243 27.6591 50.8304 27.6776 50.8326 27.6967C50.8349 27.7158 50.8333 27.7352 50.8279 27.7536C50.8224 27.7721 50.8134 27.7893 50.8012 27.8042L46.6899 32.8468C46.6853 32.8525 46.6824 32.8594 46.6818 32.8666C46.6811 32.8739 46.6826 32.8812 46.6862 32.8876C46.6897 32.8939 46.695 32.8991 46.7015 32.9025C46.708 32.9058 46.7154 32.9071 46.7226 32.9063L83.4971 29.8619C83.6013 29.8534 83.7007 29.8141 83.7825 29.7492L89.628 25.073C89.6336 25.0686 89.638 25.0628 89.6409 25.0563C89.6438 25.0498 89.6451 25.0427 89.6447 25.0355C89.6443 25.0284 89.6422 25.0215 89.6385 25.0153C89.6348 25.0092 89.6298 25.004 89.6237 25.0002L83.0508 20.8767C82.9545 20.8168 82.8414 20.7896 82.7283 20.7993Z" fill="url(#paint6_linear)"/>
<path opacity="0.56" d="M82.4285 23.1204L64.1441 24.5784C64.0747 24.5839 64.023 24.6444 64.0286 24.7135L64.1003 25.6074C64.1059 25.6765 64.1666 25.728 64.2359 25.7225L82.5204 24.2646C82.5897 24.259 82.6414 24.1986 82.6358 24.1295L82.5641 23.2355C82.5585 23.1664 82.4978 23.1149 82.4285 23.1204Z" fill="white"/>
<path opacity="0.56" d="M82.1587 26.302L64.0756 27.711C64.0065 27.7163 63.9548 27.7765 63.9602 27.8454L64.0255 28.6777C64.0309 28.7466 64.0913 28.7981 64.1604 28.7927L82.2435 27.3837C82.3126 27.3783 82.3643 27.3181 82.3589 27.2492L82.2936 26.4169C82.2882 26.348 82.2278 26.2966 82.1587 26.302Z" fill="white"/>
<path d="M62.616 14.3564C62.7312 13.6488 62.2491 12.9821 61.5392 12.8672C60.8293 12.7524 60.1603 13.2329 60.0451 13.9405C59.9298 14.6481 60.4119 15.3148 61.1219 15.4296C61.8318 15.5445 62.5007 15.064 62.616 14.3564Z" fill="url(#paint7_linear)"/>
<path d="M61.4168 14.7371C61.8581 14.7371 62.2157 14.3806 62.2157 13.9408C62.2157 13.501 61.8581 13.1445 61.4168 13.1445C60.9756 13.1445 60.6179 13.501 60.6179 13.9408C60.6179 14.3806 60.9756 14.7371 61.4168 14.7371Z" fill="url(#paint8_linear)"/>
<path d="M62.3399 27.6151C62.499 26.9432 62.0815 26.27 61.4074 26.1114C60.7333 25.9528 60.0579 26.3689 59.8988 27.0408C59.7397 27.7127 60.1572 28.3859 60.8313 28.5445C61.5054 28.703 62.1808 28.2869 62.3399 27.6151Z" fill="url(#paint9_linear)"/>
<path d="M61.2075 27.8987C61.6326 27.8987 61.9773 27.5552 61.9773 27.1315C61.9773 26.7078 61.6326 26.3643 61.2075 26.3643C60.7824 26.3643 60.4377 26.7078 60.4377 27.1315C60.4377 27.5552 60.7824 27.8987 61.2075 27.8987Z" fill="url(#paint10_linear)"/>
<path d="M62.1201 40.0721C62.6289 39.5649 62.6289 38.7427 62.1201 38.2355C61.6113 37.7284 60.7863 37.7284 60.2775 38.2355C59.7687 38.7427 59.7687 39.5649 60.2775 40.0721C60.7863 40.5792 61.6113 40.5792 62.1201 40.0721Z" fill="url(#paint11_linear)"/>
<path d="M62.0637 39.1276C62.1651 38.6992 61.8989 38.27 61.4691 38.1689C61.0394 38.0678 60.6087 38.3331 60.5073 38.7615C60.4058 39.1898 60.672 39.6191 61.1018 39.7202C61.5316 39.8213 61.9622 39.556 62.0637 39.1276Z" fill="url(#paint12_linear)"/>
<path opacity="0.56" d="M57.5935 11.0545L40.9125 8.43015C40.8441 8.41938 40.7798 8.46597 40.769 8.53421L40.6427 9.33205C40.6318 9.40029 40.6786 9.46435 40.7471 9.47512L57.428 12.0995C57.4965 12.1103 57.5608 12.0637 57.5716 11.9954L57.6979 11.1976C57.7087 11.1293 57.662 11.0653 57.5935 11.0545Z" fill="white"/>
<path opacity="0.56" d="M56.9555 13.8353L40.4079 11.2319C40.3394 11.2211 40.2752 11.2677 40.2644 11.336L40.1465 12.0799C40.1357 12.1482 40.1825 12.2122 40.2509 12.223L56.7986 14.8264C56.867 14.8372 56.9313 14.7906 56.9421 14.7223L57.0599 13.9784C57.0707 13.9101 57.024 13.8461 56.9555 13.8353Z" fill="white"/>
<path d="M33.3655 49.0624C23.0397 48.794 11.6169 51.5584 11.6169 51.5584C8.89701 66.5155 10.0941 83.4332 10.5568 88.5568C10.5996 89.0234 10.7947 89.4631 11.1122 89.8086C11.4297 90.1541 11.852 90.3863 12.3146 90.4698C17.6504 91.447 23.2776 90.8542 26.1083 90.4247C26.6459 90.343 27.1459 90.1002 27.5417 89.7284C27.9375 89.3566 28.2104 88.8736 28.3242 88.3435C30.1947 79.665 35.5387 60.5195 35.5387 60.5195C40.5905 59.9433 44.7614 58.5317 48.2029 56.6458C45.6206 53.6044 44.4262 49.7542 43.9134 47.48C40.251 48.5761 36.5503 49.1451 33.3655 49.0624Z" fill="url(#paint13_linear)"/>
<path d="M64.0165 34.1908C63.0134 32.9598 62.072 33.015 62.072 33.015C60.4908 39.3991 52.1244 45.0237 43.9133 47.4818C44.4262 49.7557 45.6206 53.6062 48.2029 56.6476C61.8626 49.1609 64.0165 34.1908 64.0165 34.1908Z" fill="url(#paint14_linear)"/>
<path d="M63.7671 34.4994C63.87 34.8368 62.6359 35.3372 61.9252 33.9546C61.9065 33.2952 61.5319 30.4667 61.9314 29.9333C64.064 27.0918 68.1799 23.5454 68.1799 23.5454C68.8631 24.2313 68.2887 24.8917 68.2887 24.8917L66.2897 26.9285C66.6971 27.6797 67.1961 28.313 67.4242 29.2174C67.5969 29.9033 67.4803 30.6317 67.1293 31.2503C66.7783 31.8689 66.294 32.6776 65.8395 33.3079C64.9773 34.5017 63.7671 34.4994 63.7671 34.4994Z" fill="url(#paint15_linear)"/>
<path d="M65.4102 28.2539L63.5911 29.7612L63.0101 31.2738L64.6018 33.0679C64.6018 33.0679 65.1716 30.0614 65.5799 29.4134C65.9883 28.7654 65.7828 28.4482 65.4102 28.2539Z" fill="url(#paint16_linear)"/>
<path d="M15.4827 61.5635L11.6159 51.5586C11.6159 51.5586 1.90787 57.9998 0.242188 66.2674C2.06352 66.4186 5.37588 66.9226 8.60664 68.5864C9.35739 64.6833 15.4827 61.5635 15.4827 61.5635Z" fill="url(#paint17_linear)"/>
<path d="M23.8236 71.0223C23.8236 71.0223 12.9345 77.02 9.32987 71.7758C8.58173 70.6869 8.41035 69.6103 8.6073 68.587C5.37653 66.9213 2.06418 66.4183 0.24284 66.2681C-0.259519 68.7605 -0.0320972 71.4188 1.41436 74.117C7.70416 85.8491 25.2313 73.6983 25.2313 73.6983L23.8236 71.0223Z" fill="url(#paint18_linear)"/>
<path d="M22.9847 40.606L19.6094 50.0452C19.5821 50.1208 19.5824 50.2035 19.6102 50.2789C19.6381 50.3543 19.6918 50.4175 19.7618 50.4574C20.6528 50.9597 23.8662 52.417 27.7789 49.9965C27.9809 49.8732 28.1531 49.7071 28.2834 49.51C28.4136 49.3129 28.4987 49.0896 28.5326 48.856L29.6753 40.668L22.9847 40.606Z" fill="url(#paint19_linear)"/>
<path d="M30.2186 31.9028C30.2186 31.9028 33.7623 38.7072 33.2733 41.4377C32.7844 44.1682 28.3146 43.9291 24.4308 41.6709L21.7719 34.3348L30.2186 31.9028Z" fill="url(#paint20_linear)"/>
<path d="M24.6375 38.0836C24.675 38.0677 24.7086 38.0439 24.7359 38.0138C24.7631 37.9836 24.7835 37.9479 24.7955 37.9091C24.8075 37.8704 24.8109 37.8294 24.8054 37.7892C24.7999 37.749 24.7857 37.7105 24.7637 37.6763C24.4789 37.2334 23.9445 36.33 23.7806 35.5422C23.7806 35.5422 23.136 35.1218 25.4411 34.595C27.7461 34.0682 31.183 33.2497 31.9226 31.305C32.6435 29.4106 30.8428 24.6094 27.8591 28.3916C27.8329 28.4254 27.7993 28.4528 27.7609 28.4716C27.7224 28.4905 27.6801 28.5003 27.6373 28.5003C27.5944 28.5003 27.5521 28.4905 27.5137 28.4716C27.4752 28.4528 27.4416 28.4254 27.4154 28.3916C26.9386 27.7606 25.6813 26.4479 23.911 27.2194C22.2542 27.9415 22.0569 29.1448 22.0736 29.7523C22.075 29.794 22.0669 29.8355 22.0499 29.8736C22.0329 29.9118 22.0075 29.9457 21.9755 29.9727C21.9436 29.9997 21.9059 30.0191 21.8654 30.0296C21.8248 30.0401 21.7824 30.0413 21.7414 30.0332C20.9087 29.8666 18.9084 29.7114 17.9545 31.7489C17.168 33.4273 17.6596 34.3863 18.1111 34.8573C18.1446 34.8918 18.1686 34.9344 18.1806 34.9809C18.1927 35.0274 18.1925 35.0762 18.18 35.1226C18.1676 35.169 18.1433 35.2114 18.1095 35.2457C18.0757 35.2799 18.0336 35.3049 17.9873 35.3181C17.4374 35.4814 16.7253 35.9367 16.7836 37.2174C16.8649 38.9877 18.8514 38.8505 19.4173 38.7754C19.4629 38.769 19.5093 38.7739 19.5525 38.7896C19.5957 38.8054 19.6343 38.8314 19.6651 38.8655C20.1445 39.4044 22.306 41.6946 24.6664 41.9909C24.7136 41.9962 24.7614 41.9897 24.8053 41.9717C24.8493 41.9538 24.888 41.9251 24.9179 41.8883C24.9478 41.8515 24.9679 41.8078 24.9763 41.7612C24.9848 41.7147 24.9813 41.6667 24.9662 41.6218L23.972 38.6496C23.9497 38.583 23.9533 38.5105 23.9821 38.4464C24.0108 38.3823 24.0627 38.3313 24.1273 38.3034L24.6375 38.0836Z" fill="url(#paint21_linear)"/>
<path d="M25.0445 38.5076C25.0445 38.5076 22.4921 36.7262 22.2919 38.2042C22.0917 39.6821 24.5858 40.3693 25.8294 39.8294L25.0445 38.5076Z" fill="url(#paint22_linear)"/>
<path d="M21.5975 80.5012L27.5288 59.8546C27.5615 59.7401 27.6275 59.6378 27.7184 59.5607C27.8093 59.4836 27.9211 59.435 28.0397 59.4211C29.1146 59.296 32.2287 58.9453 35.8241 58.6422C40.1553 58.277 45.1848 57.9811 48.1901 58.2329C48.2887 58.2407 48.3839 58.2725 48.4674 58.3254C48.5509 58.3783 48.6201 58.4508 48.669 58.5366C48.7178 58.6223 48.7449 58.7187 48.7478 58.8172C48.7507 58.9158 48.7293 59.0136 48.6856 59.102C46.9766 62.5485 39.9466 76.5675 36.4258 81.1597C36.3686 81.2348 36.2947 81.2956 36.2098 81.3371C36.1249 81.3787 36.0314 81.3999 35.9369 81.3991L22.1736 81.2714C22.0803 81.2704 21.9886 81.248 21.9054 81.2059C21.8223 81.1637 21.75 81.103 21.6942 81.0285C21.6385 80.954 21.6008 80.8676 21.584 80.7761C21.5672 80.6847 21.5718 80.5906 21.5975 80.5012Z" fill="url(#paint23_linear)"/>
<path d="M23.0305 75.5136C23.0305 75.5136 22.2044 72.1273 22.539 70.9257C22.8736 69.7241 23.5182 68.1795 25.6705 68.5228C27.8228 68.866 30.3624 69.7701 30.3624 69.7701C30.3624 69.7701 30.234 71.3349 28.5981 70.83L29.614 71.6139C29.614 71.6139 29.4688 72.8667 28.0869 72.1972L29.0307 73.2348C29.0307 73.2348 28.4372 74.264 27.4204 73.6039C26.4035 72.9438 25.9139 75.9209 23.0305 75.5136Z" fill="url(#paint24_linear)"/>
<path d="M35.429 64.8056C35.4289 65.1489 35.531 65.4845 35.7223 65.77C35.9136 66.0555 36.1855 66.278 36.5037 66.4094C36.8219 66.5408 37.172 66.5752 37.5099 66.5083C37.8477 66.4414 38.158 66.2761 38.4016 66.0334C38.6451 65.7906 38.811 65.4814 38.8782 65.1447C38.9454 64.808 38.911 64.459 38.7792 64.1418C38.6474 63.8247 38.4242 63.5536 38.1378 63.3628C37.8514 63.1721 37.5148 63.0703 37.1703 63.0703C36.7085 63.0703 36.2657 63.2531 35.9391 63.5786C35.6125 63.904 35.429 64.3454 35.429 64.8056Z" fill="#91B3FA"/>
<path d="M28.2003 65.9496L29.4081 61.8669C29.4783 61.6232 29.6135 61.4031 29.7994 61.23C29.9853 61.057 30.2149 60.9376 30.4637 60.8845C34.2489 60.0973 44.6093 59.9301 44.7135 59.9288L44.7067 59.4673C44.2807 59.4738 34.1974 59.6368 30.369 60.4328C30.0383 60.503 29.733 60.6613 29.4855 60.8908C29.238 61.1204 29.0577 61.4126 28.9638 61.7363L27.7562 65.819L28.2003 65.9496Z" fill="#BDD0FB"/>
<path d="M63.018 90.4229C62.9577 90.4129 62.9 90.3909 62.8484 90.3583C62.7968 90.3256 62.7522 90.2829 62.7175 90.2328C61.6885 88.7545 54.2331 77.2028 64.9694 67.2032C75.1608 57.7101 79.7037 55.8392 80.4842 50.0957C80.5753 49.4248 81.4932 49.2925 81.774 49.9089C83.8713 54.5141 87.0303 65.2059 75.2355 71.781C62.2259 79.0345 63.0013 87.4651 63.542 89.8709C63.5587 89.9442 63.557 90.0205 63.537 90.0929C63.5171 90.1654 63.4796 90.2319 63.4277 90.2865C63.3759 90.341 63.3114 90.3821 63.2398 90.4058C63.1683 90.4296 63.092 90.4355 63.0177 90.4229H63.018Z" fill="#91B3FA"/>
<path d="M64.5943 90.6885C64.4536 90.6653 64.3243 90.5972 64.2256 90.4946C64.1269 90.392 64.0641 90.2603 64.0467 90.1192C63.8049 88.1442 63.293 80.776 68.7833 79.0015C74.8279 77.048 79.4744 82.7491 84.0064 78.5472C84.245 78.3261 84.627 78.5377 84.5618 78.8559C84.0978 81.1112 82.188 86.3089 74.4059 87.1193C66.0765 87.9858 65.1134 88.9049 65.2445 90.0859C65.253 90.171 65.2417 90.257 65.2115 90.337C65.1812 90.4171 65.1328 90.4891 65.07 90.5474C65.0073 90.6057 64.9318 90.6488 64.8496 90.6733C64.7673 90.6978 64.6805 90.703 64.596 90.6885H64.5943Z" fill="#91B3FA"/>
<path opacity="0.47" d="M79.9416 55.9424C79.8169 56.3494 79.6617 56.7465 79.4772 57.1303C79.297 57.5141 79.0978 57.889 78.8834 58.2555C78.6691 58.622 78.4404 58.9806 78.1923 59.3258C77.9443 59.6711 77.6896 60.0117 77.416 60.3383C76.3291 61.6484 75.0396 62.7879 73.6338 63.7482C72.9291 64.2239 72.199 64.661 71.4467 65.0576C70.7146 65.4518 70.008 65.8914 69.3311 66.3739C67.9738 67.3395 66.7347 68.4605 65.6393 69.7138C64.5436 70.9663 63.6108 72.3515 62.863 73.8367C61.3474 76.8224 60.7496 80.1875 61.1446 83.5104C61.3314 85.1667 61.7649 86.7926 62.3571 88.3567C62.3658 88.3781 62.3656 88.402 62.3566 88.4232C62.3476 88.4445 62.3305 88.4612 62.3091 88.4699C62.2877 88.4786 62.2637 88.4784 62.2424 88.4694C62.2211 88.4604 62.2042 88.4434 62.1955 88.4221C61.546 86.8657 61.0742 85.2278 60.8467 83.5486C60.6089 81.8654 60.6293 80.156 60.9074 78.4789C61.1862 76.7992 61.7078 75.1686 62.4561 73.6381C63.2006 72.1076 64.1637 70.6878 65.2742 69.4009C66.3896 68.1139 67.6525 66.9617 69.0372 65.9679C69.7288 65.4703 70.4512 65.0166 71.2 64.6095L71.7521 64.309C71.9363 64.211 72.1152 64.1062 72.2945 64.0003L72.5635 63.8426L72.8276 63.6763L73.0914 63.5101L73.3503 63.3367C74.0419 62.8747 74.7043 62.3709 75.3338 61.828C75.9646 61.2862 76.5572 60.7017 77.1073 60.0787C77.6606 59.4568 78.1676 58.7955 78.6242 58.1C79.0778 57.4043 79.4867 56.6678 79.7866 55.8983L79.7885 55.8934C79.7963 55.8747 79.8108 55.8597 79.8293 55.8513C79.8478 55.843 79.8688 55.842 79.888 55.8485C79.9072 55.8551 79.9231 55.8687 79.9326 55.8865C79.9421 55.9044 79.9443 55.9252 79.939 55.9447L79.9416 55.9424Z" fill="white"/>
<path opacity="0.47" d="M64.3442 89.3428C64.3549 89.2756 64.3585 89.2075 64.355 89.1396V88.9374C64.3565 88.8024 64.3598 88.6678 64.3648 88.5334C64.3749 88.2643 64.3907 87.9954 64.4123 87.7267C64.4559 87.1897 64.5211 86.6544 64.6129 86.123C64.7983 85.0618 65.0795 84.0082 65.5458 83.027C65.7763 82.5336 66.0652 82.0694 66.4064 81.6445C66.75 81.2161 67.1643 80.8493 67.6316 80.5598C68.1034 80.2738 68.6252 80.0795 69.1695 79.9872C69.44 79.9397 69.7141 79.9149 69.9887 79.9131C70.2625 79.9096 70.5362 79.9247 70.808 79.9582C71.0809 79.9908 71.3444 80.0395 71.6112 80.0839L72.4081 80.2243C72.939 80.3208 73.4689 80.4221 73.9978 80.5281C75.0559 80.7371 76.1094 80.9664 77.1672 81.1604C77.6958 81.2561 78.2264 81.342 78.7589 81.3953C79.2914 81.4485 79.8262 81.4661 80.3531 81.4054C80.8806 81.352 81.3926 81.1967 81.8605 80.9481C82.3272 80.6992 82.7394 80.355 83.1058 79.9683C83.1186 79.9546 83.1363 79.9465 83.1551 79.9459C83.1739 79.9453 83.1921 79.9521 83.2059 79.9648C83.2196 79.9776 83.2277 79.9953 83.2283 80.014C83.229 80.0327 83.2221 80.0509 83.2093 80.0646C82.84 80.4621 82.4199 80.8224 81.9372 81.0873C81.4535 81.3511 80.9229 81.5186 80.3751 81.5804C79.8301 81.6458 79.2819 81.6265 78.7418 81.5755C78.2018 81.5246 77.6663 81.4377 77.1361 81.343C76.0727 81.1509 75.0189 80.9246 73.9617 80.7185C72.9046 80.5124 71.8432 80.3145 70.785 80.1574C70.5222 80.123 70.2574 80.1065 69.9923 80.1081C69.7279 80.1079 69.464 80.1297 69.2032 80.1734C68.6813 80.2581 68.1801 80.4406 67.7263 80.7113C67.2741 80.9874 66.8724 81.3382 66.5384 81.7486C66.2027 82.1615 65.9174 82.6125 65.6884 83.0923C65.2211 84.0513 64.9317 85.0912 64.7381 86.1423C64.642 86.6688 64.5716 87.2002 64.5231 87.7339C64.4991 88.0004 64.4807 88.2676 64.468 88.5354C64.4617 88.6691 64.4571 88.8029 64.4543 88.9368L64.451 89.1377C64.4471 89.2045 64.4519 89.2716 64.4654 89.3372C64.4678 89.3451 64.4685 89.3535 64.4676 89.3617C64.4667 89.3699 64.4641 89.3779 64.46 89.3851C64.4559 89.3923 64.4504 89.3986 64.4438 89.4036C64.4372 89.4086 64.4297 89.4123 64.4216 89.4143C64.4136 89.4164 64.4052 89.4168 64.397 89.4155C64.3888 89.4142 64.3809 89.4113 64.3739 89.407C64.3668 89.4026 64.3608 89.3969 64.356 89.3901C64.3512 89.3833 64.3479 89.3757 64.3461 89.3676C64.3437 89.3596 64.343 89.3511 64.3442 89.3428Z" fill="white"/>
</g>
<defs>
<linearGradient id="paint0_linear" x1="59.2036" y1="48.711" x2="63.4679" y2="48.711" gradientUnits="userSpaceOnUse">
<stop stop-color="#FE7062"/>
<stop offset="1" stop-color="#FF928E"/>
</linearGradient>
<linearGradient id="paint1_linear" x1="56.8478" y1="-3.46942" x2="66.2249" y2="12.2785" gradientUnits="userSpaceOnUse">
<stop stop-color="#E1473D"/>
<stop offset="1" stop-color="#E9605A"/>
</linearGradient>
<linearGradient id="paint2_linear" x1="6318.46" y1="-364.509" x2="7690.09" y2="1882.55" gradientUnits="userSpaceOnUse">
<stop stop-color="#FE7062"/>
<stop offset="1" stop-color="#FF928E"/>
</linearGradient>
<linearGradient id="paint3_linear" x1="81315.5" y1="6922.42" x2="79572.4" y2="19703" gradientUnits="userSpaceOnUse">
<stop stop-color="#E1473D"/>
<stop offset="1" stop-color="#E9605A"/>
</linearGradient>
<linearGradient id="paint4_linear" x1="46114" y1="6698.08" x2="44745.6" y2="17337.4" gradientUnits="userSpaceOnUse">
<stop stop-color="#FE7062"/>
<stop offset="1" stop-color="#FF928E"/>
</linearGradient>
<linearGradient id="paint5_linear" x1="67.3561" y1="-29.0097" x2="67.5742" y2="-4.28297" gradientUnits="userSpaceOnUse">
<stop stop-color="#4F52FF"/>
<stop offset="1" stop-color="#4042E2"/>
</linearGradient>
<linearGradient id="paint6_linear" x1="119971" y1="2781.2" x2="129832" y2="-24698.2" gradientUnits="userSpaceOnUse">
<stop stop-color="#4F52FF"/>
<stop offset="1" stop-color="#4042E2"/>
</linearGradient>
<linearGradient id="paint7_linear" x1="5000.05" y1="835.684" x2="4700.86" y2="2219.29" gradientUnits="userSpaceOnUse">
<stop stop-color="#E1473D"/>
<stop offset="1" stop-color="#E9605A"/>
</linearGradient>
<linearGradient id="paint8_linear" x1="3052.05" y1="548.06" x2="3056.15" y2="734.79" gradientUnits="userSpaceOnUse">
<stop stop-color="#E1473D"/>
<stop offset="1" stop-color="#E9605A"/>
</linearGradient>
<linearGradient id="paint9_linear" x1="4799.02" y1="1838.17" x2="4521.51" y2="3121.56" gradientUnits="userSpaceOnUse">
<stop stop-color="#E1473D"/>
<stop offset="1" stop-color="#E9605A"/>
</linearGradient>
<linearGradient id="paint10_linear" x1="2932.98" y1="1166.55" x2="2936.77" y2="1339.84" gradientUnits="userSpaceOnUse">
<stop stop-color="#E1473D"/>
<stop offset="1" stop-color="#E9605A"/>
</linearGradient>
<linearGradient id="paint11_linear" x1="4992.15" y1="2849.43" x2="4692.62" y2="4234.57" gradientUnits="userSpaceOnUse">
<stop stop-color="#E1473D"/>
<stop offset="1" stop-color="#E9605A"/>
</linearGradient>
<linearGradient id="paint12_linear" x1="3048.11" y1="1793.71" x2="3052.2" y2="1980.71" gradientUnits="userSpaceOnUse">
<stop stop-color="#E1473D"/>
<stop offset="1" stop-color="#E9605A"/>
</linearGradient>
<linearGradient id="paint13_linear" x1="1110.76" y1="63527.7" x2="36168.8" y2="182343" gradientUnits="userSpaceOnUse">
<stop stop-color="#4F52FF"/>
<stop offset="1" stop-color="#4042E2"/>
</linearGradient>
<linearGradient id="paint14_linear" x1="43.9252" y1="44.6912" x2="63.8987" y2="44.8801" gradientUnits="userSpaceOnUse">
<stop stop-color="#FEBBBA"/>
<stop offset="1" stop-color="#FF928E"/>
</linearGradient>
<linearGradient id="paint15_linear" x1="21809" y1="13996.8" x2="15723.9" y2="22097.1" gradientUnits="userSpaceOnUse">
<stop stop-color="#FEBBBA"/>
<stop offset="1" stop-color="#FF928E"/>
</linearGradient>
<linearGradient id="paint16_linear" x1="36122.2" y1="4385.96" x2="37015.1" y2="3589.1" gradientUnits="userSpaceOnUse">
<stop stop-color="#FEBBBA"/>
<stop offset="1" stop-color="#FF928E"/>
</linearGradient>
<linearGradient id="paint17_linear" x1="-7920.76" y1="27332.3" x2="5307.8" y2="72916.8" gradientUnits="userSpaceOnUse">
<stop stop-color="#4F52FF"/>
<stop offset="1" stop-color="#4042E2"/>
</linearGradient>
<linearGradient id="paint18_linear" x1="276671" y1="28320.1" x2="296133" y2="28320.1" gradientUnits="userSpaceOnUse">
<stop stop-color="#FEBBBA"/>
<stop offset="1" stop-color="#FF928E"/>
</linearGradient>
<linearGradient id="paint19_linear" x1="116595" y1="14612.8" x2="119671" y2="14612.8" gradientUnits="userSpaceOnUse">
<stop stop-color="#FEBBBA"/>
<stop offset="1" stop-color="#FF928E"/>
</linearGradient>
<linearGradient id="paint20_linear" x1="76039.5" y1="28107.8" x2="72190.1" y2="25716.1" gradientUnits="userSpaceOnUse">
<stop stop-color="#FEBBBA"/>
<stop offset="1" stop-color="#FF928E"/>
</linearGradient>
<linearGradient id="paint21_linear" x1="15.3593" y1="25.3044" x2="29.426" y2="36.6141" gradientUnits="userSpaceOnUse">
<stop stop-color="#09005D"/>
<stop offset="1" stop-color="#1A0F91"/>
</linearGradient>
<linearGradient id="paint22_linear" x1="18257.8" y1="3565.67" x2="17566.4" y2="3041.98" gradientUnits="userSpaceOnUse">
<stop stop-color="#FEBBBA"/>
<stop offset="1" stop-color="#FF928E"/>
</linearGradient>
<linearGradient id="paint23_linear" x1="316258" y1="40428.8" x2="324858" y2="82289.4" gradientUnits="userSpaceOnUse">
<stop stop-color="#09005D"/>
<stop offset="1" stop-color="#1A0F91"/>
</linearGradient>
<linearGradient id="paint24_linear" x1="89442.7" y1="15674" x2="91348.6" y2="15674" gradientUnits="userSpaceOnUse">
<stop stop-color="#FEBBBA"/>
<stop offset="1" stop-color="#FF928E"/>
</linearGradient>
<clipPath id="clip0">
<rect width="91" height="91" fill="white"/>
</clipPath>
</defs>
</svg>
