<svg width="42" height="13" viewBox="0 0 42 13" fill="none" xmlns="http://www.w3.org/2000/svg">
<path fill-rule="evenodd" clip-rule="evenodd" d="M25.2709 3.58266C25.2631 4.13216 25.9913 4.49522 27.1794 5.03858C29.1413 5.87632 30.0467 6.89313 30.0402 8.23007C30.0142 10.6672 27.694 12.2421 24.1193 12.2421C22.8272 12.2494 21.5443 12.0371 20.3323 11.6154L20.8091 8.98685C21.9296 9.54156 23.1819 9.81807 24.4476 9.79025C25.426 9.79025 26.4733 9.42964 26.4825 8.64219C26.489 8.12827 26.0434 7.76153 24.7199 7.18628C23.4341 6.62697 21.7223 5.68497 21.7405 3.99724C21.7549 1.71585 24.1271 0.121332 27.4869 0.121332C28.5258 0.113903 29.5579 0.280015 30.5353 0.611953L30.0741 3.15705C29.1881 2.74944 28.2108 2.54876 27.225 2.57199C25.8871 2.57199 25.2709 3.09204 25.2709 3.58266ZM18.1952 12.0662H14.7964L16.9224 0.320711H20.3226L18.1952 12.0662ZM39.2474 0.333628H36.6198C36.2505 0.289109 35.876 0.360381 35.5541 0.536422C35.2321 0.712464 34.9808 0.983467 34.8389 1.30751L29.7896 12.0681H33.3603C33.3603 12.0681 33.944 10.6207 34.0755 10.303H38.4306C38.5322 10.7152 38.8448 12.0632 38.8448 12.0632H42L39.2474 0.333628ZM35.0552 7.90514C35.1959 7.56538 36.5833 4.21076 36.8608 3.50059C36.9033 3.68821 36.938 3.84156 36.9668 3.96884C37.0584 4.37309 37.0904 4.5144 37.123 4.65556C37.1405 4.73145 37.1582 4.80729 37.1854 4.92391C37.2636 5.25887 37.4203 5.93023 37.8769 7.90514H35.0552ZM8.61495 8.3388L11.9447 0.329416L15.5455 0.334322L10.1926 12.0577H6.59442L3.57208 1.85647C2.44817 1.27791 1.2467 0.844314 0 0.567365L0.0429901 0.322056H5.52618C5.86713 0.284625 6.21097 0.36442 6.49439 0.54675C6.77781 0.72908 6.98173 1.00167 7.06861 1.31434L8.26061 6.71117L8.61495 8.3388Z" fill="white"/>
</svg>
