<svg width="343" height="100" viewBox="0 0 343 100" fill="none" xmlns="http://www.w3.org/2000/svg">
<rect width="343" height="100" fill="url(#paint0_linear)"/>
<mask id="mask0" mask-type="alpha" maskUnits="userSpaceOnUse" x="0" y="0" width="343" height="100">
<rect width="343" height="100" fill="#ED713C"/>
</mask>
<g mask="url(#mask0)">
<circle opacity="0.1" cx="21.5" cy="115.5" r="61.5" fill="#A0AAFF"/>
<circle opacity="0.08" cx="328.5" cy="-15.5" r="61.5" fill="#CE92FF"/>
</g>
<path d="M276.085 10.0077C281.484 6.86223 288.941 7.3056 297.184 12.0987C313.65 21.685 327.006 44.9856 327 64.1522C327 73.7684 323.634 80.5088 318.205 83.6303C316.79 84.4451 311.17 87.7165 309.743 88.5493C304.349 91.6888 296.892 91.2394 288.656 86.4523C272.19 76.866 258.834 53.5653 258.834 34.3988C258.834 24.8125 262.176 18.1021 267.563 14.9626" fill="#BA68C8"/>
<path opacity="0.2" d="M327 64.1514C327 73.7676 323.634 80.5079 318.205 83.6295C316.79 84.4443 311.17 87.7156 309.743 88.5484C304.349 91.6879 296.898 91.2386 288.662 86.4514L327 64.1514Z" fill="black"/>
<path opacity="0.1" d="M322.653 43.5659C325.412 50.4321 327 57.5379 327 64.1524L288.662 86.4525C282.977 83.1452 277.667 78.2023 273.147 72.3607L322.653 43.5659Z" fill="black"/>
<path opacity="0.4" d="M273.141 72.3604C264.566 61.2763 258.833 46.9508 258.833 34.3988C258.833 24.8125 262.175 18.1021 267.563 14.9626L276.085 10.0077C281.484 6.86223 288.941 7.3056 297.183 12.0987C307.965 18.3777 317.402 30.5343 322.653 43.5657L273.141 72.3604Z" fill="white"/>
<path d="M288.662 17.0541C305.128 26.6403 318.484 49.941 318.484 69.1015C318.484 88.2621 305.128 96.0629 288.656 86.4766C272.184 76.8904 258.822 53.5897 258.834 34.4232C258.845 15.2566 272.208 7.47379 288.662 17.0541Z" fill="#BA68C8"/>
<path d="M288.662 21.9841C302.791 30.2043 314.233 50.1977 314.233 66.6322C314.233 83.0666 302.773 89.7351 288.662 81.5208C274.551 73.3066 263.092 53.3072 263.092 36.8668C263.092 20.4263 274.533 13.7639 288.662 21.9841Z" fill="#FAFAFA"/>
<path d="M288.662 26.8919C300.448 33.776 310.01 50.4561 310.01 64.1705C310.01 77.8849 300.454 83.4449 288.662 76.5847C276.87 69.7246 267.32 53.0504 267.32 39.3361C267.32 25.6217 276.87 20.0557 288.662 26.8919Z" fill="#BA68C8"/>
<path d="M288.662 31.8477C298.111 37.3479 305.764 50.7147 305.764 61.703C305.764 72.6912 298.105 77.1549 288.656 71.6547C279.207 66.1546 271.553 52.7937 271.553 41.7995C271.553 30.8052 279.213 26.3536 288.662 31.8477Z" fill="#FAFAFA"/>
<path d="M288.662 36.7778C295.798 40.9118 301.531 50.9714 301.525 59.2396C301.519 67.5077 295.762 70.8569 288.656 66.7229C281.55 62.5888 275.794 52.5352 275.794 44.267C275.794 35.9989 281.556 32.6437 288.662 36.7778Z" fill="#BA68C8"/>
<path d="M288.662 41.7142C293.419 44.4823 297.291 51.2286 297.291 56.7707C297.291 62.3127 293.425 64.5595 288.656 61.7915C283.887 59.0235 280.027 52.2771 280.027 46.7291C280.027 41.181 283.893 38.9402 288.662 41.7142Z" fill="#FAFAFA"/>
<path d="M288.662 46.6622C289.94 47.5024 291.003 48.6341 291.765 49.9654C292.528 51.2968 292.968 52.7904 293.051 54.3253C293.051 57.1412 291.082 58.2856 288.656 56.8776C287.379 56.0367 286.317 54.9049 285.554 53.5737C284.792 52.2425 284.351 50.7492 284.268 49.2146C284.268 46.3747 286.224 45.2303 288.662 46.6622Z" fill="#BA68C8"/>
<path d="M222 85.6966L231.735 81.6284L237.759 81.3408V82.4432L228.541 87.8115L222 86.793V85.6966Z" fill="#BA68C8"/>
<path d="M237.759 81.3408L231.735 81.6284L222 85.6966L228.541 86.7151L237.759 81.3408Z" fill="#BA68C8"/>
<path opacity="0.2" d="M228.542 87.8113V86.7148L222 85.6963V86.7927L228.542 87.8113Z" fill="black"/>
<path opacity="0.1" d="M228.541 86.7151L237.759 81.3408V82.4432L228.541 87.8115V86.7151Z" fill="black"/>
<path d="M279.231 51.959L289.988 49.874V51.959L287.598 58.9151L283.994 55.4401L279.231 54.05V51.959Z" fill="#37474F"/>
<path d="M289.988 49.874L287.598 56.8301L283.994 53.349L279.231 51.959L289.988 49.874Z" fill="#455A64"/>
<path d="M287.597 56.8316V58.9166L283.994 55.4416V53.3506L287.597 56.8316Z" fill="#263238"/>
<path d="M283.994 53.349L279.231 51.959V54.05L283.994 55.44V53.349Z" fill="#263238"/>
<path d="M283.352 53.3505C283.464 53.2894 283.591 53.2616 283.718 53.27C283.845 53.2785 283.968 53.323 284.071 53.3984C284.361 53.5926 284.602 53.8525 284.775 54.1573C284.947 54.4622 285.046 54.8035 285.064 55.1539C285.078 55.2814 285.058 55.4103 285.005 55.5272C284.953 55.6442 284.871 55.7449 284.767 55.8189L223.897 91.2702L222.511 88.7777L283.352 53.3505Z" fill="#455A64"/>
<path d="M284.844 54.29C284.98 54.5576 285.055 54.8523 285.064 55.1528C285.078 55.2803 285.058 55.4092 285.005 55.5261C284.953 55.6431 284.871 55.7438 284.767 55.8178L223.897 91.2691L223.273 90.1547L284.844 54.29Z" fill="#37474F"/>
<path d="M223.189 88.848C223.482 89.0392 223.724 89.2974 223.898 89.6016C224.072 89.9057 224.171 90.2471 224.188 90.5975C224.188 91.2506 223.742 91.5142 223.189 91.1967C222.898 91.0036 222.657 90.7439 222.484 90.4388C222.312 90.1338 222.213 89.7919 222.196 89.4412C222.214 88.7941 222.66 88.5245 223.189 88.848Z" fill="#263238"/>
<path d="M229.189 88.1955V88.1895V87.0871L238.407 81.7188V82.8212L237.913 86.3262L230.944 92L229.189 88.1955Z" fill="#BA68C8"/>
<path opacity="0.2" d="M238.407 81.7188L237.913 85.2177V86.3202L238.407 82.8212V81.7188Z" fill="black"/>
<path opacity="0.2" d="M229.19 87.0859L230.944 90.8905V91.9929L229.19 88.1884V87.0859Z" fill="black"/>
<path opacity="0.1" d="M237.913 85.2188L230.944 90.8926V91.995L237.913 86.3212V85.2188Z" fill="black"/>
<defs>
<linearGradient id="paint0_linear" x1="0" y1="50" x2="343" y2="50" gradientUnits="userSpaceOnUse">
<stop stop-color="#4E54C8"/>
<stop offset="1" stop-color="#8F94FB"/>
</linearGradient>
</defs>
</svg>
