<svg width="343" height="100" viewBox="0 0 343 100" fill="none" xmlns="http://www.w3.org/2000/svg">
<rect width="343" height="100" fill="url(#paint0_linear)"/>
<mask id="mask0" mask-type="alpha" maskUnits="userSpaceOnUse" x="0" y="0" width="343" height="100">
<rect width="343" height="100" rx="12" fill="#ED713C"/>
</mask>
<g mask="url(#mask0)">
<circle opacity="0.1" cx="21.5" cy="115.5" r="61.5" fill="white"/>
<circle opacity="0.08" cx="324.5" cy="-15.5" r="61.5" fill="#CE92FF"/>
</g>
<g clip-path="url(#clip0)">
<path d="M300.872 82.1149L308.961 95.0545L313.523 87.1847C314.162 86.082 314.512 84.9905 314.557 83.9907L315.062 71.5018C315.173 68.811 313.028 67.093 309.578 67.0962L300.872 82.1149V82.1149Z" fill="url(#paint1_linear)"/>
<path d="M274.391 66.872L259.096 66.3643L263.658 58.4944C264.297 57.3918 265.065 56.5411 265.918 56.0056L276.528 49.3197C278.812 47.8787 281.378 48.8697 283.101 51.8472L274.391 66.872Z" fill="url(#paint2_linear)"/>
<path d="M278.454 104.643C274.627 111.246 261.829 126.931 258.394 124.955C254.958 122.979 262.196 104.097 266.023 97.4942C269.391 91.6847 272.985 91.878 276.421 93.8537C279.856 95.8295 281.825 98.8276 278.454 104.643Z" fill="url(#paint3_linear)"/>
<path d="M278.165 104.374C274.429 110.82 261.872 126.424 258.625 124.557C255.378 122.689 262.666 104.055 266.402 97.6095C269.692 91.9333 273.116 92.0853 276.364 93.9527C279.614 95.8142 281.455 98.6981 278.165 104.374Z" fill="url(#paint4_linear)"/>
<path d="M277.881 104.096C274.236 110.384 261.926 125.912 258.861 124.149C255.796 122.386 263.137 104.009 266.786 97.7152C269.995 92.1784 273.25 92.2733 276.315 94.0361C279.38 95.7988 281.09 98.5591 277.881 104.096Z" fill="url(#paint5_linear)"/>
<path d="M277.596 103.832C274.043 109.963 261.977 125.405 259.094 123.747C256.211 122.089 263.603 103.959 267.157 97.8287C270.285 92.4313 273.377 92.4728 276.26 94.1308C279.143 95.7888 280.724 98.435 277.596 103.832Z" fill="url(#paint6_linear)"/>
<path d="M277.31 103.556C273.848 109.529 262.029 124.894 259.328 123.341C256.627 121.787 264.076 103.909 267.538 97.9361C270.586 92.6782 273.505 92.6687 276.205 94.222C278.91 95.7692 280.357 98.2978 277.31 103.556Z" fill="url(#paint7_linear)"/>
<path d="M277.021 103.291C273.65 109.106 262.072 124.392 259.559 122.947C257.04 121.498 264.546 103.871 267.917 98.0555C270.884 92.9369 273.639 92.874 276.152 94.319C278.668 95.758 279.991 98.1665 277.021 103.291Z" fill="url(#paint8_linear)"/>
<path d="M276.741 103.02C273.458 108.683 262.13 123.886 259.794 122.542C257.463 121.202 265.01 103.825 268.293 98.1612C271.182 93.1759 273.765 93.0621 276.102 94.4059C278.432 95.7462 279.627 98.0406 276.741 103.02Z" fill="url(#paint9_linear)"/>
<path d="M276.454 102.743C273.263 108.249 262.176 123.372 260.027 122.137C257.879 120.901 265.483 103.775 268.674 98.2688C271.483 93.423 273.902 93.2556 276.05 94.4912C278.199 95.7268 279.263 97.8976 276.454 102.743Z" fill="url(#paint10_linear)"/>
<path d="M276.166 102.475C273.066 107.823 262.219 122.866 260.259 121.739C258.293 120.608 265.953 103.733 269.053 98.3841C271.781 93.6776 274.027 93.4594 275.994 94.5902C277.96 95.7211 278.893 97.7682 276.166 102.475Z" fill="url(#paint11_linear)"/>
<path d="M275.886 102.201C272.878 107.392 262.281 122.352 260.497 121.326C258.713 120.3 266.424 103.673 269.429 98.4878C272.076 93.9208 274.159 93.649 275.944 94.6752C277.724 95.7073 278.533 97.6343 275.886 102.201Z" fill="url(#paint12_linear)"/>
<path d="M275.599 101.929C272.682 106.962 262.327 121.842 260.731 120.924C259.129 120.003 266.893 103.633 269.81 98.5993C272.376 94.1717 274.296 93.8465 275.892 94.7644C277.491 95.6919 278.165 97.5013 275.599 101.929Z" fill="url(#paint13_linear)"/>
<path d="M275.309 101.66C272.483 106.536 262.375 121.34 260.961 120.526C259.547 119.713 267.362 103.59 270.188 98.7146C272.673 94.4263 274.42 94.0502 275.834 94.8634C277.248 95.6766 277.798 97.3659 275.309 101.66Z" fill="url(#paint14_linear)"/>
<path d="M283.15 95.0513L272.01 88.6445L271.1 90.2147C271.093 90.2268 271.082 90.245 271.075 90.2571C270.038 92.0455 271.695 94.9301 274.769 96.6977C277.849 98.4689 281.179 98.4522 282.216 96.6639C282.223 96.6517 282.233 96.6335 282.24 96.6214L283.15 95.0513Z" fill="url(#paint15_linear)"/>
<path d="M298.934 85.6032L272.33 70.3047L267.756 78.1966L267.762 78.2001C267.741 78.2365 267.714 78.2694 267.693 78.3057C265.219 82.573 269.171 89.4605 276.515 93.6833C283.864 97.9096 291.823 97.8715 294.296 93.6042C294.317 93.5679 294.332 93.528 294.353 93.4916L294.359 93.4951L298.934 85.6032Z" fill="url(#paint16_linear)"/>
<path opacity="0.5" d="M298.772 85.8822L272.166 70.582L268.519 76.8745L268.525 76.878C268.507 76.9083 268.487 76.929 268.469 76.9593C266.495 80.3662 270.855 86.5513 278.199 90.7745C285.549 95.0013 293.1 95.6664 295.075 92.2595C295.093 92.2292 295.101 92.2014 295.118 92.1711L295.124 92.1746L298.772 85.8822Z" fill="#C7BCD6"/>
<path d="M321.525 63.8327C329.394 53.3575 333.414 40.4184 332.372 27.3875C332.327 26.8366 332.278 26.2918 332.22 25.7495L329.678 1.94437L307.712 11.6475C307.211 11.8686 306.707 12.0958 306.212 12.3359C294.361 17.9524 285.117 27.8954 279.944 39.9206L267.937 67.839L267.943 67.8425C267.915 67.891 267.881 67.936 267.856 67.9784C264.569 73.6489 269.817 82.7896 279.566 88.3959C289.321 94.0057 299.89 93.9525 303.174 88.288C303.202 88.2395 303.224 88.1876 303.248 88.1452L303.254 88.1487L321.525 63.8327Z" fill="url(#paint17_linear)"/>
<path d="M332.211 25.7613L329.664 1.95378L307.689 11.6603C307.566 11.7189 307.447 11.7714 307.324 11.8299C307.834 15.8243 311.493 20.5058 317.056 23.7046C322.618 26.9033 328.512 27.7148 332.247 26.1613C332.233 26.032 332.222 25.8966 332.211 25.7613Z" fill="url(#paint18_linear)"/>
<path opacity="0.3" d="M332.211 25.7613L329.664 1.95378L307.689 11.6603C307.566 11.7189 307.447 11.7714 307.324 11.8299C307.834 15.8243 311.493 20.5058 317.056 23.7046C322.618 26.9033 328.512 27.7148 332.247 26.1613C332.233 26.032 332.222 25.8966 332.211 25.7613Z" fill="url(#paint19_linear)"/>
<path opacity="0.5" d="M321.525 63.8327C329.394 53.3575 333.414 40.4184 332.372 27.3875C332.327 26.8366 332.278 26.2918 332.22 25.7495L329.678 1.94437L307.712 11.6475C307.211 11.8686 306.707 12.0958 306.212 12.3359C294.361 17.9524 285.117 27.8954 279.944 39.9206L267.937 67.839L267.943 67.8425C267.915 67.891 267.881 67.936 267.856 67.9784C264.569 73.6489 269.817 82.7896 279.566 88.3959C289.321 94.0057 299.89 93.9525 303.174 88.288C303.202 88.2395 303.224 88.1876 303.248 88.1452L303.254 88.1487L321.525 63.8327Z" fill="url(#paint20_radial)"/>
<path d="M294.033 57.26C292.621 59.6958 290.776 60.9374 288.926 60.9881C288.869 60.9879 287.127 61.0606 287.07 61.0604C285.183 61.0337 287.141 59.7517 285.699 57.2667C282.8 52.2548 282.793 44.1394 285.684 39.1526C287.113 36.6864 284.841 35.3555 286.715 35.3345C286.766 35.3312 288.812 35.3766 288.862 35.3733C290.729 35.4208 292.588 36.6834 294.018 39.1459C296.92 44.1673 296.924 52.2732 294.033 57.26Z" fill="url(#paint21_linear)"/>
<path d="M291.943 57.2881C289.052 62.275 284.352 62.2547 281.453 57.2428C278.554 52.2309 278.543 44.1213 281.438 39.1284C284.329 34.1415 289.028 34.1617 291.928 39.1736C294.827 44.1855 294.837 52.2951 291.943 57.2881Z" fill="url(#paint22_linear)"/>
<path d="M290.957 55.5839C288.61 59.6316 284.796 59.6197 282.436 55.5483C280.077 51.4769 280.074 44.8905 282.424 40.8368C284.774 36.783 288.584 36.801 290.94 40.8785C293.3 44.9499 293.306 51.5302 290.957 55.5839Z" fill="url(#paint23_linear)"/>
<path d="M290.794 52.7913C289.028 55.8392 286.159 55.8298 284.382 52.7641C282.612 49.7018 282.603 44.7445 284.37 41.6966C286.137 38.6487 289.005 38.6581 290.782 41.7238C292.559 44.7896 292.561 49.7434 290.794 52.7913Z" fill="url(#paint24_linear)"/>
<path d="M284.009 55.7378C281.65 51.6666 281.647 45.0806 283.993 41.0331C285.075 39.1669 286.465 38.1649 287.891 38.0234C285.978 37.3435 283.913 38.2807 282.431 40.8376C280.085 44.8851 280.088 51.4711 282.444 55.5483C283.714 57.7413 285.409 58.7561 287.065 58.5937C285.94 58.189 284.873 57.2362 284.009 55.7378Z" fill="url(#paint25_linear)"/>
<path d="M292.275 39.109C290.882 36.7084 288.675 35.5443 287.399 35.4409C288.931 35.8288 290.659 37.1213 291.835 39.1551C294.734 44.1667 294.745 52.2757 291.851 57.2683C290.344 59.8676 288.096 61.0227 286.118 60.9029C288.071 61.2342 290.567 60.1815 292.284 57.2187C295.181 52.2356 295.174 44.1205 292.275 39.109Z" fill="url(#paint26_radial)"/>
<path d="M268.287 77.7208L248.673 90.1554L247.434 87.9648L251.798 80.435C252.409 79.3809 253.28 78.3391 254.357 77.3752L267.735 65.409C270.612 62.8316 274.571 61.1825 277.872 61.1831L279.049 63.3137L268.287 77.7208Z" fill="url(#paint27_linear)"/>
<path d="M269.529 79.9093L248.677 90.153L253.041 82.6234C253.652 81.5694 254.527 80.5215 255.596 79.5697L268.973 67.604C271.851 65.0267 275.809 63.3776 279.11 63.3782L269.529 79.9093Z" fill="url(#paint28_linear)"/>
<path d="M253.086 82.9235C253.697 81.8695 254.568 80.8277 255.641 79.8698L269.018 67.9041C271.769 65.4477 275.505 63.8326 278.711 63.6897L278.971 63.2415C275.666 63.247 271.708 64.896 268.834 67.4672L255.457 79.433C254.384 80.3909 253.513 81.4327 252.902 82.4867L248.538 90.0163L249.15 89.7141L253.086 82.9235V82.9235Z" fill="url(#paint29_radial)"/>
<path d="M294.508 92.8084L293.504 115.945L296.028 115.919L300.392 108.389C301.003 107.335 301.473 106.062 301.773 104.652L305.488 87.1286C306.29 83.3574 305.745 79.1184 304.093 76.2707L301.653 76.3209L294.508 92.8084Z" fill="url(#paint30_linear)"/>
<path d="M291.984 92.8339L293.504 115.943L297.868 108.414C298.479 107.36 298.953 106.081 299.246 104.683L302.961 87.1603C303.763 83.3893 303.217 79.1504 301.566 76.3027L291.984 92.8339Z" fill="url(#paint31_linear)"/>
<path d="M299.489 104.822L303.204 87.299C304.005 83.528 303.46 79.289 301.809 76.4414L301.756 76.5323C303.111 79.3468 303.516 83.214 302.782 86.6853L299.068 104.208C298.771 105.612 298.301 106.885 297.687 107.945L293.667 114.881L293.75 116.091L298.114 108.562C298.722 107.498 299.193 106.226 299.489 104.822Z" fill="url(#paint32_radial)"/>
</g>
<defs>
<linearGradient id="paint0_linear" x1="0" y1="50" x2="343" y2="50" gradientUnits="userSpaceOnUse">
<stop stop-color="#45108A"/>
<stop offset="1" stop-color="#13054E"/>
</linearGradient>
<linearGradient id="paint1_linear" x1="307.326" y1="80.4909" x2="344.72" y2="89.4082" gradientUnits="userSpaceOnUse">
<stop offset="0.0354" stop-color="#6B24D6"/>
<stop offset="0.2945" stop-color="#7733DC"/>
<stop offset="0.7943" stop-color="#975CED"/>
<stop offset="1" stop-color="#A56EF4"/>
</linearGradient>
<linearGradient id="paint2_linear" x1="288.09" y1="74.4328" x2="254.923" y2="43.8008" gradientUnits="userSpaceOnUse">
<stop offset="0.0354" stop-color="#6B24D6"/>
<stop offset="0.2945" stop-color="#7733DC"/>
<stop offset="0.7943" stop-color="#975CED"/>
<stop offset="1" stop-color="#A56EF4"/>
</linearGradient>
<linearGradient id="paint3_linear" x1="274.077" y1="97.8978" x2="261.687" y2="119.444" gradientUnits="userSpaceOnUse">
<stop stop-color="#F8299A"/>
<stop offset="0.1017" stop-color="#C9217D"/>
<stop offset="0.2306" stop-color="#94195C"/>
<stop offset="0.3615" stop-color="#671140"/>
<stop offset="0.4916" stop-color="#420B29"/>
<stop offset="0.621" stop-color="#250617"/>
<stop offset="0.7493" stop-color="#10030A"/>
<stop offset="0.8762" stop-color="#040103"/>
<stop offset="1"/>
</linearGradient>
<linearGradient id="paint4_linear" x1="274.061" y1="97.9268" x2="261.867" y2="119.13" gradientUnits="userSpaceOnUse">
<stop stop-color="#F93A9B"/>
<stop offset="0.0788" stop-color="#D63285"/>
<stop offset="0.2173" stop-color="#9E2562"/>
<stop offset="0.3567" stop-color="#6E1A44"/>
<stop offset="0.4939" stop-color="#46102C"/>
<stop offset="0.6282" stop-color="#270919"/>
<stop offset="0.7591" stop-color="#12040B"/>
<stop offset="0.8849" stop-color="#040103"/>
<stop offset="1"/>
</linearGradient>
<linearGradient id="paint5_linear" x1="274.045" y1="97.9522" x2="262.048" y2="118.814" gradientUnits="userSpaceOnUse">
<stop stop-color="#F94B9C"/>
<stop offset="0.0477" stop-color="#E4458F"/>
<stop offset="0.1977" stop-color="#A9336A"/>
<stop offset="0.347" stop-color="#752349"/>
<stop offset="0.4923" stop-color="#4B172F"/>
<stop offset="0.6327" stop-color="#2A0D1B"/>
<stop offset="0.7669" stop-color="#13060C"/>
<stop offset="0.8923" stop-color="#050103"/>
<stop offset="1"/>
</linearGradient>
<linearGradient id="paint6_linear" x1="274.027" y1="97.983" x2="262.227" y2="118.502" gradientUnits="userSpaceOnUse">
<stop stop-color="#FA5C9E"/>
<stop offset="0.0108" stop-color="#F55A9B"/>
<stop offset="0.1735" stop-color="#B54373"/>
<stop offset="0.3341" stop-color="#7E2E50"/>
<stop offset="0.4886" stop-color="#511E33"/>
<stop offset="0.6357" stop-color="#2E111D"/>
<stop offset="0.7736" stop-color="#15080D"/>
<stop offset="0.8988" stop-color="#050203"/>
<stop offset="1"/>
</linearGradient>
<linearGradient id="paint7_linear" x1="274.014" y1="98.0042" x2="262.41" y2="118.181" gradientUnits="userSpaceOnUse">
<stop stop-color="#FB6D9F"/>
<stop offset="0.1449" stop-color="#C3557C"/>
<stop offset="0.3157" stop-color="#893B57"/>
<stop offset="0.4808" stop-color="#582638"/>
<stop offset="0.6359" stop-color="#32161F"/>
<stop offset="0.7786" stop-color="#160A0E"/>
<stop offset="0.9044" stop-color="#060304"/>
<stop offset="1"/>
</linearGradient>
<linearGradient id="paint8_linear" x1="273.997" y1="98.0373" x2="262.59" y2="117.872" gradientUnits="userSpaceOnUse">
<stop stop-color="#FB7EA0"/>
<stop offset="0.1014" stop-color="#D56B88"/>
<stop offset="0.2882" stop-color="#954B5F"/>
<stop offset="0.4667" stop-color="#60303D"/>
<stop offset="0.6319" stop-color="#361B23"/>
<stop offset="0.7809" stop-color="#190C10"/>
<stop offset="0.9086" stop-color="#060304"/>
<stop offset="1"/>
</linearGradient>
<linearGradient id="paint9_linear" x1="273.98" y1="98.0663" x2="262.77" y2="117.558" gradientUnits="userSpaceOnUse">
<stop stop-color="#FC8FA1"/>
<stop offset="0.0474" stop-color="#EB8596"/>
<stop offset="0.2532" stop-color="#A45D69"/>
<stop offset="0.4476" stop-color="#6A3C44"/>
<stop offset="0.6248" stop-color="#3C2226"/>
<stop offset="0.7816" stop-color="#1B0F11"/>
<stop offset="0.9119" stop-color="#070405"/>
<stop offset="1"/>
</linearGradient>
<linearGradient id="paint10_linear" x1="273.966" y1="98.0877" x2="262.953" y2="117.238" gradientUnits="userSpaceOnUse">
<stop stop-color="#FCA0A2"/>
<stop offset="0.2063" stop-color="#B67475"/>
<stop offset="0.4181" stop-color="#764B4C"/>
<stop offset="0.6112" stop-color="#432B2B"/>
<stop offset="0.7786" stop-color="#1F1314"/>
<stop offset="0.9139" stop-color="#080505"/>
<stop offset="1"/>
</linearGradient>
<linearGradient id="paint11_linear" x1="273.95" y1="98.1167" x2="263.133" y2="116.924" gradientUnits="userSpaceOnUse">
<stop stop-color="#FDB1A3"/>
<stop offset="0.1406" stop-color="#CF9185"/>
<stop offset="0.3781" stop-color="#865E56"/>
<stop offset="0.5913" stop-color="#4C3531"/>
<stop offset="0.7725" stop-color="#231816"/>
<stop offset="0.9146" stop-color="#090706"/>
<stop offset="1"/>
</linearGradient>
<linearGradient id="paint12_linear" x1="273.933" y1="98.1438" x2="263.313" y2="116.609" gradientUnits="userSpaceOnUse">
<stop stop-color="#FEC2A5"/>
<stop offset="0.0479" stop-color="#EFB69B"/>
<stop offset="0.32" stop-color="#9B7665"/>
<stop offset="0.5607" stop-color="#584439"/>
<stop offset="0.7611" stop-color="#291F1A"/>
<stop offset="0.9135" stop-color="#0B0807"/>
<stop offset="1"/>
</linearGradient>
<linearGradient id="paint13_linear" x1="273.919" y1="98.1691" x2="263.496" y2="116.292" gradientUnits="userSpaceOnUse">
<stop stop-color="#FED3A6"/>
<stop offset="0.2349" stop-color="#B79877"/>
<stop offset="0.5116" stop-color="#695745"/>
<stop offset="0.7405" stop-color="#302820"/>
<stop offset="0.9094" stop-color="#0D0B09"/>
<stop offset="1"/>
</linearGradient>
<linearGradient id="paint14_linear" x1="273.902" y1="98.1981" x2="263.675" y2="115.978" gradientUnits="userSpaceOnUse">
<stop stop-color="#FFE4A7"/>
<stop offset="0.0994" stop-color="#E1CA94"/>
<stop offset="0.435" stop-color="#827455"/>
<stop offset="0.7068" stop-color="#3C3627"/>
<stop offset="0.9014" stop-color="#110F0B"/>
<stop offset="1"/>
</linearGradient>
<linearGradient id="paint15_linear" x1="270.657" y1="91.1001" x2="281.6" y2="97.4431" gradientUnits="userSpaceOnUse">
<stop offset="0.0202" stop-color="#45108A"/>
<stop offset="0.2929" stop-color="#3D065F"/>
<stop offset="1" stop-color="#10054D"/>
</linearGradient>
<linearGradient id="paint16_linear" x1="267.897" y1="78.2399" x2="294.032" y2="93.3893" gradientUnits="userSpaceOnUse">
<stop stop-color="#5C1CCC"/>
<stop offset="0.0268" stop-color="#6323D0"/>
<stop offset="0.067" stop-color="#7538DA"/>
<stop offset="0.1151" stop-color="#9259EA"/>
<stop offset="0.1414" stop-color="#A56EF4"/>
<stop offset="0.2273" stop-color="#C994FF"/>
<stop offset="0.2836" stop-color="#AE7AF0"/>
<stop offset="0.3788" stop-color="#7945D1"/>
<stop offset="0.5404" stop-color="#4916A1"/>
<stop offset="0.6229" stop-color="#4B17A4"/>
<stop offset="0.6946" stop-color="#521AAF"/>
<stop offset="0.762" stop-color="#5D1EC1"/>
<stop offset="0.8182" stop-color="#6B24D6"/>
<stop offset="0.9433" stop-color="#5B1DBD"/>
<stop offset="1" stop-color="#531AB0"/>
</linearGradient>
<linearGradient id="paint17_linear" x1="283.688" y1="33.1355" x2="325.204" y2="57.2004" gradientUnits="userSpaceOnUse">
<stop offset="0.0101" stop-color="#C1A1D5"/>
<stop offset="0.0442" stop-color="#C8ABDA"/>
<stop offset="0.1024" stop-color="#DAC6E6"/>
<stop offset="0.1773" stop-color="#F7F2F9"/>
<stop offset="0.197" stop-color="white"/>
<stop offset="0.2314" stop-color="#F9F5FB"/>
<stop offset="0.2892" stop-color="#E9DBF2"/>
<stop offset="0.3586" stop-color="#D1B4E3"/>
<stop offset="0.4264" stop-color="#B395D6"/>
<stop offset="0.4949" stop-color="#9C7DCB"/>
<stop offset="0.5583" stop-color="#8E6EC5"/>
<stop offset="0.6111" stop-color="#8969C3"/>
<stop offset="0.755" stop-color="#9471C6"/>
<stop offset="1" stop-color="#B086CC"/>
</linearGradient>
<linearGradient id="paint18_linear" x1="316.75" y1="5.88305" x2="333.495" y2="27.4104" gradientUnits="userSpaceOnUse">
<stop stop-color="#5C1CCC"/>
<stop offset="0.0364" stop-color="#6323D0"/>
<stop offset="0.0909" stop-color="#7538DA"/>
<stop offset="0.1563" stop-color="#9259EA"/>
<stop offset="0.1919" stop-color="#A56EF4"/>
<stop offset="0.3434" stop-color="#7945D1"/>
<stop offset="0.4368" stop-color="#6D37C7"/>
<stop offset="0.5966" stop-color="#5E27BA"/>
<stop offset="0.7735" stop-color="#561DB2"/>
<stop offset="1" stop-color="#531AB0"/>
</linearGradient>
<linearGradient id="paint19_linear" x1="335.015" y1="14.8766" x2="298.66" y2="12.3505" gradientUnits="userSpaceOnUse">
<stop stop-color="#5C1CCC"/>
<stop offset="0.0364" stop-color="#6323D0"/>
<stop offset="0.0909" stop-color="#7538DA"/>
<stop offset="0.1563" stop-color="#9259EA"/>
<stop offset="0.1919" stop-color="#A56EF4"/>
<stop offset="0.3434" stop-color="#7945D1"/>
<stop offset="0.4368" stop-color="#6D37C7"/>
<stop offset="0.5966" stop-color="#5E27BA"/>
<stop offset="0.7735" stop-color="#561DB2"/>
<stop offset="1" stop-color="#531AB0"/>
</linearGradient>
<radialGradient id="paint20_radial" cx="0" cy="0" r="1" gradientUnits="userSpaceOnUse" gradientTransform="translate(304.62 45.1731) rotate(29.9016) scale(34.0498 54.479)">
<stop offset="0.5253" stop-color="white"/>
<stop offset="0.5954" stop-color="#FBFAFD"/>
<stop offset="0.6767" stop-color="#EFECF6"/>
<stop offset="0.7636" stop-color="#DCD5EA"/>
<stop offset="0.8544" stop-color="#C0B4DA"/>
<stop offset="0.9473" stop-color="#9E8BC5"/>
<stop offset="1" stop-color="#8770B8"/>
</radialGradient>
<linearGradient id="paint21_linear" x1="289.872" y1="35.205" x2="289.894" y2="61.2599" gradientUnits="userSpaceOnUse">
<stop stop-color="#5C1CCC"/>
<stop offset="0.0268" stop-color="#6323D0"/>
<stop offset="0.067" stop-color="#7538DA"/>
<stop offset="0.1151" stop-color="#9259EA"/>
<stop offset="0.1414" stop-color="#A56EF4"/>
<stop offset="0.2273" stop-color="#C994FF"/>
<stop offset="0.2836" stop-color="#AE7AF0"/>
<stop offset="0.3788" stop-color="#7945D1"/>
<stop offset="0.5404" stop-color="#4916A1"/>
<stop offset="0.6229" stop-color="#4B17A4"/>
<stop offset="0.6946" stop-color="#521AAF"/>
<stop offset="0.762" stop-color="#5D1EC1"/>
<stop offset="0.8182" stop-color="#6B24D6"/>
<stop offset="0.9433" stop-color="#5B1DBD"/>
<stop offset="1" stop-color="#531AB0"/>
</linearGradient>
<linearGradient id="paint22_linear" x1="278.804" y1="43.671" x2="294.546" y2="52.7967" gradientUnits="userSpaceOnUse">
<stop offset="0.0354" stop-color="#A56EF4"/>
<stop offset="0.3636" stop-color="#C994FF"/>
<stop offset="0.5384" stop-color="#B379F5"/>
<stop offset="0.9117" stop-color="#7935DC"/>
<stop offset="1" stop-color="#6B24D6"/>
</linearGradient>
<linearGradient id="paint23_linear" x1="286.682" y1="58.2571" x2="286.664" y2="37.5978" gradientUnits="userSpaceOnUse">
<stop offset="0.0354" stop-color="#138BBD"/>
<stop offset="0.2257" stop-color="#169AC7"/>
<stop offset="0.5946" stop-color="#1FC3DF"/>
<stop offset="1" stop-color="#2AF6FF"/>
</linearGradient>
<linearGradient id="paint24_linear" x1="285.818" y1="35.4371" x2="288.094" y2="50.5499" gradientUnits="userSpaceOnUse">
<stop stop-color="white"/>
<stop offset="1"/>
</linearGradient>
<linearGradient id="paint25_linear" x1="284.264" y1="58.5274" x2="284.246" y2="37.9754" gradientUnits="userSpaceOnUse">
<stop stop-color="#5C1CCC"/>
<stop offset="0.2273" stop-color="#BA85FF"/>
<stop offset="0.3788" stop-color="#7945D1"/>
<stop offset="0.5404" stop-color="#4916A1"/>
<stop offset="0.6139" stop-color="#4B17A4"/>
<stop offset="0.6777" stop-color="#521AAF"/>
<stop offset="0.7378" stop-color="#5D1EC1"/>
<stop offset="0.7879" stop-color="#6B24D6"/>
<stop offset="0.9339" stop-color="#5B1DBD"/>
<stop offset="1" stop-color="#531AB0"/>
</linearGradient>
<radialGradient id="paint26_radial" cx="0" cy="0" r="1" gradientUnits="userSpaceOnUse" gradientTransform="translate(288.369 48.8823) rotate(29.9004) scale(9.76244)">
<stop stop-color="white"/>
<stop offset="1"/>
</radialGradient>
<linearGradient id="paint27_linear" x1="251.182" y1="86.6189" x2="281.171" y2="59.6308" gradientUnits="userSpaceOnUse">
<stop offset="0.197" stop-color="#7734DC"/>
<stop offset="0.3939" stop-color="#8C4FE7"/>
<stop offset="0.5909" stop-color="#A56EF4"/>
<stop offset="0.6667" stop-color="#BA8AFF"/>
<stop offset="0.803" stop-color="#A067F1"/>
<stop offset="1" stop-color="#9155EA"/>
</linearGradient>
<linearGradient id="paint28_linear" x1="257.43" y1="75.2407" x2="301.101" y2="85.6543" gradientUnits="userSpaceOnUse">
<stop offset="0.0354" stop-color="#6B24D6"/>
<stop offset="0.2945" stop-color="#7733DC"/>
<stop offset="0.7943" stop-color="#975CED"/>
<stop offset="1" stop-color="#A56EF4"/>
</linearGradient>
<radialGradient id="paint29_radial" cx="0" cy="0" r="1" gradientUnits="userSpaceOnUse" gradientTransform="translate(272.446 77.4161) rotate(29.9032) scale(14.3178 14.3181)">
<stop stop-color="white"/>
<stop offset="1"/>
</radialGradient>
<linearGradient id="paint30_linear" x1="298.052" y1="99.601" x2="302.206" y2="78.7103" gradientUnits="userSpaceOnUse">
<stop offset="0.0354" stop-color="#6B24D6"/>
<stop offset="0.1916" stop-color="#7733DC"/>
<stop offset="0.197" stop-color="#7734DC"/>
<stop offset="0.3939" stop-color="#8C4FE7"/>
<stop offset="0.5909" stop-color="#A56EF4"/>
<stop offset="0.6667" stop-color="#BA8AFF"/>
<stop offset="0.803" stop-color="#A067F1"/>
<stop offset="1" stop-color="#9155EA"/>
</linearGradient>
<linearGradient id="paint31_linear" x1="322.286" y1="118.839" x2="271.825" y2="72.2381" gradientUnits="userSpaceOnUse">
<stop offset="0.0354" stop-color="#6B24D6"/>
<stop offset="0.2945" stop-color="#7733DC"/>
<stop offset="0.7943" stop-color="#975CED"/>
<stop offset="1" stop-color="#A56EF4"/>
</linearGradient>
<radialGradient id="paint32_radial" cx="0" cy="0" r="1" gradientUnits="userSpaceOnUse" gradientTransform="translate(294.913 88.1577) rotate(29.9032) scale(14.3181 14.3184)">
<stop stop-color="white"/>
<stop offset="1"/>
</radialGradient>
<clipPath id="clip0">
<rect width="84" height="100" fill="white" transform="translate(250)"/>
</clipPath>
</defs>
</svg>
