<svg width="24" height="24" viewBox="0 0 24 24" fill="none" xmlns="http://www.w3.org/2000/svg">
    <rect width="24" height="24" rx="1.88235" fill="#A337FF"/>
    <path d="M8.66658 7.33329V5.33329C8.66658 5.15648 8.73682 4.98691 8.86185 4.86189C8.98687 4.73686 9.15644 4.66663 9.33325 4.66663H14.6666C14.8434 4.66663 15.013 4.73686 15.138 4.86189C15.263 4.98691 15.3333 5.15648 15.3333 5.33329V7.33329H17.9999C18.1767 7.33329 18.3463 7.40353 18.4713 7.52855C18.5963 7.65358 18.6666 7.82315 18.6666 7.99996V17.3333C18.6666 17.5101 18.5963 17.6797 18.4713 17.8047C18.3463 17.9297 18.1767 18 17.9999 18H5.99992C5.82311 18 5.65354 17.9297 5.52851 17.8047C5.40349 17.6797 5.33325 17.5101 5.33325 17.3333V7.99996C5.33325 7.82315 5.40349 7.65358 5.52851 7.52855C5.65354 7.40353 5.82311 7.33329 5.99992 7.33329H8.66658ZM6.66659 14.6666V16.6666H17.3333V14.6666H6.66659ZM6.66659 13.3333H17.3333V8.66663H6.66659V13.3333ZM9.99992 5.99996V7.33329H13.9999V5.99996H9.99992ZM11.3333 11.3333H12.6666V12.6666H11.3333V11.3333Z" fill="white"/>
</svg>
