<svg width="30" height="30" viewBox="0 0 30 30" fill="none" xmlns="http://www.w3.org/2000/svg">
<path d="M3.61105 22.867C3.61105 21.9337 4.37766 21.167 5.31109 21.167H7.78884C8.73326 21.167 9.5 21.9337 9.5 22.867V27.2781C9.5 27.5781 9.24447 27.8337 8.94444 27.8337H4.16661C3.85547 27.8337 3.61105 27.5781 3.61105 27.2781V22.867Z" fill="#5E81F4"/>
<path d="M12.0557 18.9774C12.0557 18.044 12.8223 17.2773 13.7667 17.2773H16.2333C17.1777 17.2773 17.9445 18.044 17.9445 18.9774V27.2773C17.9445 27.5774 17.6999 27.8329 17.3889 27.8329H12.6112C12.3001 27.8329 12.0557 27.5774 12.0557 27.2773V18.9774Z" fill="#5E81F4"/>
<path d="M20.5 13.4217C20.5 12.4883 21.2667 11.7217 22.2111 11.7217H24.6889C25.6334 11.7217 26.3889 12.4883 26.3889 13.4217V27.2772C26.3889 27.5773 26.1445 27.8328 25.8334 27.8328H21.0555C20.7555 27.8328 20.5 27.5773 20.5 27.2772V13.4217Z" fill="#5E81F4"/>
<path d="M19.6458 5.01124L18.3044 4.24131C17.7727 3.93587 17.5883 3.25661 17.8943 2.72439C18.2008 2.18991 18.8821 2.01026 19.4112 2.31423L23.2665 4.52723C24.0014 4.94931 23.8428 5.87699 23.5827 6.20759L21.4631 9.89832C21.1582 10.43 20.48 10.615 19.9461 10.3085C19.4145 10.003 19.23 9.32378 19.536 8.79155L20.5219 7.07484C15.0392 8.37814 10.3898 11.3535 6.67791 15.9449C6.29271 16.4218 5.59392 16.4961 5.11541 16.1109C4.63798 15.7251 4.56419 15.0253 4.95048 14.5484C8.90026 9.66157 13.8376 6.47038 19.6458 5.01124Z" fill="#5E81F4"/>
</svg>
