<svg width="30" height="30" viewBox="0 0 30 30" fill="none" xmlns="http://www.w3.org/2000/svg">
<path d="M20.289 4.09799L19.6223 7.23133H10.3223L9.70004 4.0202C9.34128 2.44198 10.9468 0.975366 12.5556 1.60911L14.7556 2.46469C14.9223 2.52023 15.1111 2.52023 15.2778 2.46469L17.4445 1.62023C19.0536 0.995805 20.6701 2.43016 20.289 4.09799Z" fill="#5E81F4"/>
<path d="M15.8584 19.6719H14.4263V21.8287H15.8584C16.4841 21.8287 16.9362 21.3079 16.9362 20.7503C16.9362 20.1558 16.4529 19.6719 15.8584 19.6719Z" fill="#5E81F4"/>
<path d="M15.8584 15.4521H14.4263V17.603H15.8584C16.4841 17.603 16.9362 17.0822 16.9362 16.5246C16.9362 15.9337 16.4529 15.4521 15.8584 15.4521Z" fill="#5E81F4"/>
<path d="M20.5333 9.4541H9.46664C5.98886 14.143 4.22223 17.7763 4.22223 20.2986C4.22223 25.6097 8.04445 28.543 15 28.543C21.9556 28.543 25.7777 25.6097 25.7777 20.2986C25.7777 17.7763 24.0111 14.143 20.5333 9.4541ZM19.0111 20.7541C19.0111 22.4683 17.6088 23.8985 15.8555 23.8985H15.8334V24.3541C15.8334 24.9207 15.3666 25.3875 14.8 25.3875C14.2334 25.3875 13.7666 24.9207 13.7666 24.3541V23.8985H12.0333C11.4667 23.8985 11 23.4319 11 22.8652C11 22.2874 11.4667 21.8319 12.0333 21.8319H12.3556V15.4541H12.1556C11.5889 15.4541 11.1223 14.9875 11.1223 14.4208C11.1223 13.843 11.5889 13.3875 12.1556 13.3875H13.7666V12.9319C13.7666 12.3652 14.2334 11.8986 14.8 11.8986C15.3666 11.8986 15.8334 12.3652 15.8334 12.9319V13.3875H15.8555C17.5889 13.3875 19.0111 14.7874 19.0111 16.5208C19.0111 17.3097 18.7 18.0652 18.1778 18.6319C18.6889 19.1986 19.0111 19.9319 19.0111 20.7541Z" fill="#5E81F4"/>
</svg>
