<svg width="30" height="30" viewBox="0 0 30 30" fill="none" xmlns="http://www.w3.org/2000/svg">
<path d="M29.115 5H22.4337C22.1305 5 21.8395 5.14135 21.6735 5.39086C21.4387 5.74394 21.4945 6.19845 21.7866 6.48579L23.1717 7.8481L18.9125 12.037L14.4062 7.60503C14.0607 7.26506 13.5003 7.26518 13.1547 7.60503L3.33331 17.2646V25L13.7805 14.725L18.2867 19.1571C18.6161 19.4943 19.2088 19.4942 19.5382 19.1571L27.1042 11.7158L28.4893 13.078C28.7817 13.3658 29.2448 13.4203 29.6035 13.1886C29.8567 13.0251 30 12.7389 30 12.441V5.87038C30 5.3897 29.6038 5 29.115 5Z" fill="#5E81F4"/>
<path d="M29.1211 28.2422H1.75781V0.878906C1.75781 0.393516 1.3643 0 0.878906 0C0.393516 0 0 0.393516 0 0.878906V29.1211C0 29.6065 0.393516 30 0.878906 30H29.1211C29.6065 30 30 29.6065 30 29.1211C30 28.6357 29.6065 28.2422 29.1211 28.2422Z" fill="#5E81F4"/>
</svg>
