<svg width="16" height="16" viewBox="0 0 16 16" fill="none" xmlns="http://www.w3.org/2000/svg">
    <path d="M0 2C0 0.895431 0.895431 0 2 0H14C15.1046 0 16 0.895431 16 2V14C16 15.1046 15.1046 16 14 16H2C0.895431 16 0 15.1046 0 14V2Z" fill="#FFD54F"/>
    <path d="M8.37577 3.27747L8.31848 3.47218V9.12232L8.37577 9.17951L10.9985 7.62922L8.37577 3.27747Z" fill="white"/>
    <path d="M8.37578 3.27747L5.75305 7.62921L8.37578 9.17952V6.43711V3.27747Z" fill="white"/>
    <path d="M8.37579 10.0328L8.34351 10.0721V12.0848L8.37579 12.1791L11.0001 8.48328L8.37579 10.0328Z" fill="white"/>
    <path d="M8.37578 12.1791V10.0328L5.75305 8.48328L8.37578 12.1791Z" fill="white"/>
    <path d="M8.37585 9.1795L10.9985 7.62923L8.37585 6.43713V9.1795Z" fill="white"/>
    <path d="M5.75305 7.62923L8.37574 9.17952V6.43713L5.75305 7.62923Z" fill="white"/>
</svg>
