<svg width="131" height="109" viewBox="0 0 131 109" fill="none" xmlns="http://www.w3.org/2000/svg">
<path opacity="0.3" d="M103.94 62.2416C103.94 62.2416 108.386 43.4094 123.387 41.3391C123.387 41.3391 126.305 40.9806 127.277 44.1922C128.248 47.4037 122.446 47.4263 118.859 48.7185C115.273 50.0107 106.91 55.486 103.94 62.2416Z" fill="#F78248"/>
<path opacity="0.3" d="M103.6 58.717C103.6 58.717 102.04 43.1176 112.984 37.5817C112.984 37.5817 115.125 36.5382 116.716 38.7429C118.307 40.9475 113.868 42.4931 111.458 44.4271C109.048 46.361 104.094 52.7588 103.6 58.717Z" fill="#F78248"/>
<path d="M22.6676 95.8345C20.3515 90.5614 28.7519 86.031 28.7519 86.031C28.7519 86.031 39.821 89.611 41.4103 88.6294C42.9995 87.6478 32.5447 83.724 32.5447 83.724C35.1243 81.2021 45.0154 78.8904 45.0154 78.8904C45.0154 78.8904 51.6881 88.0914 52.9865 86.7486C54.285 85.4059 46.664 78.901 46.664 78.901C50.0256 77.5337 55.0962 78.6563 55.0962 78.6563C62.3984 81.254 58.6828 90.4895 58.6828 90.4895C58.6828 90.4895 61.0641 93.6286 65.794 95.6197C65.794 95.6197 66.745 95.925 68.0694 96.6791L67.3314 97.273C67.1117 97.1241 66.8914 96.9864 66.6698 96.862H66.6658L66.6558 96.8567C66.5134 96.7836 66.3104 96.6798 66.0602 96.5554C65.4792 96.2961 65.0619 96.0899 64.7784 95.935C62.9868 95.0937 60.5589 94.0728 59.6045 94.2171C59.587 94.0576 59.5485 93.9011 59.4901 93.7516L59.6045 94.2171C60.5216 97.9414 54.5678 103.475 50.4668 105.586C46.3658 107.697 47.1005 105.471 47.6982 102.335C48.2958 99.1997 52.6085 96.4284 53.2727 94.8529C53.9369 93.2774 51.7133 94.0263 49.5124 96.0952C47.3115 98.1642 48.0283 101.453 44.5289 104.865C41.0296 108.276 32.399 103.476 32.399 103.476C35.67 102.181 39.2 96.9585 38.655 95.9143C38.1099 94.8702 31.2323 100.55 29.9312 101.152C28.6301 101.753 24.983 101.11 22.6676 95.8345Z" fill="#F78248"/>
<path d="M128.428 102.177C131.807 98.193 125.68 92.0832 125.68 92.0832C125.68 92.0832 115.133 92.3313 114.006 91.067C112.88 89.8028 122.982 89.0952 122.982 89.0952C121.394 86.2354 113.399 81.6685 113.399 81.6685C113.399 81.6685 105.217 87.9386 104.436 86.4363C103.655 84.9339 111.964 81.2536 111.964 81.2536C109.397 79.1959 104.7 78.8594 104.7 78.8594C97.681 79.2285 98.5175 88.2153 98.5175 88.2153C98.5175 88.2153 95.6351 90.3268 91.009 90.8343C91.009 90.8343 90.1032 90.8529 88.7568 91.1668L89.2447 91.8744C89.4741 91.8012 89.7012 91.7392 89.9262 91.6882C89.9268 91.6879 89.9275 91.6877 89.9282 91.6877C89.9289 91.6877 89.9295 91.6879 89.9302 91.6882H89.9402C90.0826 91.6616 90.2862 91.6217 90.5391 91.5805C91.1115 91.5053 91.5248 91.4361 91.8143 91.373C93.5893 91.1069 95.9632 90.8462 96.7552 91.2187C96.8117 91.0845 96.8858 90.9583 96.9755 90.8436C96.9049 90.9633 96.8317 91.0876 96.7552 91.2187C94.9935 94.216 98.7338 100.567 101.751 103.462C104.768 106.358 104.706 104.232 104.999 101.353C105.292 98.4744 102.262 94.9503 102.093 93.4087C101.923 91.8671 103.662 93.0934 105.039 95.461C106.416 97.8286 104.941 100.501 107.098 104.373C109.256 108.245 117.999 106.301 117.999 106.301C115.492 104.329 113.776 98.8807 114.522 98.1119C115.268 97.3431 119.772 104.061 120.747 104.919C121.722 105.778 125.05 106.16 128.428 102.177Z" fill="#F78248"/>
<path opacity="0.5" d="M44.3799 25.0153C47.8619 19.1768 57.978 24.1355 57.978 24.1355C57.978 24.1355 62.1249 37.2177 64.1575 38.0709C66.19 38.9242 62.7971 26.1938 62.7971 26.1938C66.99 26.9413 75.9953 34.8534 75.9953 34.8534C75.9953 34.8534 71.7232 47.5678 73.9042 47.8944C76.0851 48.2209 77.1134 36.4449 77.1134 36.4449C80.7332 38.7353 83.1304 44.3736 83.1304 44.3736C85.6388 53.1656 74.2123 55.9302 74.2123 55.9302C74.2123 55.9302 72.8273 60.3681 74.1551 66.275C74.1551 66.275 74.5138 67.3977 74.6975 69.186L73.62 68.8847C73.6127 68.5715 73.594 68.2655 73.5614 67.9676C73.5619 67.9667 73.5622 67.9657 73.5622 67.9646C73.5622 67.9636 73.5619 67.9625 73.5614 67.9616C73.5617 67.9574 73.5617 67.9532 73.5614 67.949C73.5341 67.7621 73.4949 67.4954 73.4429 67.1702C73.2945 66.434 73.2054 65.8966 73.1608 65.5136C72.7408 63.2165 72.058 60.1858 71.2653 59.3685C71.4063 59.2421 71.5302 59.0979 71.634 58.9395L71.2653 59.3685C68.315 62.8015 58.9104 60.8802 54.0687 58.3902C49.2269 55.9003 51.8724 55.0789 55.2959 53.5028C58.7194 51.9266 64.3418 54.1678 66.3125 53.7249C68.2831 53.282 66.0383 51.6632 62.5396 50.9669C59.0409 50.2706 56.3708 53.2155 50.6931 52.1939C45.0155 51.1724 43.7117 39.5959 43.7117 39.5959C47.1997 41.8491 54.6384 41.6575 55.2706 40.4166C55.9029 39.1756 45.7243 36.4688 44.2541 35.6282C42.7839 34.7876 40.8978 30.8545 44.3799 25.0153Z" fill="#F78248"/>
<path d="M83.2581 35.7022C83.2534 35.3436 83.3213 34.9878 83.4577 34.6561C83.5883 34.342 83.783 34.0586 84.0294 33.8241C84.2855 33.5834 84.5874 33.3968 84.9172 33.2754C85.2915 33.1381 85.6879 33.0704 86.0866 33.0759C86.4881 33.0711 86.8871 33.1386 87.2646 33.2754C87.5978 33.3955 87.9031 33.5822 88.1617 33.8241C88.4077 34.0589 88.6022 34.3422 88.7327 34.6561C88.8688 34.9879 88.9367 35.3436 88.9324 35.7022C88.9372 36.058 88.8692 36.411 88.7327 36.7397C88.6004 37.0501 88.4061 37.3302 88.1617 37.563C87.9029 37.8047 87.5977 37.9914 87.2646 38.1117C86.887 38.2482 86.488 38.3157 86.0866 38.3112C85.6879 38.3163 85.2916 38.2487 84.9172 38.1117C84.5875 37.99 84.2856 37.8034 84.0294 37.563C83.7846 37.3304 83.5901 37.0502 83.4577 36.7397C83.3209 36.4111 83.253 36.058 83.2581 35.7022ZM88.199 30.8214H83.9795L83.3805 16.4131H88.7966L88.199 30.8214Z" fill="#F78248"/>
<path d="M70.5177 21.6145C70.5157 21.3408 70.5685 21.0695 70.6728 20.8165C70.773 20.5755 70.9224 20.3581 71.1114 20.178C71.3081 19.9936 71.5398 19.8504 71.7929 19.757C72.0804 19.6521 72.3847 19.6007 72.6907 19.6054C72.9983 19.5997 73.3045 19.6495 73.5945 19.7524C73.8501 19.8446 74.0842 19.9879 74.2826 20.1734C74.4716 20.3534 74.621 20.5709 74.7212 20.8118C74.8265 21.0662 74.8792 21.3393 74.8763 21.6145C74.88 21.8884 74.8272 22.16 74.7212 22.4126C74.6199 22.651 74.4706 22.866 74.2826 23.0444C74.0843 23.2301 73.8501 23.3733 73.5945 23.4654C73.3048 23.5699 72.9986 23.6213 72.6907 23.617C72.3847 23.6217 72.0804 23.5703 71.7929 23.4654C71.5397 23.3722 71.3079 23.229 71.1114 23.0444C70.9234 22.866 70.7741 22.651 70.6728 22.4126C70.5672 22.1599 70.5144 21.8883 70.5177 21.6145ZM74.3113 17.869H71.0721L70.6129 6.8125H74.7691L74.3113 17.869Z" fill="#AEC3FF"/>
<path d="M96.0803 42.3037H70.0959C69.4675 42.3037 68.8648 42.5529 68.4201 42.9967L50.0482 61.3574C49.6039 61.8017 49.3542 62.4039 49.354 63.032V88.9975C49.3544 89.6256 49.604 90.2278 50.0482 90.6721L68.4221 109.032C68.6422 109.252 68.9034 109.427 69.191 109.546C69.4785 109.665 69.7867 109.726 70.0979 109.726H96.0822C96.3934 109.726 96.7015 109.665 96.9889 109.546C97.2764 109.427 97.5375 109.252 97.7574 109.032L116.131 90.6721C116.576 90.228 116.826 89.6256 116.826 88.9975V63.032C116.826 62.721 116.764 62.413 116.645 62.1257C116.526 61.8384 116.351 61.5773 116.131 61.3574L97.7554 42.9967C97.311 42.5529 96.7085 42.3036 96.0803 42.3037Z" fill="#F78248"/>
<path d="M94.2522 106.35H71.9236C71.4762 106.351 71.033 106.263 70.6197 106.092C70.2064 105.921 69.8312 105.669 69.5157 105.352L53.7273 89.5761C53.41 89.2609 53.1583 88.8859 52.987 88.4729C52.8156 88.0599 52.7279 87.617 52.729 87.1699V64.8575C52.7281 64.4104 52.8158 63.9676 52.9871 63.5546C53.1585 63.1416 53.4101 62.7666 53.7273 62.4513L69.5157 46.6743C69.8312 46.3573 70.2064 46.1059 70.6197 45.9347C71.033 45.7634 71.4762 45.6758 71.9236 45.6768H94.2522C94.6996 45.6757 95.1428 45.7633 95.5561 45.9345C95.9694 46.1057 96.3447 46.3572 96.6601 46.6743L112.448 62.452C112.766 62.767 113.018 63.1418 113.189 63.5547C113.36 63.9677 113.448 64.4105 113.447 64.8575V87.1699C113.448 87.6171 113.36 88.06 113.189 88.473C113.018 88.8861 112.766 89.261 112.448 89.5761L96.6601 105.353C96.3447 105.67 95.9694 105.922 95.5561 106.093C95.1428 106.264 94.6996 106.351 94.2522 106.35ZM71.9236 47.9911C71.7804 47.9909 71.6386 48.019 71.5063 48.0738C71.374 48.1286 71.2539 48.209 71.1529 48.3104L55.3645 64.088C55.263 64.1888 55.1825 64.3087 55.1277 64.4408C55.0728 64.5729 55.0448 64.7145 55.0451 64.8575V87.1699C55.0447 87.313 55.0728 87.4548 55.1276 87.587C55.1824 87.7192 55.263 87.8392 55.3645 87.9401L71.1529 103.718C71.254 103.819 71.3741 103.899 71.5064 103.954C71.6387 104.009 71.7805 104.037 71.9236 104.036H94.2522C94.3953 104.037 94.5372 104.009 94.6695 103.954C94.8017 103.899 94.9219 103.819 95.0229 103.718L110.811 87.9401C110.913 87.8391 110.993 87.7191 111.048 87.5869C111.103 87.4547 111.131 87.313 111.13 87.1699V64.8575C111.13 64.7145 111.102 64.5729 111.048 64.4409C110.993 64.3088 110.913 64.1889 110.811 64.088L95.0229 48.3104C94.9219 48.2089 94.8018 48.1284 94.6695 48.0736C94.5372 48.0188 94.3954 47.9908 94.2522 47.9911H71.9236Z" fill="#FFE5D4"/>
<path d="M101.095 76.8636L100.639 76.4699C100.088 75.997 99.3716 75.7609 98.6467 75.813C97.9219 75.8651 97.2469 76.2011 96.7686 76.7479L94.199 79.7134C94.1181 79.8074 94.0103 79.8743 93.8902 79.9051C93.77 79.9358 93.6433 79.929 93.5271 79.8855C93.411 79.842 93.311 79.7639 93.2407 79.6617C93.1704 79.5596 93.1332 79.4383 93.1342 79.3143C93.1342 79.082 93.1217 78.8498 93.0969 78.6187V59.9534C93.0943 59.3629 92.858 58.7975 92.4397 58.3804C92.0213 57.9634 91.4549 57.7287 90.864 57.7275H90.699C90.1079 57.7292 89.5415 57.9646 89.1235 58.3823C88.7055 58.8 88.4699 59.366 88.4681 59.9567V72.1065C88.4681 72.2476 88.412 72.383 88.3122 72.4827C88.2123 72.5825 88.0769 72.6386 87.9357 72.6386C87.7793 72.6386 87.6292 72.5765 87.5185 72.466C87.4078 72.3555 87.3456 72.2057 87.3454 72.0493V57.5991C87.3438 57.0282 87.1162 56.4812 86.7123 56.0774C86.3084 55.6737 85.761 55.4461 85.1897 55.4443H84.8756C84.3042 55.4461 83.7568 55.6737 83.3528 56.0774C82.9488 56.4811 82.721 57.0282 82.7193 57.5991V72.1431C82.7193 72.2742 82.6672 72.3998 82.5744 72.4925C82.4817 72.5852 82.3559 72.6372 82.2248 72.6372C82.1421 72.6373 82.0602 72.6211 81.9837 72.5895C81.9073 72.5579 81.8379 72.5116 81.7794 72.4532C81.7209 72.3947 81.6745 72.3253 81.6429 72.249C81.6113 72.1726 81.5951 72.0907 81.5952 72.0081V60.4143C81.5936 59.8235 81.3581 59.2574 80.94 58.8397C80.522 58.422 79.9555 58.1866 79.3643 58.185H79.1986C78.6074 58.1866 78.0409 58.422 77.6229 58.8397C77.2049 59.2574 76.9693 59.8235 76.9677 60.4143V72.1025C76.9677 72.2436 76.9116 72.379 76.8118 72.4787C76.7119 72.5785 76.5765 72.6346 76.4353 72.6346C76.358 72.6346 76.2814 72.6194 76.21 72.5898C76.1386 72.5602 76.0737 72.5168 76.0191 72.4621C75.9644 72.4075 75.9211 72.3426 75.8916 72.2712C75.8621 72.1998 75.8469 72.1233 75.847 72.046V62.9042C75.8451 62.3136 75.6094 61.7477 75.1915 61.33C74.7735 60.9124 74.2072 60.6769 73.6161 60.675H73.4511C72.86 60.6769 72.2937 60.9124 71.8758 61.33C71.4578 61.7477 71.2221 62.3136 71.2202 62.9042V78.9605C71.2202 79.0051 71.2202 79.049 71.2249 79.0936C71.2249 79.168 71.2202 79.2432 71.2202 79.3183V88.1562C71.2202 91.7475 74.1612 94.687 77.7557 94.687H86.6C87.6948 94.6849 88.7716 94.4084 89.7318 93.8828C90.692 93.3571 91.5048 92.5992 92.0959 91.6783C92.445 91.1308 92.8322 90.6086 93.2546 90.1154L101.379 80.7382C101.854 80.186 102.09 79.4684 102.037 78.7423C101.984 78.0163 101.645 77.3408 101.095 76.8636Z" fill="#FFE5D4"/>
</svg>
