<svg width="18" height="18" viewBox="0 0 18 18" fill="none" xmlns="http://www.w3.org/2000/svg">
<path d="M18 3C18 2.58562 17.6644 2.25 17.25 2.25H7.5V9.75H0V15C0 15.4144 0.335625 15.75 0.75 15.75H17.25C17.6644 15.75 18 15.4144 18 15V3Z" fill="#B41F30"/>
<path d="M18 3.75H7.5V5.25H18V3.75Z" fill="#E6E6E6"/>
<path d="M18 6.75H7.5V8.25H18V6.75Z" fill="#E6E6E6"/>
<path d="M0 9.75V11.25H18V9.75H7.5H0Z" fill="#E6E6E6"/>
<path d="M18 12.75H0V14.25H18V12.75Z" fill="#E6E6E6"/>
<path d="M7.5 9.75H0V3C0 2.58562 0.335625 2.25 0.75 2.25H7.5V9.75Z" fill="#00256A"/>
<path d="M3.75011 5.2207L3.51273 5.7337H2.94873L3.36123 6.1612L3.20898 6.7792L3.75011 6.47245L4.29123 6.7792L4.13898 6.1612L4.55148 5.7337H3.98673L3.75011 5.2207Z" fill="white"/>
<path d="M1.91526 3.38672L1.67826 3.89972H1.11426L1.52638 4.32722L1.37413 4.94522L1.91526 4.63847L2.45676 4.94522L2.30413 4.32722L2.71663 3.89972H2.15188L1.91526 3.38672Z" fill="white"/>
<path d="M5.58507 3.38672L5.82207 3.89972H6.38607L5.97394 4.32722L6.12619 4.94522L5.58507 4.63847L5.04357 4.94522L5.19619 4.32722L4.78369 3.89972H5.34844L5.58507 3.38672Z" fill="white"/>
<path d="M1.91526 8.61319L1.67826 8.10019H1.11426L1.52638 7.67269L1.37413 7.05469L1.91526 7.36144L2.45676 7.05469L2.30413 7.67269L2.71663 8.10019H2.15188L1.91526 8.61319Z" fill="white"/>
<path d="M5.58507 8.61319L5.82207 8.10019H6.38607L5.97394 7.67269L6.12619 7.05469L5.58507 7.36144L5.04357 7.05469L5.19619 7.67269L4.78369 8.10019H5.34844L5.58507 8.61319Z" fill="white"/>
</svg>
