<svg width="20" height="20" viewBox="0 0 20 20" fill="none" xmlns="http://www.w3.org/2000/svg">
    <path d="M3.87725 12.4692C4.37525 12.9083 4.94 13.2564 5.54525 13.5181L8.72826 11.5483C9.38676 11.1388 10.2688 11.2357 10.82 11.7819L11.8903 12.8366C13.4945 11.671 14.5003 9.80621 14.5003 7.7825C14.5003 4.31826 11.6405 1.5 8.12526 1.5C4.61 1.5 1.75024 4.31826 1.75024 7.7825C1.75024 9.57043 2.525 11.2785 3.87725 12.4692ZM8.41026 8.33684H7.84025C6.9635 8.33684 6.25025 7.63394 6.25025 6.76991C6.25025 5.9931 6.81875 5.35376 7.56275 5.22368V4.64125C7.56275 4.33526 7.81475 4.08691 8.12526 4.08691C8.43576 4.08691 8.68776 4.33526 8.68776 4.64125V5.19559H9.43776C9.74826 5.19559 10.0003 5.44393 10.0003 5.74993C10.0003 6.05592 9.74826 6.30427 9.43776 6.30427H7.84025C7.58375 6.30427 7.37525 6.50974 7.37525 6.76252C7.37525 7.02269 7.58375 7.22816 7.84025 7.22816H8.41026C9.28701 7.22816 10.0003 7.93107 10.0003 8.79509C10.0003 9.57191 9.43176 10.2112 8.68776 10.3413V10.923C8.68776 11.229 8.43576 11.4774 8.12526 11.4774C7.81475 11.4774 7.56275 11.229 7.56275 10.923V10.3694H6.81275C6.50225 10.3694 6.25025 10.1211 6.25025 9.81508C6.25025 9.50908 6.50225 9.26074 6.81275 9.26074H8.41026C8.66676 9.26074 8.87526 9.05526 8.87526 8.80248C8.87526 8.54232 8.66676 8.33684 8.41026 8.33684Z" fill="#5E81F4"/>
    <path d="M18.25 9.63037H15.25C14.947 9.63037 14.6725 9.81072 14.557 10.0864C14.4407 10.3628 14.5052 10.6807 14.7197 10.892L15.6895 11.8477L12.625 14.8678L10.1552 12.4338C9.90998 12.1907 9.52448 12.1485 9.23048 12.3282L1.35547 17.1324C1.00297 17.3475 0.894971 17.8028 1.11247 18.1494C1.25422 18.3756 1.49947 18.4998 1.75072 18.4998C1.88572 18.4998 2.02147 18.4643 2.14447 18.3889L9.51398 13.8929L12.094 16.4354C12.3872 16.7244 12.8612 16.7244 13.1545 16.4354L16.75 12.8928L17.7197 13.8485C17.863 13.9897 18.055 14.0651 18.25 14.0651C18.3467 14.0651 18.4442 14.0466 18.5372 14.0089C18.8177 13.8943 19 13.6246 19 13.326V10.3695C19 9.9615 18.6647 9.63037 18.25 9.63037Z" fill="#5E81F4"/>
</svg>
