<svg width="20" height="20" viewBox="0 0 20 20" fill="none" xmlns="http://www.w3.org/2000/svg">
    <path d="M17.7891 3.06426L16.6628 2.89238C16.6121 2.88463 16.5641 2.8645 16.523 2.83378C16.4819 2.80307 16.4489 2.7627 16.4271 2.71625L15.9375 1.67285L15.4479 2.71605C15.4261 2.7625 15.3932 2.80287 15.3521 2.83359C15.311 2.86431 15.2629 2.88443 15.2122 2.89219L14.0859 3.06406L14.9112 3.91004C14.9454 3.94505 14.9708 3.98758 14.9856 4.03423C15.0003 4.08087 15.0038 4.13032 14.996 4.17859L14.8046 5.35242L15.7864 4.80969C15.8327 4.78411 15.8847 4.77069 15.9376 4.77069C15.9905 4.77069 16.0425 4.78411 16.0888 4.80969L17.0707 5.35242L16.8793 4.17859C16.8714 4.13032 16.875 4.08087 16.8897 4.03423C16.9044 3.98758 16.9299 3.94505 16.964 3.91004L17.7891 3.06426Z" fill="#5E81F4"/>
    <path d="M1.875 15H6.875V18.75H1.875V15Z" fill="#5E81F4"/>
    <path d="M7.5 12.5H12.5V18.75H7.5V12.5Z" fill="#5E81F4"/>
    <path d="M13.125 10H18.125V18.75H13.125V10Z" fill="#5E81F4"/>
    <path d="M5.27949 10.1398L6.44312 7.8125H10.625C10.678 7.8125 10.7301 7.79902 10.7765 7.77333C10.8228 7.74763 10.8619 7.71057 10.89 7.66563L12.4525 5.16563C12.4964 5.09534 12.5106 5.01049 12.492 4.92973C12.4734 4.84897 12.4234 4.77893 12.3531 4.735C12.2828 4.69108 12.198 4.67687 12.1172 4.6955C12.0365 4.71414 11.9664 4.76409 11.9225 4.83438L10.4518 7.1875H6.25C6.19197 7.1875 6.13509 7.20366 6.08572 7.23417C6.03636 7.26468 5.99646 7.30833 5.97051 7.36023L4.80687 9.6875H1.5625C1.47962 9.6875 1.40013 9.72042 1.34153 9.77903C1.28292 9.83763 1.25 9.91712 1.25 10C1.25 10.0829 1.28292 10.1624 1.34153 10.221C1.40013 10.2796 1.47962 10.3125 1.5625 10.3125H5C5.05803 10.3125 5.11492 10.2963 5.16428 10.2658C5.21364 10.2353 5.25354 10.1917 5.27949 10.1398Z" fill="#5E81F4"/>
</svg>
