<svg width="20" height="20" viewBox="0 0 20 20" fill="none" xmlns="http://www.w3.org/2000/svg">
<path d="M10.0009 10.57L15.6846 19H4.31732L10.0009 10.57ZM8.99684 8.28449C8.85724 8.15586 8.74527 8.00075 8.6676 7.8284C8.58994 7.65605 8.54818 7.47001 8.54482 7.28136C8.54145 7.09271 8.57655 6.90532 8.64801 6.73037C8.71948 6.55542 8.82584 6.3965 8.96077 6.26308C9.0957 6.12966 9.25642 6.02449 9.43335 5.95382C9.61028 5.88316 9.79978 5.84845 9.99057 5.85178C10.1814 5.85511 10.3695 5.8964 10.5438 5.9732C10.7181 6.04999 10.875 6.16071 11.0051 6.29875C11.256 6.56509 11.3927 6.91736 11.3862 7.28136C11.3797 7.64535 11.2306 7.99264 10.9702 8.25006C10.7099 8.50748 10.3587 8.65494 9.99057 8.66136C9.62246 8.66778 9.2662 8.53267 8.99684 8.28449ZM3.63623 1L4.97662 2.32539C3.64443 3.64281 2.89603 5.42954 2.89603 7.29255C2.89603 9.15557 3.64443 10.9423 4.97662 12.2597L3.63623 13.5851C2.80045 12.7588 2.13747 11.7778 1.68514 10.6981C1.23281 9.61843 1 8.46121 1 7.29255C1 6.1239 1.23281 4.96668 1.68514 3.887C2.13747 2.80731 2.80045 1.82631 3.63623 1ZM16.3638 1C17.1996 1.82631 17.8625 2.80731 18.3149 3.887C18.7672 4.96668 19 6.1239 19 7.29255C19 8.46121 18.7672 9.61843 18.3149 10.6981C17.8625 11.7778 17.1996 12.7588 16.3638 13.5851L15.0234 12.2597C16.3556 10.9423 17.104 9.15557 17.104 7.29255C17.104 5.42954 16.3556 3.64281 15.0234 2.32539L16.3638 1ZM6.31606 3.6489L7.6555 4.97336C7.3476 5.27778 7.10335 5.6392 6.93672 6.03697C6.77008 6.43474 6.68431 6.86107 6.68431 7.29162C6.68431 7.72216 6.77008 8.14849 6.93672 8.54626C7.10335 8.94403 7.3476 9.30545 7.6555 9.60988L6.31606 10.9343C5.33905 9.96821 4.79017 8.65789 4.79017 7.29162C4.79017 5.92534 5.33905 4.61503 6.31606 3.6489ZM13.6839 3.6489C14.661 4.61503 15.2098 5.92534 15.2098 7.29162C15.2098 8.65789 14.661 9.96821 13.6839 10.9343L12.3445 9.60988C12.6524 9.30545 12.8966 8.94403 13.0633 8.54626C13.2299 8.14849 13.3157 7.72216 13.3157 7.29162C13.3157 6.86107 13.2299 6.43474 13.0633 6.03697C12.8966 5.6392 12.6524 5.27778 12.3445 4.97336L13.6839 3.6489Z" fill="#5E81F4"/>
</svg>
