<svg width="20" height="20" viewBox="0 0 20 20" fill="none" xmlns="http://www.w3.org/2000/svg">
    <path d="M18.469 4H14.4602C14.2783 4 14.1037 4.08481 14.0041 4.23451C13.8632 4.44636 13.8967 4.71907 14.072 4.89147L14.903 5.70886L12.3475 8.22222L9.64375 5.56302C9.43642 5.35904 9.10021 5.35911 8.89285 5.56302L3 11.3587V16L9.26828 9.83499L11.972 12.4943C12.1697 12.6966 12.5253 12.6965 12.7229 12.4943L17.2625 8.02945L18.0936 8.84681C18.2691 9.01945 18.5469 9.05218 18.7621 8.91316C18.9141 8.81505 19 8.64335 19 8.46457V4.52223C19 4.23382 18.7623 4 18.469 4Z" fill="#5E81F4"/>
    <path d="M18.4727 17.9453H2.05469V1.52734C2.05469 1.23611 1.81858 1 1.52734 1C1.23611 1 1 1.23611 1 1.52734V18.4727C1 18.7639 1.23611 19 1.52734 19H18.4727C18.7639 19 19 18.7639 19 18.4727C19 18.1814 18.7639 17.9453 18.4727 17.9453Z" fill="#5E81F4"/>
</svg>
