<svg width="20" height="20" viewBox="0 0 20 20" fill="none" xmlns="http://www.w3.org/2000/svg">
    <path d="M10 8C8.89733 8 8 8.98707 8 10.2C8 11.1548 8.55933 11.9615 9.33333 12.2651V18.2667C9.33333 18.6715 9.632 19 10 19C10.368 19 10.6667 18.6715 10.6667 18.2667V12.2651C11.4407 11.9615 12 11.1548 12 10.2C12 8.98707 11.1027 8 10 8Z" fill="#5E81F4"/>
    <path d="M10 1C5.03725 1 1 5.14608 1 10.2426C1 12.715 1.9375 15.0357 3.64075 16.7756C3.9355 17.076 4.41025 17.0744 4.702 16.7733C4.9945 16.4713 4.993 15.9838 4.69975 15.6834C3.28075 14.2346 2.5 12.3029 2.5 10.2426C2.5 5.99563 5.8645 2.54043 10 2.54043C14.1355 2.54043 17.5 5.99563 17.5 10.2426C17.5 12.3022 16.7193 14.2346 15.301 15.6834C15.0078 15.9838 15.0063 16.4713 15.2987 16.7733C15.4458 16.9242 15.6377 16.9997 15.8305 16.9997C16.0218 16.9997 16.213 16.925 16.36 16.7756C18.0625 15.0357 19 12.7158 19 10.2426C19 5.14685 14.9628 1 10 1Z" fill="#5E81F4"/>
    <path d="M10 4C6.69175 4 4 6.57405 4 9.73765C4 11.2725 4.62625 12.7126 5.764 13.792C6.058 14.0703 6.532 14.0689 6.82525 13.7884C7.117 13.5073 7.11475 13.0533 6.8215 12.7736C5.96875 11.966 5.5 10.8873 5.5 9.73765C5.5 7.36441 7.51825 5.43441 10 5.43441C12.4818 5.43441 14.5 7.36441 14.5 9.73765C14.5 10.8873 14.0312 11.9653 13.1793 12.7736C12.8853 13.0526 12.8837 13.5066 13.1755 13.7884C13.3225 13.9297 13.5153 14 13.708 14C13.8985 14 14.0898 13.9304 14.2367 13.792C15.3737 12.7126 16 11.2732 16 9.73765C16 6.57405 13.3082 4 10 4Z" fill="#5E81F4"/>
</svg>
