<svg width="20" height="20" viewBox="0 0 20 20" fill="none" xmlns="http://www.w3.org/2000/svg">
    <path d="M3.877 12.4692C4.375 12.9083 4.93976 13.2564 5.54501 13.5181L8.72801 11.5483C9.38651 11.1388 10.2685 11.2357 10.8198 11.7819L11.89 12.8366C13.4943 11.671 14.5 9.80621 14.5 7.7825C14.5 4.31826 11.6403 1.5 8.12501 1.5C4.60976 1.5 1.75 4.31826 1.75 7.7825C1.75 9.57043 2.52475 11.2785 3.877 12.4692ZM8.41001 8.33684H7.84001C6.96326 8.33684 6.25001 7.63394 6.25001 6.76991C6.25001 5.9931 6.81851 5.35376 7.56251 5.22368V4.64125C7.56251 4.33526 7.81451 4.08691 8.12501 4.08691C8.43551 4.08691 8.68751 4.33526 8.68751 4.64125V5.19559H9.43751C9.74801 5.19559 10 5.44393 10 5.74993C10 6.05592 9.74801 6.30427 9.43751 6.30427H7.84001C7.58351 6.30427 7.37501 6.50974 7.37501 6.76252C7.37501 7.02269 7.58351 7.22816 7.84001 7.22816H8.41001C9.28676 7.22816 10 7.93107 10 8.79509C10 9.57191 9.43151 10.2112 8.68751 10.3413V10.923C8.68751 11.229 8.43551 11.4774 8.12501 11.4774C7.81451 11.4774 7.56251 11.229 7.56251 10.923V10.3694H6.81251C6.50201 10.3694 6.25001 10.1211 6.25001 9.81508C6.25001 9.50908 6.50201 9.26074 6.81251 9.26074H8.41001C8.66651 9.26074 8.87501 9.05526 8.87501 8.80248C8.87501 8.54232 8.66651 8.33684 8.41001 8.33684Z" fill="#5E81F4"/>
    <path d="M18.2498 9.62988H15.2497C14.9467 9.62988 14.6722 9.81023 14.5567 10.0859C14.4405 10.3623 14.505 10.6802 14.7195 10.8916L15.6892 11.8472L12.6247 14.8673L10.155 12.4334C9.90974 12.1902 9.52424 12.1481 9.23024 12.3277L1.35523 17.1319C1.00273 17.347 0.894727 17.8023 1.11223 18.149C1.25398 18.3751 1.49923 18.4993 1.75048 18.4993C1.88548 18.4993 2.02123 18.4638 2.14423 18.3884L9.51374 13.8924L12.0937 16.4349C12.387 16.7239 12.861 16.7239 13.1542 16.4349L16.7498 12.8923L17.7195 13.848C17.8628 13.9892 18.0548 14.0646 18.2498 14.0646C18.3465 14.0646 18.444 14.0461 18.537 14.0084C18.8175 13.8939 18.9998 13.6241 18.9998 13.3255V10.369C18.9998 9.96101 18.6645 9.62988 18.2498 9.62988Z" fill="#5E81F4"/>
</svg>
